<svg xmlns="http://www.w3.org/2000/svg" width="102.654" height="90.224" viewBox="0 0 102.654 90.224">
  <g id="coming-soon-ico" transform="translate(0 -31)">
    <path id="Path_4895" data-name="Path 4895" d="M307.973,181l-6.015,0-.011,24.061h24.07v-6.015H307.965Z" transform="translate(-241.408 -119.92)" fill="#ec2531"/>
    <path id="Path_4896" data-name="Path 4896" d="M88.37,51.934l5.251-7.5-4.927-3.45L83.446,48.48a38.82,38.82,0,0,0-16.881-5.335V37.015H72.58V31H54.535v6.015H60.55v6.129A38.82,38.82,0,0,0,43.669,48.48l-5.248-7.495-4.927,3.45,5.251,7.5A39.3,39.3,0,0,0,27.47,67.089H12.431V73.1H25.513a38.89,38.89,0,0,0-.938,6.015H0v6.015H24.575a38.914,38.914,0,0,0,.938,6.015H12.431v6.015H27.47a39.092,39.092,0,1,0,60.9-45.229ZM63.557,115.209A33.118,33.118,0,0,1,34.095,97.164h8.41V91.149H31.726a32.876,32.876,0,0,1-1.113-6.015H36.49V79.119H30.614A32.876,32.876,0,0,1,31.726,73.1H42.505V67.089h-8.41a33.08,33.08,0,1,1,29.463,48.119Z" fill="#ec2531"/>
  </g>
</svg>
