<svg xmlns="http://www.w3.org/2000/svg" width="73.85" height="88.62" viewBox="0 0 73.85 88.62">
  <g id="icon_lock" transform="translate(-2)">
    <path id="Path_4322" data-name="Path 4322" d="M16.77,88.62H61.08A14.77,14.77,0,0,0,75.85,73.85V44.31A14.77,14.77,0,0,0,61.08,29.54V22.155a22.155,22.155,0,1,0-44.31,0V29.54A14.77,14.77,0,0,0,2,44.31V73.85A14.77,14.77,0,0,0,16.77,88.62Zm7.385-66.465a14.77,14.77,0,1,1,29.54,0V29.54H24.155ZM9.385,44.31a7.385,7.385,0,0,1,7.385-7.385H61.08a7.385,7.385,0,0,1,7.385,7.385V73.85a7.385,7.385,0,0,1-7.385,7.385H16.77A7.385,7.385,0,0,1,9.385,73.85Z" fill="#ec2531"/>
    <path id="Path_4323" data-name="Path 4323" d="M16.386,33.509v4.372a3.692,3.692,0,1,0,7.385,0V33.509a11.077,11.077,0,1,0-7.385,0Zm3.692-14.091a3.692,3.692,0,1,1-3.692,3.692A3.692,3.692,0,0,1,20.078,19.418Z" transform="translate(18.847 32.276)" fill="#ec2531"/>
  </g>
</svg>
