<svg xmlns="http://www.w3.org/2000/svg" width="97" height="97" viewBox="0 0 97 97">
  <g id="always-on-ico" transform="translate(-638 -1380)">
    <circle id="Ellipse_236" data-name="Ellipse 236" cx="48.5" cy="48.5" r="48.5" transform="translate(638 1380)" fill="#838ea4" opacity="0.2"/>
    <g id="_24hours_7days" data-name="24hours_7days" transform="translate(613.996 1356.531)">
      <path id="Path_4894" data-name="Path 4894" d="M97.685,72.37a.974.974,0,0,0-.974.974,23.381,23.381,0,1,1-8.7-18.195H83.9a.974.974,0,1,0,0,1.948h6.648a.978.978,0,0,0,.974-.974V49.475a.974.974,0,1,0-1.948,0v4.442a25.325,25.325,0,1,0,9.081,19.427.974.974,0,0,0-.974-.974Z" fill="#20285b"/>
      <path id="Path_4895" data-name="Path 4895" d="M263.964,193.962,259,207.6a.974.974,0,1,0,1.83.666l4.964-13.638a.974.974,0,1,0-1.83-.666Z" transform="translate(-185.252 -127.609)" fill="#20285b"/>
      <path id="Path_4896" data-name="Path 4896" d="M136.589,215.826a3.575,3.575,0,0,0-1.054-2.544,3.681,3.681,0,0,0-5.088,0,3.573,3.573,0,0,0-1.054,2.544.974.974,0,1,0,1.948,0,1.64,1.64,0,0,1,.483-1.166,1.687,1.687,0,0,1,2.333,0,1.649,1.649,0,0,1,0,2.332l-4.479,4.479a.974.974,0,0,0,.689,1.663h5.247a.974.974,0,0,0,0-1.948h-2.9l2.816-2.816A3.572,3.572,0,0,0,136.589,215.826Z" transform="translate(-71.479 -144.243)" fill="#20285b"/>
      <path id="Path_4897" data-name="Path 4897" d="M196.18,222.889a.974.974,0,0,0,.974-.974v-1.453h.5a.974.974,0,0,0,0-1.948h-.5v-5.556a.974.974,0,0,0-1.789-.535l-4.282,6.53a.974.974,0,0,0,.815,1.509h3.308v1.453A.974.974,0,0,0,196.18,222.889Zm-2.478-4.375,1.5-2.294v2.294Z" transform="translate(-125.516 -144)" fill="#20285b"/>
      <path id="Path_4898" data-name="Path 4898" d="M322.188,221.915a.974.974,0,0,0,1.948,0v-2.005a8.8,8.8,0,0,1,2.594-6.263.974.974,0,0,0-.689-1.663h-5.759a.974.974,0,0,0,0,1.948h3.7a10.729,10.729,0,0,0-1.8,5.977Z" transform="translate(-238.268 -144)" fill="#20285b"/>
    </g>
  </g>
</svg>
