<svg id="attachment-ico" xmlns="http://www.w3.org/2000/svg" width="16.667" height="18.749" viewBox="0 0 16.667 18.749">
  <path id="Path_4319" data-name="Path 4319" d="M12.48,3.229a5.128,5.128,0,1,1,8.628,5.546L19.78,7.922a3.55,3.55,0,1,0-5.973-3.84Z" transform="translate(-5.253 -0.867)" fill="#20285b"/>
  <path id="Path_4320" data-name="Path 4320" d="M10.965,5.012l-6.6,10.305a2.367,2.367,0,1,0,3.983,2.558l1.7-2.659h0l4.259-6.648h0a1.183,1.183,0,1,0-1.991-1.28h0L8.936,12.659a.693.693,0,0,1-.959.209l-.159-.1a.7.7,0,0,1-.21-.96L10.99,6.434h0a2.761,2.761,0,1,1,4.646,2.986h0l-1.7,2.659h0L9.675,18.729a3.945,3.945,0,1,1-6.637-4.266l6.6-10.3Z" transform="translate(-2.412 -1.796)" fill="#20285b"/>
  <path id="Path_4321" data-name="Path 4321" d="M15.326,20.046a.7.7,0,0,1-.21-.96l5.375-8.39,1.327.853-5.375,8.39a.693.693,0,0,1-.959.209Z" transform="translate(-5.966 -3.641)" fill="#20285b"/>
</svg>
