<svg xmlns="http://www.w3.org/2000/svg" width="97" height="97" viewBox="0 0 97 97">
  <g id="automated-ico" transform="translate(-172 -1380)">
    <circle id="Ellipse_234" data-name="Ellipse 234" cx="48.5" cy="48.5" r="48.5" transform="translate(172 1380)" fill="#838ea4" opacity="0.2"/>
    <g id="_3709727_problem_process_solution_solve_trouble_icon" data-name="3709727_problem_process_solution_solve_trouble_icon" transform="translate(191 1406)">
      <path id="Path_4891" data-name="Path 4891" d="M53,40.232V33.9l-3.128-.8a13.427,13.427,0,0,0-.944-2.285l1.644-2.775-4.479-4.48L43.318,25.2a13.326,13.326,0,0,0-2.285-.944l-.8-3.127H33.9l-.8,3.128a13.326,13.326,0,0,0-2.285.944l-2.776-1.645-.2.2V21.129H25.323A2.523,2.523,0,0,1,23.46,20.3a2.5,2.5,0,0,1-.642-1.941A2.616,2.616,0,0,1,25.467,16.1h2.372V8.548a2.519,2.519,0,0,0-2.516-2.516h-6.71V5.338A4.3,4.3,0,0,0,14.829,1.02a4.193,4.193,0,0,0-4.6,4.173v.839H3.516A2.519,2.519,0,0,0,1,8.548V16.1H3.372a2.616,2.616,0,0,1,2.649,2.266A2.494,2.494,0,0,1,5.379,20.3a2.52,2.52,0,0,1-1.863.825H1v7.548a2.519,2.519,0,0,0,2.516,2.516H11.9V28.822a2.615,2.615,0,0,1,2.266-2.649,2.518,2.518,0,0,1,2.766,2.5v2.516h8.086a13.337,13.337,0,0,0-.765,1.9l-3.128.8v6.335l3.128.8a13.427,13.427,0,0,0,.944,2.285l-1.644,2.775,4.479,4.48,2.776-1.645a13.326,13.326,0,0,0,2.285.944L33.9,53h6.335l.8-3.128a13.326,13.326,0,0,0,2.285-.944l2.776,1.645,4.479-4.48-1.644-2.775a13.3,13.3,0,0,0,.944-2.285ZM17.24,25.574a4.193,4.193,0,0,0-3.23-1.07,4.3,4.3,0,0,0-3.784,4.318v.694H3.516a.84.84,0,0,1-.839-.839V22.806h.839A4.195,4.195,0,0,0,7.69,18.2a4.305,4.305,0,0,0-4.319-3.784H2.677V8.548a.84.84,0,0,1,.839-.839H11.9V5.194a2.518,2.518,0,0,1,2.766-2.505,2.617,2.617,0,0,1,2.266,2.649V7.71h8.387a.84.84,0,0,1,.839.839v5.871h-.694A4.305,4.305,0,0,0,21.148,18.2a4.193,4.193,0,0,0,4.174,4.6h.839v2.625l-2.6,2.6.876,1.48H18.613v-.839A4.2,4.2,0,0,0,17.24,25.574ZM48.517,39.648l-.127.473a11.647,11.647,0,0,1-1.154,2.792l-.245.425,1.474,2.489-2.638,2.639-2.489-1.475-.424.245A11.673,11.673,0,0,1,40.12,48.39l-.473.127-.717,2.805H35.2l-.718-2.805-.473-.127a11.687,11.687,0,0,1-2.794-1.154l-.424-.245L28.3,48.466l-2.638-2.639,1.474-2.489-.245-.425a11.647,11.647,0,0,1-1.154-2.792l-.127-.473-2.805-.718V35.2l2.805-.718.127-.473a11.646,11.646,0,0,1,1.154-2.792l.245-.425L25.664,28.3,28.3,25.664l2.489,1.475.424-.245a11.673,11.673,0,0,1,2.794-1.154l.473-.127.717-2.806h3.73l.718,2.805.473.127a11.687,11.687,0,0,1,2.794,1.154l.424.245,2.489-1.475L48.465,28.3l-1.474,2.489.245.425a11.647,11.647,0,0,1,1.154,2.792l.127.473,2.805.718v3.73Z" fill="#20285b"/>
      <path id="Path_4892" data-name="Path 4892" d="M42.71,36a6.71,6.71,0,1,0,0,13.419,6.65,6.65,0,0,0,4.026-1.35l-1.008-1.34a5.043,5.043,0,1,1,1-1l1.341,1.007A6.7,6.7,0,0,0,42.71,36Z" transform="translate(-5.645 -5.645)" fill="#20285b"/>
      <path id="Path_4893" data-name="Path 4893" d="M42.065,32A10.065,10.065,0,1,0,52.129,42.065,10.076,10.076,0,0,0,42.065,32Zm0,18.452a8.387,8.387,0,1,1,8.387-8.387A8.4,8.4,0,0,1,42.065,50.452Z" transform="translate(-5 -5)" fill="#20285b"/>
      <rect id="Rectangle_2681" data-name="Rectangle 2681" width="1" height="2" transform="translate(44 6)" fill="#20285b"/>
      <rect id="Rectangle_2682" data-name="Rectangle 2682" width="1" height="2" transform="translate(44 9)" fill="#20285b"/>
      <rect id="Rectangle_2683" data-name="Rectangle 2683" width="2" height="1" transform="translate(45 8)" fill="#20285b"/>
      <rect id="Rectangle_2684" data-name="Rectangle 2684" width="2" height="1" transform="translate(42 8)" fill="#20285b"/>
      <rect id="Rectangle_2685" data-name="Rectangle 2685" width="2" height="1" transform="translate(35 13)" fill="#20285b"/>
      <rect id="Rectangle_2686" data-name="Rectangle 2686" width="2" height="2" transform="translate(35 16)" fill="#20285b"/>
      <rect id="Rectangle_2687" data-name="Rectangle 2687" width="2" height="2" transform="translate(37 14)" fill="#20285b"/>
      <rect id="Rectangle_2688" data-name="Rectangle 2688" width="1" height="2" transform="translate(34 14)" fill="#20285b"/>
      <rect id="Rectangle_2689" data-name="Rectangle 2689" width="2" height="2" transform="translate(47 16)" fill="#20285b"/>
      <rect id="Rectangle_2690" data-name="Rectangle 2690" width="2" height="2" transform="translate(47 19)" fill="#20285b"/>
      <rect id="Rectangle_2691" data-name="Rectangle 2691" width="1" height="1" transform="translate(49 18)" fill="#20285b"/>
      <rect id="Rectangle_2692" data-name="Rectangle 2692" width="2" height="1" transform="translate(45 18)" fill="#20285b"/>
      <rect id="Rectangle_2693" data-name="Rectangle 2693" width="2" height="1" transform="translate(31 3)" fill="#20285b"/>
      <rect id="Rectangle_2694" data-name="Rectangle 2694" width="2" height="2" transform="translate(31 6)" fill="#20285b"/>
      <rect id="Rectangle_2695" data-name="Rectangle 2695" width="2" height="2" transform="translate(33 4)" fill="#20285b"/>
      <rect id="Rectangle_2696" data-name="Rectangle 2696" width="1" height="2" transform="translate(30 4)" fill="#20285b"/>
      <rect id="Rectangle_2697" data-name="Rectangle 2697" width="2" height="1" transform="translate(15 40)" fill="#20285b"/>
      <rect id="Rectangle_2698" data-name="Rectangle 2698" width="2" height="2" transform="translate(15 43)" fill="#20285b"/>
      <rect id="Rectangle_2699" data-name="Rectangle 2699" width="2" height="2" transform="translate(17 41)" fill="#20285b"/>
      <rect id="Rectangle_2700" data-name="Rectangle 2700" width="1" height="2" transform="translate(14 41)" fill="#20285b"/>
      <rect id="Rectangle_2701" data-name="Rectangle 2701" width="2" height="1" transform="translate(7 35)" fill="#20285b"/>
      <rect id="Rectangle_2702" data-name="Rectangle 2702" width="2" height="2" transform="translate(7 38)" fill="#20285b"/>
      <rect id="Rectangle_2703" data-name="Rectangle 2703" width="1" height="2" transform="translate(9 36)" fill="#20285b"/>
      <rect id="Rectangle_2704" data-name="Rectangle 2704" width="2" height="2" transform="translate(5 36)" fill="#20285b"/>
    </g>
  </g>
</svg>
