<svg xmlns="http://www.w3.org/2000/svg" width="97" height="97" viewBox="0 0 97 97">
  <g id="boosted-ico" transform="translate(-174 -205)">
    <circle id="Ellipse_251" data-name="Ellipse 251" cx="48.5" cy="48.5" r="48.5" transform="translate(174 205)" fill="#838ea4" opacity="0.2"/>
    <g id="secure-shield" transform="translate(164.697 234.24)">
      <g id="Group_9901" data-name="Group 9901" transform="translate(37.681 0)">
        <g id="Group_9900" data-name="Group 9900" transform="translate(0 0)">
          <path id="Path_4987" data-name="Path 4987" d="M74.25,7.541A72.648,72.648,0,0,1,56.771.127a.918.918,0,0,0-.934,0,70.659,70.659,0,0,1-17.48,7.414.919.919,0,0,0-.676.886v9.387a27,27,0,0,0,8.2,19.73c4.027,3.946,8.719,6.129,10.422,6.129s6.395-2.182,10.422-6.129a27,27,0,0,0,8.2-19.73V8.427A.919.919,0,0,0,74.25,7.541ZM73.089,17.814A25.2,25.2,0,0,1,65.44,36.232c-3.961,3.881-8.2,5.6-9.136,5.6s-5.176-1.723-9.137-5.6a25.2,25.2,0,0,1-7.649-18.418V9.125A72.352,72.352,0,0,0,56.3,1.983,74.642,74.642,0,0,0,73.089,9.124Z" transform="translate(-37.681 0)" fill="#20285b"/>
          <path id="Path_4988" data-name="Path 4988" d="M87.169,99.525a.919.919,0,0,0-1.192-.518c-1.641.647-3.326,1.242-5.007,1.769a.919.919,0,0,0-.644.877V105.2a.919.919,0,0,0,1.837,0v-2.876c1.508-.488,3.014-1.028,4.487-1.608A.918.918,0,0,0,87.169,99.525Z" transform="translate(-76.689 -90.503)" fill="#20285b"/>
          <path id="Path_4989" data-name="Path 4989" d="M171.123,88.048a.919.919,0,0,0,.368-.077l.017-.007a.919.919,0,1,0-.742-1.681l-.015.006a.918.918,0,0,0,.371,1.759Z" transform="translate(-158.898 -78.852)" fill="#20285b"/>
          <path id="Path_4990" data-name="Path 4990" d="M310.239,345.678a.919.919,0,0,0-1.272.267,22.363,22.363,0,0,1-2.64,3.3,23.466,23.466,0,0,1-2.635,2.344.919.919,0,1,0,1.114,1.461,25.321,25.321,0,0,0,2.842-2.528,24.175,24.175,0,0,0,2.857-3.57A.919.919,0,0,0,310.239,345.678Z" transform="translate(-280.671 -316.055)" fill="#20285b"/>
          <path id="Path_4991" data-name="Path 4991" d="M277.075,432.092l-.053.031a.919.919,0,1,0,.92,1.59l.061-.036a.919.919,0,1,0-.928-1.585Z" transform="translate(-256.187 -395.12)" fill="#20285b"/>
          <path id="Path_4992" data-name="Path 4992" d="M127.919,161.373a2.987,2.987,0,1,0-4.225,4.225l5.425,5.425a2.988,2.988,0,0,0,4.225,0L144.669,159.7a2.987,2.987,0,0,0-4.225-4.225l-9.212,9.212Zm13.823-4.6a1.15,1.15,0,1,1,1.626,1.626l-11.324,11.324a1.151,1.151,0,0,1-1.627,0l-5.425-5.424a1.15,1.15,0,0,1,1.626-1.626l3.962,3.962a.919.919,0,0,0,1.3,0Z" transform="translate(-115.559 -141.412)" fill="#20285b"/>
        </g>
      </g>
    </g>
  </g>
</svg>
