<svg xmlns="http://www.w3.org/2000/svg" xmlns:xlink="http://www.w3.org/1999/xlink" width="97" height="97" viewBox="0 0 97 97">
  <defs>
    <clipPath id="clip-path">
      <rect id="Rectangle_2709" data-name="Rectangle 2709" width="39.29" height="52.362" fill="#20285b"/>
    </clipPath>
  </defs>
  <g id="cost-effective-ico" transform="translate(-405 -1380)">
    <circle id="Ellipse_235" data-name="Ellipse 235" cx="48.5" cy="48.5" r="48.5" transform="translate(405 1380)" fill="#838ea4" opacity="0.2"/>
    <g id="Group_9865" data-name="Group 9865" transform="translate(432.71 1402.494)">
      <g id="Group_9864" data-name="Group 9864" transform="translate(0 0)" clip-path="url(#clip-path)">
        <path id="Path_4928" data-name="Path 4928" d="M.528,63.416c-.005-.016-.005-.04-.016-.048a.842.842,0,0,1-.428-1.034c.177-.487.576-.559,1.035-.558,2.488.007,4.976,0,7.465,0,3.391,0,6.783.015,10.175,0a11.6,11.6,0,0,0,8.614-3.591c3.193-3.289,6.423-6.543,9.643-9.806a1.673,1.673,0,0,0-1.267-2.967c-2.042.052-1.561-.279-3.139,1.314-1.055,1.066-2.123,2.119-3.186,3.177a2.282,2.282,0,0,1-.263.241.81.81,0,0,1-1.115-1.164c.173-.209.38-.39.573-.583,1.179-1.182,2.366-2.357,3.536-3.55a3.221,3.221,0,0,1,2.6-1.072c.577.036,1.168-.04,1.734.05a3.272,3.272,0,0,1,1.856,5.523c-1.061,1.13-2.168,2.217-3.257,3.322-2.2,2.234-4.419,4.451-6.6,6.705a13.023,13.023,0,0,1-8.142,3.952,1.526,1.526,0,0,0-.283.089Z" transform="translate(-0.007 -11.054)" fill="#20285b"/>
        <path id="Path_4929" data-name="Path 4929" d="M38.771,0c.058.057.113.117.173.171a.778.778,0,0,1,.273.911.794.794,0,0,1-.78.552c-.153.005-.307,0-.46,0-5.709,0-11.419.013-17.128,0A12.042,12.042,0,0,0,11.671,5.48C8.6,8.7,5.448,11.837,2.321,15a1.7,1.7,0,0,0-.543,1.975c.333.791,1,.975,1.822,1.048a3.356,3.356,0,0,0,3.073-1.28c1-1.156,2.15-2.186,3.241-3.265.465-.46.933-.508,1.3-.15.38.373.322.846-.164,1.332-1.3,1.3-2.609,2.6-3.9,3.908a3.229,3.229,0,0,1-2.6,1.072c-.578-.035-1.168.04-1.735-.05A3.126,3.126,0,0,1,.186,17.373a3.121,3.121,0,0,1,.8-3.343c2.352-2.419,4.728-4.816,7.1-7.219,1.065-1.08,2.12-2.171,3.207-3.228A12.762,12.762,0,0,1,18.852.1a3.217,3.217,0,0,0,.385-.1Z" transform="translate(0 0)" fill="#20285b"/>
        <path id="Path_4930" data-name="Path 4930" d="M23.209,40.986A9,9,0,1,1,32.237,32a9,9,0,0,1-9.028,8.986m-7.33-9.027a7.361,7.361,0,1,0,7.409-7.335,7.361,7.361,0,0,0-7.409,7.335" transform="translate(-3.597 -5.805)" fill="#20285b"/>
        <path id="Path_4931" data-name="Path 4931" d="M18.584,58.511H14.29c-.771,0-1.173-.289-1.162-.832.01-.525.4-.8,1.139-.8,2.863,0,5.725.007,8.587,0a1.624,1.624,0,0,0,1.525-2.378,1.653,1.653,0,0,0-1.548-.895c-1.583-.046-3.166-.1-4.747-.184a23.967,23.967,0,0,1-5.257-.986,8.022,8.022,0,0,0-4.678-.24A16.982,16.982,0,0,0,5.5,53.465c-.8.418-1.537.965-2.364,1.3a8.545,8.545,0,0,1-2.179.456.8.8,0,0,1-.913-.808.825.825,0,0,1,.877-.807,5.636,5.636,0,0,0,2.813-.96,32.227,32.227,0,0,1,3.252-1.8,8.143,8.143,0,0,1,5.714-.127,35.129,35.129,0,0,0,10.25,1.252,3.263,3.263,0,0,1,.984,6.373,3.961,3.961,0,0,1-1.1.161c-1.414.019-2.828.007-4.242.007" transform="translate(-0.01 -12.694)" fill="#20285b"/>
        <path id="Path_4932" data-name="Path 4932" d="M25.162,8.755q2.2,0,4.4,0c.644,0,1.027.3,1.038.8.012.518-.383.833-1.058.833-2.9,0-5.793,0-8.691,0a1.605,1.605,0,0,0-1.617,1.164,1.523,1.523,0,0,0,.589,1.76,2.624,2.624,0,0,0,1.145.334c2.206.159,4.424.2,6.619.448a31.235,31.235,0,0,1,3.973.913,7.649,7.649,0,0,0,6.527-1.1,13.372,13.372,0,0,1,2.481-1.4,8.627,8.627,0,0,1,2.227-.468.789.789,0,0,1,.892.778.816.816,0,0,1-.847.835A5.261,5.261,0,0,0,40.2,14.5c-1.07.629-2.115,1.314-3.235,1.839a8.034,8.034,0,0,1-5.8.233,35.771,35.771,0,0,0-10.4-1.278,3.261,3.261,0,0,1-1.229-6.27,3.933,3.933,0,0,1,1.339-.258c1.431-.032,2.863-.012,4.294-.012" transform="translate(-4.423 -2.209)" fill="#20285b"/>
        <path id="Path_4933" data-name="Path 4933" d="M25.2,37.228c-.074,1.23-.261,1.581-.827,1.594s-.746-.317-.874-1.627c-.241,0-.49.01-.738,0a.816.816,0,1,1,.018-1.629c.733-.013,1.466,0,2.2-.005.6,0,.978-.312.992-.8.014-.5-.376-.846-1-.833a2.977,2.977,0,0,1-2.165-.571,2.446,2.446,0,0,1,.96-4.263c.179-.048.363-.075.571-.117.084-.634-.192-1.585.872-1.56.972.023.746.907.808,1.573.175.008.339.022.5.024.69.008,1.079.3,1.087.806.008.53-.391.829-1.114.83-.664,0-1.329,0-1.993,0-.6.005-.958.321-.953.825s.365.821.972.8a2.924,2.924,0,0,1,2.289.65,2.454,2.454,0,0,1-1.138,4.2c-.146.036-.3.058-.466.091" transform="translate(-5.53 -6.924)" fill="#20285b"/>
      </g>
    </g>
  </g>
</svg>
