<svg xmlns="http://www.w3.org/2000/svg" xmlns:xlink="http://www.w3.org/1999/xlink" width="97" height="97" viewBox="0 0 97 97">
  <defs>
    <clipPath id="clip-path">
      <rect id="Rectangle_2707" data-name="Rectangle 2707" width="50.667" height="50.568" fill="#20285b"/>
    </clipPath>
  </defs>
  <g id="diversified-ico_" data-name="diversified-ico " transform="translate(-638 -1758)">
    <circle id="Ellipse_240" data-name="Ellipse 240" cx="48.5" cy="48.5" r="48.5" transform="translate(638 1758)" fill="#838ea4" opacity="0.2"/>
    <g id="Group_9861" data-name="Group 9861" transform="translate(661.333 1783.352)">
      <g id="Group_9860" data-name="Group 9860" transform="translate(0 0)" clip-path="url(#clip-path)">
        <path id="Path_4907" data-name="Path 4907" d="M62.551,61.8H42.972c-.01-.184-.027-.342-.027-.5,0-3.621-.012-7.241,0-10.862a9.8,9.8,0,0,1,19.408-1.985c.057.3.129.6.195.9Zm-1.682-1.666a1.245,1.245,0,0,0,.041-.211c-.01-3.423.083-6.851-.059-10.269a8.159,8.159,0,0,0-16.284.9c-.009,3.028,0,6.056,0,9.085v.467h3.3A6.081,6.081,0,0,1,46.2,55.423c.046-1.1,0-2.205.009-3.308A4.922,4.922,0,0,1,51.27,47.1a.5.5,0,0,1,.566.393,6.327,6.327,0,0,0,6.407,4.522h1.04c0,1.406.007,2.737,0,4.069A5.661,5.661,0,0,1,57.9,59.8c-.08.094-.148.2-.25.335Zm-3.178-4.9-.047,0c0-.394-.014-.79,0-1.183.015-.306-.08-.417-.407-.451a7.774,7.774,0,0,1-6.469-4.393c-.193-.374-.375-.4-.722-.278a3.239,3.239,0,0,0-2.205,3.032c-.035,1.4-.046,2.8,0,4.191a3.979,3.979,0,0,0,3.264,3.915,12.678,12.678,0,0,0,2.709.071,3.936,3.936,0,0,0,3.691-3.093,13.983,13.983,0,0,0,.179-1.807" transform="translate(-11.884 -11.233)" fill="#20285b"/>
        <path id="Path_4908" data-name="Path 4908" d="M14.547,0a14.86,14.86,0,0,1,1.529.644,3.878,3.878,0,0,1,1.524,1.7,1.1,1.1,0,0,0,.448.465,4.07,4.07,0,0,1,2.366,4.038,1.36,1.36,0,0,0,.186.723A4.037,4.037,0,0,1,20.578,12a.99.99,0,0,0-.179.577,3.278,3.278,0,0,1-3.171,3.73c-.031,0-.061.021-.008,0a17.091,17.091,0,0,1-.911,2.123,5.331,5.331,0,0,1-4.239,2.714,9.218,9.218,0,0,1-4.2-.3A5.6,5.6,0,0,1,4.248,16.8c-.037-.143-.069-.287-.108-.453-.093-.014-.185-.035-.279-.043A3.249,3.249,0,0,1,.853,12.624a.86.86,0,0,0-.045-.42C.549,11.589.271,10.981,0,10.371V9.185c.27-.611.545-1.22.8-1.836a.8.8,0,0,0,.046-.373A4.071,4.071,0,0,1,3.129,2.845a2.035,2.035,0,0,0,.555-.558A7.671,7.671,0,0,1,4.841.9,10.751,10.751,0,0,1,6.729,0H7.917A2.205,2.205,0,0,0,9.995,0h1.188a2.2,2.2,0,0,0,2.079,0Zm4.885,10.711a2.431,2.431,0,0,0-.587-2.692.634.634,0,0,1-.2-.729,2.366,2.366,0,0,0-1.83-3.149.659.659,0,0,1-.544-.575A2.4,2.4,0,0,0,12.64,2a.653.653,0,0,1-.759,0A2.309,2.309,0,0,0,9.4,1.987a.7.7,0,0,1-.8.008A2.394,2.394,0,0,0,4.971,3.58a.666.666,0,0,1-.6.574A2.349,2.349,0,0,0,2.57,7.16a.825.825,0,0,1-.238.945,2.2,2.2,0,0,0-.491,2.528,7.428,7.428,0,0,1,.834-.511,2.576,2.576,0,0,1,.938-.281,1.024,1.024,0,0,0,.935-.613A2.111,2.111,0,0,1,6.157,8.2c.325-.043.662,0,.986-.044A.7.7,0,0,0,7.6,7.9a2.621,2.621,0,0,1,2.98-1.32V8.167a5.909,5.909,0,0,0-.721.007c-.189.025-.464.054-.536.177a1.5,1.5,0,0,0-.261.874c.056.393.411.558.821.558,2.061,0,4.123.012,6.184-.007a4.3,4.3,0,0,1,3.367.936m-3.976.713H9.946a2.255,2.255,0,0,1-2.135-1.093A1.039,1.039,0,0,0,6.618,9.78a.828.828,0,0,0-.887.9c-.007,1.661-.022,3.323.009,4.984a3.929,3.929,0,0,0,3.124,3.772,13.653,13.653,0,0,0,2.706.118,3.87,3.87,0,0,0,3.854-3.367,47.542,47.542,0,0,0,.032-4.763m1.747.045v3.182a1.611,1.611,0,0,0,1.592-1.681,1.565,1.565,0,0,0-1.592-1.5M4.04,14.632v-3.17A1.555,1.555,0,0,0,2.463,13.04,1.539,1.539,0,0,0,4.04,14.632" transform="translate(0 0)" fill="#20285b"/>
        <path id="Path_4909" data-name="Path 4909" d="M53.816,0c.651.159,1.316.275,1.951.483A9.342,9.342,0,0,1,62.21,8.828q.146,2.363.224,4.731a4.025,4.025,0,0,1-3.33,4.313.746.746,0,0,0-.428.32,5.657,5.657,0,0,1-5.15,3.011,13.915,13.915,0,0,1-3.087-.245,5.2,5.2,0,0,1-3.4-2.659.9.9,0,0,0-.663-.485,3.9,3.9,0,0,1-3.17-3.875c.035-1.955.1-3.919.325-5.859A9.283,9.283,0,0,1,51.513.091,2.278,2.278,0,0,0,51.837,0ZM46.288,16.1v-.478c0-1.432-.014-2.864,0-4.3a4.029,4.029,0,0,1,2.68-3.731c.184-.067.372-.127.586-.2a4.877,4.877,0,0,1,.922-2.853L51.9,5.26c-.146.3-.273.562-.4.824a1.851,1.851,0,0,0,1.771,2.891q2.771,0,5.542.005h.558v7.069a2.345,2.345,0,0,0,1.449-2.385c-.078-1.611-.162-3.221-.263-4.831a7.743,7.743,0,0,0-6.814-7.148A7.568,7.568,0,0,0,45.356,7.41a40.692,40.692,0,0,0-.5,6.724A2.132,2.132,0,0,0,46.288,16.1m11.374-5.5H57.1c-1.318,0-2.638-.009-3.956,0a3.549,3.549,0,0,1-2.892-1.348.627.627,0,0,0-.517-.171,2.374,2.374,0,0,0-1.819,2.351c-.025,1.365-.038,2.732,0,4.1a4.009,4.009,0,0,0,3.433,3.983,14.417,14.417,0,0,0,2.419.052,4.028,4.028,0,0,0,3.823-3.082,1.254,1.254,0,0,0,.068-.287c0-1.839,0-3.678,0-5.6" transform="translate(-11.957 0)" fill="#20285b"/>
        <path id="Path_4910" data-name="Path 4910" d="M0,47.38a14.426,14.426,0,0,1,1.013-1.766,2.034,2.034,0,0,1,1.056-.683A1.867,1.867,0,0,0,3.3,43.855a6.026,6.026,0,0,1,3.308-2.89,5.821,5.821,0,0,1,4.478.135c1.867.822,3.728,1.661,5.573,2.531A5.058,5.058,0,0,1,19.416,49.6c-.054.207-.094.418-.162.62a2.74,2.74,0,0,0,.089,2.264A3.155,3.155,0,0,1,16.7,56.868a.476.476,0,0,0-.509.446A5.67,5.67,0,0,1,10.6,61.791a13.007,13.007,0,0,1-2.8-.148,5.511,5.511,0,0,1-4.372-4.271c-.038-.141-.071-.283-.11-.438a7.9,7.9,0,0,1-.785-.118,3.255,3.255,0,0,1-2.4-2.258c-.041-.122-.086-.242-.129-.364V53.108c.21-.456.422-.911.629-1.368a.4.4,0,0,0,.043-.23C.453,50.593.225,49.678,0,48.763V47.38m8.092,1.78c-.538.276-1.019.57-1.535.772s-1.065.312-1.629.472c0,1.99-.052,3.994.015,5.993a3.952,3.952,0,0,0,3.723,3.738,18.573,18.573,0,0,0,2.27,0,3.923,3.923,0,0,0,3.71-3.531c.115-1.487.044-2.988.054-4.483,0-.025-.037-.051-.057-.076-3.186-.378-3.772-.636-6.549-2.886m9.4,1.311c.129-.486.3-1,.4-1.53a3.373,3.373,0,0,0-1.8-3.761c-1.912-.917-3.84-1.806-5.8-2.625a4.323,4.323,0,0,0-5.38,1.782c-.323.516-.649,1.03-.938,1.564a.684.684,0,0,1-.692.407A1.56,1.56,0,0,0,1.68,47.626a7.369,7.369,0,0,0,.429,2.939l1.178-.238v-1.6a5.287,5.287,0,0,0,4.952-2.043c.133.169.218.268.294.374a7.52,7.52,0,0,0,6.68,3.325c.735-.017,1.472.054,2.28.088m-1.133,4.771a1.6,1.6,0,0,0,1.62-1.63,1.562,1.562,0,0,0-1.62-1.547ZM3.247,52.053a1.589,1.589,0,1,0,0,3.177Z" transform="translate(0 -11.231)" fill="#20285b"/>
        <path id="Path_4911" data-name="Path 4911" d="M31.253,41a9.781,9.781,0,1,1,9.824-9.771A9.793,9.793,0,0,1,31.253,41m8.2-9.787a8.175,8.175,0,1,0-8.182,8.165,8.191,8.191,0,0,0,8.182-8.165" transform="translate(-5.943 -5.932)" fill="#20285b"/>
        <path id="Path_4912" data-name="Path 4912" d="M34.429,14.4H32.782V5.127l-.123-.072L30.983,6.907,29.836,5.764l3.738-3.7L37.3,5.782l-1.034.95L34.58,5.017l-.152.1Z" transform="translate(-8.257 -0.572)" fill="#20285b"/>
        <path id="Path_4913" data-name="Path 4913" d="M5.741,29.784l1.077,1.127L5.037,32.553l.073.148h9.3V34.33H5.007l1.872,1.825L5.762,37.243,2.008,33.5l3.733-3.717" transform="translate(-0.556 -8.243)" fill="#20285b"/>
        <path id="Path_4914" data-name="Path 4914" d="M58.509,36.091l1.773-1.718H50.9V32.767H60.3L58.415,31l1.146-1.11L63.283,33.6,59.6,37.228l-1.093-1.137" transform="translate(-14.087 -8.273)" fill="#20285b"/>
        <path id="Path_4915" data-name="Path 4915" d="M32.789,60.059V50.8h1.593v9.277l1.779-1.8,1.163,1.2-3.7,3.689-3.76-3.722,1.125-1.073,1.63,1.816.171-.124" transform="translate(-8.264 -14.06)" fill="#20285b"/>
        <path id="Path_4916" data-name="Path 4916" d="M29.414,30.8V29.183h3.634c.149-1.144.292-2.244.441-3.386l1.6.207c-.124,1.05-.244,2.072-.372,3.15h2.8v1.627H34.5c-.137,1.1-.267,2.144-.4,3.246h3.409v1.651H33.9c-.146,1.134-.286,2.221-.433,3.362l-1.606-.2c.126-1.067.247-2.087.372-3.15h-2.8V34.059c.856,0,1.692-.014,2.528.007.36.009.516-.071.549-.474.074-.913.217-1.82.34-2.792Z" transform="translate(-8.14 -7.139)" fill="#20285b"/>
      </g>
    </g>
  </g>
</svg>
