<svg xmlns="http://www.w3.org/2000/svg" width="64" height="48.856" viewBox="0 0 64 48.856">
  <path id="double-calls-2" d="M60.548-247.554a53.647,53.647,0,0,0-14.075,10.829Q41.5-231.042,41.5-225.467q0,4.074,1.926,6a9.939,9.939,0,0,1,6.635-2.355,11.061,11.061,0,0,1,7.278,2.676,8.856,8.856,0,0,1,3.211,7.171,10.986,10.986,0,0,1-3.211,7.706,10.192,10.192,0,0,1-7.706,3.425,14.789,14.789,0,0,1-11.773-5.572q-4.709-5.572-4.709-15.642,0-9,7.92-17.572,7.064-7.5,14.983-10.07Zm36.6,0a53.647,53.647,0,0,0-14.075,10.829Q78.1-231.042,78.1-225.467q0,4.074,1.926,6a9.939,9.939,0,0,1,6.635-2.355,11.061,11.061,0,0,1,7.278,2.676,8.856,8.856,0,0,1,3.211,7.171,10.986,10.986,0,0,1-3.211,7.706,10.192,10.192,0,0,1-7.706,3.425,14.789,14.789,0,0,1-11.773-5.572q-4.709-5.572-4.709-15.642,0-9,7.92-17.572,7.064-7.5,14.983-10.07Z" transform="translate(97.15 -200.841) rotate(180)" fill="#ec2531" opacity="0.2"/>
</svg>
