<svg xmlns="http://www.w3.org/2000/svg" xmlns:xlink="http://www.w3.org/1999/xlink" width="97" height="97" viewBox="0 0 97 97">
  <defs>
    <clipPath id="clip-path">
      <rect id="Rectangle_2706" data-name="Rectangle 2706" width="45.885" height="52.407" fill="#20285b"/>
    </clipPath>
  </defs>
  <g id="expand-reach-ico" transform="translate(-1103 -1380)">
    <circle id="Ellipse_238" data-name="Ellipse 238" cx="48.5" cy="48.5" r="48.5" transform="translate(1103 1380)" fill="#838ea4" opacity="0.2"/>
    <g id="Group_9859" data-name="Group 9859" transform="translate(1127 1402.049)">
      <g id="Group_9858" data-name="Group 9858" clip-path="url(#clip-path)">
        <path id="Path_4904" data-name="Path 4904" d="M75.881,0c.39.245.664.559.5,1.052s-.576.572-1.032.569c-.7-.006-1.391,0-2.131,0v12.06c.653,0,1.3,0,1.943,0a4.04,4.04,0,0,1,.664.028.729.729,0,0,1,.655.786.68.68,0,0,1-.634.746c-1.228.036-2.46.05-3.685-.019-.262-.014-.5-.411-.855-.721a2.72,2.72,0,0,0-1.415.915,7.976,7.976,0,0,0-1.7,3.228c-.2.666-.355,1.349-.518,2.028a2.8,2.8,0,1,1-5.449-1.25c.27-1.2.533-2.393.845-3.578.132-.5-.033-.577-.481-.576q-5.559.018-11.12.006a2.653,2.653,0,0,1-2.766-1.9,2.617,2.617,0,0,1,2.456-3.32c.27-.014.543,0,.888,0a2.67,2.67,0,0,1,.261-2.414,2.851,2.851,0,0,1,2.14-1.214,2.352,2.352,0,0,1,.4-2.224,2.8,2.8,0,0,1,1.971-.989,7.005,7.005,0,0,1,.011-1.176A2.386,2.386,0,0,1,58.446.2c.171-.069.344-.134.516-.2h6.153c.894.086,1.791.149,2.681.263,1.244.159,2.483.355,3.652.524L72.087,0ZM71.559,2.542a.728.728,0,0,0-.127-.067A50.886,50.886,0,0,0,59.4,1.631a.752.752,0,0,0-.479.138c-.192.187-.45.443-.443.662a.958.958,0,0,0,.481.631,1.824,1.824,0,0,0,.841.148c1.008.016,2.016.006,3.024.006.137,0,.273,0,.41,0,.57.027.932.347.925.814s-.371.782-.947.783c-1.982,0-3.963,0-5.945.006a1.317,1.317,0,0,0-.694.1c-.24.167-.561.466-.545.688.019.265.324.546.567.745.131.107.391.077.593.077,1.914.006,3.827,0,5.74.008a.779.779,0,0,1,.858.757A.792.792,0,0,1,63,8.038a4.533,4.533,0,0,1-.512.013q-3.741,0-7.483,0a4.126,4.126,0,0,0-.614.027.994.994,0,0,0-.869.981,1.016,1.016,0,0,0,.891.969,4.448,4.448,0,0,0,.563.018h5.946a2.8,2.8,0,0,1,.46.015.79.79,0,0,1,.727.794.8.8,0,0,1-.774.8c-.153.014-.307.006-.461.006q-4.715,0-9.43,0c-.732,0-1.184.377-1.2.977-.015.616.45,1.02,1.2,1.037.256.006.512,0,.769,0q5.279,0,10.558,0A1.8,1.8,0,0,1,64.69,16.1c-.287,1.227-.587,2.45-.872,3.678a1.206,1.206,0,0,0,.614,1.427,1.149,1.149,0,0,0,1.442-.424,2.5,2.5,0,0,0,.267-.762,14.5,14.5,0,0,1,1.629-4.439,5.177,5.177,0,0,1,3.479-2.708c.314-.059.3-.265.3-.492,0-1.211.011-2.421.012-3.632,0-2.062,0-4.124,0-6.207" transform="translate(-30.6)" fill="#20285b"/>
        <path id="Path_4905" data-name="Path 4905" d="M4.9,101.652c-.113.729-.605.861-1.239.841-.887-.029-1.776,0-2.665-.009-.619,0-.971-.3-.969-.806s.352-.8.975-.809c.717-.01,1.434,0,2.211,0V88.806c-.717,0-1.431.006-2.144,0-.219,0-.52.028-.638-.095A1.431,1.431,0,0,1,0,87.877a.659.659,0,0,1,.717-.653q1.717-.019,3.434,0c.5,0,.693.363.814.8a3.257,3.257,0,0,0,1.964-1.4A11.462,11.462,0,0,0,8.671,82.3c.066-.282.118-.569.21-.842a2.792,2.792,0,0,1,5.375,1.479c-.308,1.378-.639,2.75-.979,4.206a6.407,6.407,0,0,0,.654.069c3.708,0,7.416,0,11.123,0a2.613,2.613,0,1,1,.211,5.22c-.27.013-.541,0-.822,0A2.77,2.77,0,0,1,22.028,96.1c.267,1.849-.277,2.565-2.449,3.221a2.546,2.546,0,0,1-2.855,3.157c-2.51-.037-5.021-.08-7.527-.217-1.29-.07-2.568-.351-3.851-.537-.133-.019-.265-.043-.442-.072m0-1.694a1.328,1.328,0,0,0,.163.063,50.92,50.92,0,0,0,11.98.83,1.239,1.239,0,0,0,.615-.212.626.626,0,0,0-.027-1.147,2.27,2.27,0,0,0-.978-.214c-1.11-.025-2.221.01-3.331-.023a1.243,1.243,0,0,1-.813-.3.99.99,0,0,1-.129-.789c.088-.367.423-.5.8-.5q2.973.006,5.946,0a1.469,1.469,0,0,0,.745-.106c.243-.157.564-.463.548-.684-.018-.265-.322-.548-.565-.747-.13-.108-.391-.077-.593-.078-1.9,0-3.793,0-5.689-.006-.557,0-.891-.293-.912-.756-.023-.491.306-.81.882-.849.153-.01.307,0,.461,0q3.716,0,7.432,0a3.215,3.215,0,0,0,.664-.037.959.959,0,0,0,.817-.866.988.988,0,0,0-.683-1.027,2.359,2.359,0,0,0-.658-.063c-2.016,0-4.032,0-6.048,0a2.426,2.426,0,0,1-.56-.037.75.75,0,0,1-.628-.768.766.766,0,0,1,.666-.79,2.464,2.464,0,0,1,.511-.02h9.225c.154,0,.308.006.461,0a1,1,0,0,0,.058-2,4.521,4.521,0,0,0-.563-.016c-3.69,0-7.38.005-11.07,0a1.779,1.779,0,0,1-1.877-2.364c.285-1.245.595-2.484.88-3.729a1.154,1.154,0,0,0-1.36-1.5,1.324,1.324,0,0,0-.962,1.194,13.282,13.282,0,0,1-1.961,5.007A4.864,4.864,0,0,1,5.41,89.567C5,89.658,4.9,89.81,4.9,90.2c.005,3.1-.011,6.206-.019,9.309,0,.15.014.3.022.446" transform="translate(0 -50.087)" fill="#20285b"/>
        <path id="Path_4906" data-name="Path 4906" d="M58.285,57.676c0,.835.011,1.671-.006,2.505a.572.572,0,0,0,.34.606c.47.24.924.513,1.375.788a.839.839,0,0,1,.391,1.166.827.827,0,0,1-1.2.255c-.06-.032-.119-.068-.178-.1-.505-.278-1.013-.777-1.516-.772s-1.007.511-1.507.8c-1.016.592-2.041,1.171-3.04,1.792a1.2,1.2,0,0,1-1.418.007c-1.382-.845-2.793-1.64-4.182-2.474a.6.6,0,0,0-.737.006c-.427.28-.874.532-1.322.779a.837.837,0,0,1-1.2-.259.822.822,0,0,1,.395-1.16c.452-.274.9-.551,1.371-.8a.584.584,0,0,0,.343-.608c-.013-1.653.009-3.306-.014-4.959a1.171,1.171,0,0,1,.665-1.151c1.378-.784,2.73-1.613,4.111-2.393a.789.789,0,0,0,.469-.846,13.6,13.6,0,0,1,0-1.38.806.806,0,0,1,.765-.857.816.816,0,0,1,.862.822c.026.527.024,1.057,0,1.584a.584.584,0,0,0,.343.6c1.418.817,2.818,1.665,4.239,2.477a1.174,1.174,0,0,1,.66,1.161c-.023.8-.006,1.6-.006,2.4m-2.519-2.664c-.051-.08-.062-.118-.087-.133a23.379,23.379,0,0,1-2.28-1.369,1.705,1.705,0,0,0-2.346.005,26.791,26.791,0,0,1-2.427,1.452c1.2.707,2.309,1.366,3.43,2.006a.5.5,0,0,0,.413-.037c1.095-.627,2.181-1.27,3.3-1.924m-7.938,1.4c0,1.422-.008,2.748.014,4.072,0,.118.18.265.31.345.758.461,1.525.908,2.29,1.356.3.176.607.343.927.523a1.078,1.078,0,0,0,.04-.167,24.823,24.823,0,0,1,.026-2.709,1.718,1.718,0,0,0-1.155-2.007,26.627,26.627,0,0,1-2.452-1.413m8.815,0c-.708.412-1.337.775-1.963,1.144-.529.311-1.264.512-1.524.976-.272.485-.093,1.225-.1,1.854-.007.757,0,1.513,0,2.361,1.195-.7,2.3-1.341,3.391-2a.446.446,0,0,0,.189-.32c.013-1.306.009-2.612.009-4.017" transform="translate(-27.68 -30.611)" fill="#20285b"/>
      </g>
    </g>
  </g>
</svg>
