<svg id="login-admin-ico" xmlns="http://www.w3.org/2000/svg" xmlns:xlink="http://www.w3.org/1999/xlink" width="149.043" height="123.33" viewBox="0 0 149.043 123.33">
  <defs>
    <clipPath id="clip-path">
      <rect id="Rectangle_2916" data-name="Rectangle 2916" width="149.043" height="123.33" fill="none"/>
    </clipPath>
    <clipPath id="clip-path-3">
      <rect id="Rectangle_2874" data-name="Rectangle 2874" width="13.612" height="10.552" fill="none"/>
    </clipPath>
    <clipPath id="clip-path-6">
      <rect id="Rectangle_2881" data-name="Rectangle 2881" width="10.525" height="28.181" fill="none"/>
    </clipPath>
    <clipPath id="clip-path-8">
      <rect id="Rectangle_2883" data-name="Rectangle 2883" width="41.329" height="33.384" fill="none"/>
    </clipPath>
    <clipPath id="clip-path-9">
      <rect id="Rectangle_2884" data-name="Rectangle 2884" width="29.319" height="27.281" fill="none"/>
    </clipPath>
    <clipPath id="clip-path-10">
      <rect id="Rectangle_2885" data-name="Rectangle 2885" width="24.656" height="15.279" fill="none"/>
    </clipPath>
    <clipPath id="clip-path-11">
      <rect id="Rectangle_2886" data-name="Rectangle 2886" width="97.148" height="67.295" fill="none"/>
    </clipPath>
    <clipPath id="clip-path-12">
      <rect id="Rectangle_2887" data-name="Rectangle 2887" width="4.321" height="67.294" fill="none"/>
    </clipPath>
    <clipPath id="clip-path-13">
      <rect id="Rectangle_2889" data-name="Rectangle 2889" width="15.788" height="15.788" fill="none"/>
    </clipPath>
    <clipPath id="clip-path-14">
      <rect id="Rectangle_2890" data-name="Rectangle 2890" width="20.02" height="2.436" fill="none"/>
    </clipPath>
    <clipPath id="clip-path-15">
      <rect id="Rectangle_2891" data-name="Rectangle 2891" width="14.828" height="2.533" fill="none"/>
    </clipPath>
    <clipPath id="clip-path-16">
      <rect id="Rectangle_2892" data-name="Rectangle 2892" width="27.806" height="6.386" fill="none"/>
    </clipPath>
    <clipPath id="clip-path-17">
      <rect id="Rectangle_2894" data-name="Rectangle 2894" width="81.449" height="38.663" fill="none"/>
    </clipPath>
    <clipPath id="clip-path-18">
      <rect id="Rectangle_2895" data-name="Rectangle 2895" width="54.742" height="37.649" fill="none"/>
    </clipPath>
    <clipPath id="clip-path-20">
      <rect id="Rectangle_2897" data-name="Rectangle 2897" width="2.55" height="5.635" fill="none"/>
    </clipPath>
    <clipPath id="clip-path-21">
      <rect id="Rectangle_2898" data-name="Rectangle 2898" width="35.162" height="17.203" fill="none"/>
    </clipPath>
    <clipPath id="clip-path-22">
      <rect id="Rectangle_2899" data-name="Rectangle 2899" width="23.299" height="2.305" fill="none"/>
    </clipPath>
    <clipPath id="clip-path-23">
      <rect id="Rectangle_2900" data-name="Rectangle 2900" width="14.257" height="3.624" fill="none"/>
    </clipPath>
    <clipPath id="clip-path-25">
      <rect id="Rectangle_2902" data-name="Rectangle 2902" width="5.606" height="6.296" fill="none"/>
    </clipPath>
    <clipPath id="clip-path-26">
      <rect id="Rectangle_2903" data-name="Rectangle 2903" width="2.812" height="2.919" fill="none"/>
    </clipPath>
    <clipPath id="clip-path-27">
      <rect id="Rectangle_2904" data-name="Rectangle 2904" width="3.913" height="2.083" fill="none"/>
    </clipPath>
    <clipPath id="clip-path-28">
      <rect id="Rectangle_2905" data-name="Rectangle 2905" width="21.574" height="15.934" fill="none"/>
    </clipPath>
    <clipPath id="clip-path-29">
      <rect id="Rectangle_2906" data-name="Rectangle 2906" width="18.414" height="24.632" fill="none"/>
    </clipPath>
    <clipPath id="clip-path-30">
      <rect id="Rectangle_2907" data-name="Rectangle 2907" width="5.25" height="8.513" fill="none"/>
    </clipPath>
    <clipPath id="clip-path-31">
      <rect id="Rectangle_2908" data-name="Rectangle 2908" width="4.24" height="5.663" fill="none"/>
    </clipPath>
    <clipPath id="clip-path-32">
      <rect id="Rectangle_2909" data-name="Rectangle 2909" width="3.031" height="4.597" fill="none"/>
    </clipPath>
    <clipPath id="clip-path-33">
      <rect id="Rectangle_2910" data-name="Rectangle 2910" width="2.245" height="4.72" fill="none"/>
    </clipPath>
    <clipPath id="clip-path-34">
      <rect id="Rectangle_2911" data-name="Rectangle 2911" width="6.02" height="8.915" fill="none"/>
    </clipPath>
    <clipPath id="clip-path-35">
      <rect id="Rectangle_2912" data-name="Rectangle 2912" width="3.523" height="6.865" fill="none"/>
    </clipPath>
    <clipPath id="clip-path-36">
      <rect id="Rectangle_2913" data-name="Rectangle 2913" width="3.524" height="6.865" fill="none"/>
    </clipPath>
    <clipPath id="clip-path-37">
      <rect id="Rectangle_2914" data-name="Rectangle 2914" width="2.428" height="1.208" fill="none"/>
    </clipPath>
  </defs>
  <g id="Group_10110" data-name="Group 10110" clip-path="url(#clip-path)">
    <rect id="Rectangle_2835" data-name="Rectangle 2835" width="60.165" height="76.186" transform="translate(3.857 29.613)" fill="#f0f0f0"/>
    <rect id="Rectangle_2836" data-name="Rectangle 2836" width="55.912" height="16.291" transform="translate(5.983 32.39)" fill="#e0e0e0"/>
    <rect id="Rectangle_2837" data-name="Rectangle 2837" width="3.176" height="13.654" transform="translate(5.983 35.027)" fill="#ebebeb"/>
    <rect id="Rectangle_2838" data-name="Rectangle 2838" width="3.176" height="13.654" transform="translate(21.341 35.027)" fill="#ebebeb"/>
    <rect id="Rectangle_2839" data-name="Rectangle 2839" width="3.176" height="13.654" transform="translate(38.822 35.226) rotate(-9.782)" fill="#ebebeb"/>
    <rect id="Rectangle_2840" data-name="Rectangle 2840" width="3.176" height="11.855" transform="translate(9.919 36.827)" fill="#ebebeb"/>
    <rect id="Rectangle_2841" data-name="Rectangle 2841" width="3.176" height="11.855" transform="translate(17.219 36.827)" fill="#ebebeb"/>
    <rect id="Rectangle_2842" data-name="Rectangle 2842" width="3.176" height="11.855" transform="translate(35.646 36.827)" fill="#ebebeb"/>
    <rect id="Rectangle_2843" data-name="Rectangle 2843" width="3.176" height="11.855" transform="translate(25.588 37.109) rotate(-12.531)" fill="#ebebeb"/>
    <rect id="Rectangle_2844" data-name="Rectangle 2844" width="1.588" height="14.332" transform="translate(14.253 34.349)" fill="#ebebeb"/>
    <rect id="Rectangle_2845" data-name="Rectangle 2845" width="1.588" height="14.332" transform="translate(33.145 34.349)" fill="#ebebeb"/>
    <rect id="Rectangle_2846" data-name="Rectangle 2846" width="55.912" height="16.291" transform="translate(5.983 51.261)" fill="#e0e0e0"/>
    <rect id="Rectangle_2847" data-name="Rectangle 2847" width="3.176" height="13.654" transform="translate(58.718 53.898)" fill="#ebebeb"/>
    <rect id="Rectangle_2848" data-name="Rectangle 2848" width="3.176" height="13.654" transform="translate(43.361 53.898)" fill="#ebebeb"/>
    <rect id="Rectangle_2849" data-name="Rectangle 2849" width="13.654" height="3.176" transform="matrix(0.17, -0.985, 0.985, 0.17, 23.606, 67.013)" fill="#ebebeb"/>
    <rect id="Rectangle_2850" data-name="Rectangle 2850" width="3.176" height="11.855" transform="translate(54.783 55.698)" fill="#ebebeb"/>
    <rect id="Rectangle_2851" data-name="Rectangle 2851" width="3.176" height="11.855" transform="translate(47.483 55.698)" fill="#ebebeb"/>
    <rect id="Rectangle_2852" data-name="Rectangle 2852" width="3.176" height="11.855" transform="translate(29.056 55.698)" fill="#ebebeb"/>
    <rect id="Rectangle_2853" data-name="Rectangle 2853" width="11.855" height="3.176" transform="translate(36.618 66.864) rotate(-77.476)" fill="#ebebeb"/>
    <rect id="Rectangle_2854" data-name="Rectangle 2854" width="1.588" height="14.332" transform="translate(52.037 53.221)" fill="#ebebeb"/>
    <rect id="Rectangle_2855" data-name="Rectangle 2855" width="1.588" height="14.332" transform="translate(33.145 53.221)" fill="#ebebeb"/>
    <rect id="Rectangle_2856" data-name="Rectangle 2856" width="3.176" height="13.654" transform="translate(5.983 53.898)" fill="#ebebeb"/>
    <rect id="Rectangle_2857" data-name="Rectangle 2857" width="3.176" height="11.855" transform="translate(9.919 55.698)" fill="#ebebeb"/>
    <rect id="Rectangle_2858" data-name="Rectangle 2858" width="3.176" height="11.855" transform="translate(17.219 55.698)" fill="#ebebeb"/>
    <rect id="Rectangle_2859" data-name="Rectangle 2859" width="1.588" height="14.332" transform="translate(14.253 53.221)" fill="#ebebeb"/>
    <rect id="Rectangle_2860" data-name="Rectangle 2860" width="55.912" height="16.291" transform="translate(5.983 70.132)" fill="#e0e0e0"/>
    <rect id="Rectangle_2861" data-name="Rectangle 2861" width="3.176" height="13.654" transform="translate(38.075 72.77)" fill="#ebebeb"/>
    <rect id="Rectangle_2862" data-name="Rectangle 2862" width="3.176" height="13.654" transform="translate(55.556 72.968) rotate(-9.775)" fill="#ebebeb"/>
    <rect id="Rectangle_2863" data-name="Rectangle 2863" width="3.176" height="11.855" transform="translate(26.652 74.569)" fill="#ebebeb"/>
    <rect id="Rectangle_2864" data-name="Rectangle 2864" width="3.176" height="11.855" transform="translate(33.952 74.569)" fill="#ebebeb"/>
    <rect id="Rectangle_2865" data-name="Rectangle 2865" width="3.176" height="11.855" transform="translate(52.379 74.569)" fill="#ebebeb"/>
    <rect id="Rectangle_2866" data-name="Rectangle 2866" width="3.176" height="11.855" transform="translate(42.322 74.851) rotate(-12.524)" fill="#ebebeb"/>
    <rect id="Rectangle_2867" data-name="Rectangle 2867" width="1.588" height="14.332" transform="translate(30.987 72.092)" fill="#ebebeb"/>
    <rect id="Rectangle_2868" data-name="Rectangle 2868" width="1.588" height="14.332" transform="translate(49.878 72.092)" fill="#ebebeb"/>
    <rect id="Rectangle_2869" data-name="Rectangle 2869" width="3.176" height="13.654" transform="matrix(0.985, -0.17, 0.17, 0.985, 19.016, 72.968)" fill="#ebebeb"/>
    <rect id="Rectangle_2870" data-name="Rectangle 2870" width="3.176" height="11.855" transform="translate(15.839 74.569)" fill="#ebebeb"/>
    <rect id="Rectangle_2871" data-name="Rectangle 2871" width="3.176" height="11.855" transform="translate(5.782 74.851) rotate(-12.524)" fill="#ebebeb"/>
    <rect id="Rectangle_2872" data-name="Rectangle 2872" width="1.588" height="14.332" transform="translate(13.338 72.092)" fill="#ebebeb"/>
    <g id="Group_10012" data-name="Group 10012">
      <g id="Group_10011" data-name="Group 10011" clip-path="url(#clip-path)">
        <path id="Path_5142" data-name="Path 5142" d="M238.506,156.95h33.9a6.659,6.659,0,0,1,6.659,6.659v26.476H231.847V163.609a6.659,6.659,0,0,1,6.659-6.659" transform="translate(-142.736 -96.626)" fill="#e6e6e6"/>
        <path id="Path_5143" data-name="Path 5143" d="M199.428,208.005H205.5a3.957,3.957,0,0,1,3.957,3.957v21.9H195.471v-21.9a3.957,3.957,0,0,1,3.957-3.957" transform="translate(-120.341 -128.058)" fill="#e0e0e0"/>
        <path id="Path_5144" data-name="Path 5144" d="M199.428,208.005h.128a3.957,3.957,0,0,1,3.957,3.957v21.9h-8.042v-21.9a3.957,3.957,0,0,1,3.957-3.957" transform="translate(-120.341 -128.058)" fill="#ebebeb"/>
        <rect id="Rectangle_2873" data-name="Rectangle 2873" width="46.531" height="10.058" transform="translate(84.865 95.742)" fill="#e6e6e6"/>
        <path id="Path_5145" data-name="Path 5145" d="M214.185,225.167h44.874a4.023,4.023,0,0,1,4.023,4.023V231.7a4.023,4.023,0,0,1-4.023,4.023H214.185a4.023,4.023,0,0,1-4.023-4.023V229.19a4.023,4.023,0,0,1,4.023-4.023" transform="translate(-129.386 -138.624)" fill="#f5f5f5"/>
        <g id="Group_10010" data-name="Group 10010" transform="translate(120.011 86.543)" style="isolation: isolate">
          <g id="Group_10009" data-name="Group 10009">
            <g id="Group_10008" data-name="Group 10008" clip-path="url(#clip-path-3)">
              <path id="Path_5146" data-name="Path 5146" d="M316.265,225.167h5.566a4.023,4.023,0,0,1,4.023,4.023V231.7a4.023,4.023,0,0,1-4.023,4.023h-5.566a4.023,4.023,0,0,1-4.023-4.023V229.19a4.023,4.023,0,0,1,4.023-4.023" transform="translate(-312.242 -225.167)" fill="#e0e0e0"/>
            </g>
          </g>
        </g>
        <path id="Path_5147" data-name="Path 5147" d="M332.414,208.005h6.067a3.957,3.957,0,0,1,3.957,3.957v21.9H328.457v-21.9a3.957,3.957,0,0,1,3.957-3.957" transform="translate(-202.214 -128.058)" fill="#e0e0e0"/>
        <path id="Path_5148" data-name="Path 5148" d="M332.414,208.005h.128a3.957,3.957,0,0,1,3.957,3.957v21.9h-8.042v-21.9a3.957,3.957,0,0,1,3.957-3.957" transform="translate(-202.214 -128.058)" fill="#f0f0f0"/>
        <path id="Path_5149" data-name="Path 5149" d="M84.92,15.214a9.053,9.053,0,1,0-9.053,9.053,9.053,9.053,0,0,0,9.053-9.053" transform="translate(-41.134 -3.793)" fill="#e0e0e0"/>
        <path id="Path_5150" data-name="Path 5150" d="M85.736,17.385a7.7,7.7,0,1,0-7.7,7.7,7.7,7.7,0,0,0,7.7-7.7" transform="translate(-43.305 -5.964)" fill="#f0f0f0"/>
        <path id="Path_5151" data-name="Path 5151" d="M83.711,34.834V29.453l-3.566,2.018" transform="translate(-49.341 -18.133)" fill="#f0f0f0"/>
        <path id="Path_5152" data-name="Path 5152" d="M83.711,34.834V29.453l-3.566,2.018" transform="translate(-49.341 -18.133)" fill="none" stroke="#e0e0e0" stroke-linecap="round" stroke-linejoin="round" stroke-width="2"/>
        <rect id="Rectangle_2875" data-name="Rectangle 2875" width="57.942" height="51.415" transform="translate(85.228)" fill="#e6e6e6"/>
        <rect id="Rectangle_2876" data-name="Rectangle 2876" width="54.966" height="48.624" transform="translate(86.679 1.409)" fill="#f0f0f0"/>
        <path id="Path_5153" data-name="Path 5153" d="M238.421,3.667l-12.9,48.518v-22.8l6.811-25.72Z" transform="translate(-138.841 -2.258)" fill="#fff"/>
        <path id="Path_5154" data-name="Path 5154" d="M246.8,3.667,233.787,52.291H231.71L244.723,3.667Z" transform="translate(-142.652 -2.258)" fill="#fff"/>
        <path id="Path_5155" data-name="Path 5155" d="M360.985,83.494v7.77l-2.633,10.172h-2.077Z" transform="translate(-219.34 -51.403)" fill="#fff"/>
        <rect id="Rectangle_2877" data-name="Rectangle 2877" width="0.926" height="50.584" transform="translate(104.924 0.535)" fill="#e6e6e6"/>
        <rect id="Rectangle_2878" data-name="Rectangle 2878" width="0.926" height="50.584" transform="translate(122.868 0.535)" fill="#e6e6e6"/>
      </g>
    </g>
    <g id="Group_10014" data-name="Group 10014">
      <g id="Group_10013" data-name="Group 10013" clip-path="url(#clip-path)">
        <path id="Path_5156" data-name="Path 5156" d="M149.043,302.584c0,2.4-33.364,4.352-74.521,4.352S0,304.988,0,302.584s33.364-4.352,74.521-4.352,74.521,1.949,74.521,4.352" transform="translate(0 -183.606)" fill="#f5f5f5"/>
      </g>
    </g>
    <g id="Group_10019" data-name="Group 10019">
      <g id="Group_10018" data-name="Group 10018" clip-path="url(#clip-path)">
        <path id="Path_5157" data-name="Path 5157" d="M342.06,239.828a9.632,9.632,0,0,0-.26-7.91c-2.086-3.927-2.691-4.852-1.361-5.656s1.94,3.141,1.94,3.141a8.865,8.865,0,0,0,.2-5.555c-.925-2.841-1.506-7.468-.242-7.965s.241,5.772,1.338,7.909a18.394,18.394,0,0,0,1.073-4.661c.151-2.282-.085-5.926.913-6.86s1.638-.288.657,4.747a52.683,52.683,0,0,0-.974,9.129s2.166-6.606,3.621-6.8,1.452,1.946.207,3.8-3.645,5.18-4.038,6.89c0,0,2.378-4.971,4.517-3.448S347.783,231.12,346,232.2s-3.022,7.886-3.022,7.886Z" transform="translate(-209.156 -130.462)" fill="#407bff"/>
        <g id="Group_10017" data-name="Group 10017" transform="translate(130.577 81.448)" opacity="0.2" style="isolation: isolate">
          <g id="Group_10016" data-name="Group 10016">
            <g id="Group_10015" data-name="Group 10015" clip-path="url(#clip-path-6)">
              <path id="Path_5158" data-name="Path 5158" d="M342.06,239.828a9.632,9.632,0,0,0-.26-7.91c-2.086-3.927-2.691-4.852-1.361-5.656s1.94,3.141,1.94,3.141a8.865,8.865,0,0,0,.2-5.555c-.925-2.841-1.506-7.468-.242-7.965s.241,5.772,1.338,7.909a18.394,18.394,0,0,0,1.073-4.661c.151-2.282-.085-5.926.913-6.86s1.638-.288.657,4.747a52.683,52.683,0,0,0-.974,9.129s2.166-6.606,3.621-6.8,1.452,1.946.207,3.8-3.645,5.18-4.038,6.89c0,0,2.378-4.971,4.517-3.448S347.783,231.12,346,232.2s-3.022,7.886-3.022,7.886Z" transform="translate(-339.733 -211.91)"/>
            </g>
          </g>
        </g>
        <path id="Path_5159" data-name="Path 5159" d="M336.636,243.981a9.633,9.633,0,0,1,.355-7.906c2.133-3.9,2.748-4.811,1.429-5.636s-1.977,3.112-1.977,3.112a8.87,8.87,0,0,1-.128-5.558c.959-2.827,1.6-7.445.337-7.96s-.311,5.769-1.433,7.889a18.448,18.448,0,0,1-1.017-4.676c-.124-2.284.156-5.924-.831-6.873s-1.634-.312-.713,4.738a52.7,52.7,0,0,1,.864,9.143s-2.087-6.637-3.539-6.852-1.476,1.925-.253,3.8,3.582,5.233,3.955,6.949c0,0-2.318-5.006-4.475-3.515s1.808,4.553,3.578,5.665,2.927,7.93,2.927,7.93Z" transform="translate(-202.292 -132.981)" fill="#407bff"/>
        <path id="Path_5160" data-name="Path 5160" d="M328.2,281.359h14.686l-1.189,10.51H329.39Z" transform="translate(-202.057 -173.218)" fill="#263238"/>
      </g>
    </g>
    <g id="Group_10054" data-name="Group 10054">
      <g id="Group_10053" data-name="Group 10053" clip-path="url(#clip-path)">
        <path id="Path_5161" data-name="Path 5161" d="M120.291,253.541v1.381a.309.309,0,0,1-.312.308H81a2.031,2.031,0,0,1-1.886-2.79l12.353-30.594,19.962.136-.681,3.969-4.4,25.692a1.358,1.358,0,0,0,1.338,1.589h12.3a.309.309,0,0,1,.312.308" transform="translate(-48.613 -136.579)" fill="#263238"/>
        <g id="Group_10022" data-name="Group 10022" transform="translate(30.349 85.267)" opacity="0.5">
          <g id="Group_10021" data-name="Group 10021">
            <g id="Group_10020" data-name="Group 10020" clip-path="url(#clip-path-8)">
              <path id="Path_5162" data-name="Path 5162" d="M120.291,253.541v1.381a.309.309,0,0,1-.312.308H81a2.031,2.031,0,0,1-1.886-2.79l7.659-18.965,4.694-11.629,19.962.136-.681,3.969-1.915,11.173-2.489,14.519a1.358,1.358,0,0,0,1.338,1.589h12.3a.309.309,0,0,1,.312.308" transform="translate(-78.962 -221.846)" fill="#fff"/>
            </g>
          </g>
        </g>
        <g id="Group_10025" data-name="Group 10025" transform="translate(32.813 89.372)" opacity="0.2" style="isolation: isolate">
          <g id="Group_10024" data-name="Group 10024">
            <g id="Group_10023" data-name="Group 10023" clip-path="url(#clip-path-9)">
              <path id="Path_5163" data-name="Path 5163" d="M111.626,259.809H86.263a.89.89,0,0,1-.822-1.231l10.83-26.049h18.42l-4.4,25.692a1.358,1.358,0,0,0,1.338,1.589" transform="translate(-85.372 -232.528)"/>
            </g>
          </g>
        </g>
        <g id="Group_10028" data-name="Group 10028" transform="translate(38.158 85.267)" opacity="0.1" style="isolation: isolate">
          <g id="Group_10027" data-name="Group 10027">
            <g id="Group_10026" data-name="Group 10026" clip-path="url(#clip-path-10)">
              <path id="Path_5164" data-name="Path 5164" d="M123.934,221.982l-.681,3.97-1.915,11.173-22.06-3.65,4.694-11.629Z" transform="translate(-99.278 -221.846)"/>
            </g>
          </g>
        </g>
        <path id="Path_5165" data-name="Path 5165" d="M112.6,73.817H20.184a2.365,2.365,0,0,0-2.365,2.365v62.565a2.365,2.365,0,0,0,2.365,2.365H112.6a2.365,2.365,0,0,0,2.365-2.365V76.182a2.365,2.365,0,0,0-2.365-2.365" transform="translate(-10.97 -45.445)" fill="#263238"/>
        <g id="Group_10031" data-name="Group 10031" transform="translate(6.849 28.372)" opacity="0.6">
          <g id="Group_10030" data-name="Group 10030">
            <g id="Group_10029" data-name="Group 10029" clip-path="url(#clip-path-11)">
              <path id="Path_5166" data-name="Path 5166" d="M112.6,73.817H20.184a2.365,2.365,0,0,0-2.365,2.365v62.565a2.365,2.365,0,0,0,2.365,2.365H112.6a2.365,2.365,0,0,0,2.365-2.365V76.182a2.365,2.365,0,0,0-2.365-2.365" transform="translate(-17.819 -73.817)" fill="#fff"/>
            </g>
          </g>
        </g>
        <g id="Group_10034" data-name="Group 10034" transform="translate(6.85 28.372)" opacity="0.2" style="isolation: isolate">
          <g id="Group_10033" data-name="Group 10033">
            <g id="Group_10032" data-name="Group 10032" clip-path="url(#clip-path-12)">
              <path id="Path_5167" data-name="Path 5167" d="M22.144,141.111H20.186a2.362,2.362,0,0,1-2.363-2.362V76.183a2.363,2.363,0,0,1,2.363-2.366h1.959a2.363,2.363,0,0,0-2.362,2.366v62.565a2.362,2.362,0,0,0,2.362,2.362" transform="translate(-17.823 -73.817)"/>
            </g>
          </g>
        </g>
        <rect id="Rectangle_2888" data-name="Rectangle 2888" width="90.925" height="60.331" transform="translate(10.941 30.404)" fill="#407bff"/>
        <g id="Group_10037" data-name="Group 10037" transform="translate(47.256 37.582)" opacity="0.4">
          <g id="Group_10036" data-name="Group 10036">
            <g id="Group_10035" data-name="Group 10035" clip-path="url(#clip-path-13)">
              <path id="Path_5168" data-name="Path 5168" d="M138.737,105.674a7.894,7.894,0,1,1-7.894-7.894,7.894,7.894,0,0,1,7.894,7.894" transform="translate(-122.949 -97.78)" fill="#fff"/>
            </g>
          </g>
        </g>
        <path id="Path_5169" data-name="Path 5169" d="M137.239,110.584v-.739a1.3,1.3,0,0,1,1.3-1.3h1.166a1.3,1.3,0,0,1,1.3,1.3v.739h.842v-.739a2.144,2.144,0,0,0-2.142-2.142h-1.166a2.144,2.144,0,0,0-2.142,2.142v.739Z" transform="translate(-83.973 -66.307)" fill="#fff"/>
        <path id="Path_5170" data-name="Path 5170" d="M133.641,117.037v3.88a.429.429,0,0,0,.429.429h6.711a.429.429,0,0,0,.429-.429v-3.88a.429.429,0,0,0-.429-.429H134.07a.429.429,0,0,0-.429.429m4.028,2.2V120h-.486v-.763a.471.471,0,0,1-.236-.4.479.479,0,1,1,.958,0,.471.471,0,0,1-.236.4" transform="translate(-82.276 -71.79)" fill="#fff"/>
        <path id="Path_5171" data-name="Path 5171" d="M80.151,164.933H72.694a.8.8,0,0,1-.8-.8v-7.457a.8.8,0,0,1,.8-.8h7.457a.8.8,0,0,1,.8.8v7.457a.8.8,0,0,1-.8.8" transform="translate(-44.26 -95.961)" fill="#fff"/>
        <path id="Path_5172" data-name="Path 5172" d="M110.054,164.9H102.6a.8.8,0,0,1-.8-.8V156.64a.8.8,0,0,1,.8-.8h7.457a.8.8,0,0,1,.8.8V164.1a.8.8,0,0,1-.8.8" transform="translate(-62.669 -95.941)" fill="#fff"/>
        <path id="Path_5173" data-name="Path 5173" d="M139.957,164.866H132.5a.8.8,0,0,1-.8-.8v-7.457a.8.8,0,0,1,.8-.8h7.456a.8.8,0,0,1,.8.8v7.457a.8.8,0,0,1-.8.8" transform="translate(-81.079 -95.92)" fill="#fff"/>
        <path id="Path_5174" data-name="Path 5174" d="M169.86,164.833H162.4a.8.8,0,0,1-.8-.8v-7.457a.8.8,0,0,1,.8-.8h7.456a.8.8,0,0,1,.8.8v7.457a.8.8,0,0,1-.8.8" transform="translate(-99.489 -95.9)" fill="#fff"/>
        <path id="Path_5175" data-name="Path 5175" d="M199.763,164.8h-7.456a.8.8,0,0,1-.8-.8V156.54a.8.8,0,0,1,.8-.8h7.456a.8.8,0,0,1,.8.8V164a.8.8,0,0,1-.8.8" transform="translate(-117.899 -95.879)" fill="#fff"/>
        <path id="Path_5176" data-name="Path 5176" d="M198.1,163.976c0-1.594.853-2.5,2-2.5s1.992.909,1.992,2.5-.853,2.5-1.992,2.5-2-.909-2-2.5m3.293,0c0-1.251-.531-1.881-1.293-1.881s-1.3.629-1.3,1.881.531,1.881,1.3,1.881,1.293-.629,1.293-1.881" transform="translate(-121.959 -99.411)" fill="#263238"/>
        <path id="Path_5177" data-name="Path 5177" d="M82.36,163.913a2.257,2.257,0,0,1-2.314,2.566,2.358,2.358,0,0,1-1.216-.287l.266-.545a1.72,1.72,0,0,0,.944.23c.993,0,1.622-.622,1.622-1.845v-.175a1.632,1.632,0,0,1-1.412.643,1.506,1.506,0,0,1-1.671-1.482,1.577,1.577,0,0,1,1.727-1.545c1.314,0,2.055.881,2.055,2.44m-.86-.93c0-.5-.405-.944-1.167-.944a.963.963,0,0,0-1.077.951c0,.573.426.944,1.112.944a1.017,1.017,0,0,0,1.132-.95" transform="translate(-48.376 -99.411)" fill="#263238"/>
        <path id="Path_5178" data-name="Path 5178" d="M108.39,163.978c0-1.594.853-2.5,2-2.5s1.992.909,1.992,2.5-.853,2.5-1.992,2.5-2-.909-2-2.5m3.293,0c0-1.251-.531-1.88-1.293-1.88s-1.3.629-1.3,1.88.531,1.881,1.3,1.881,1.293-.629,1.293-1.881" transform="translate(-66.73 -99.412)" fill="#263238"/>
        <path id="Path_5179" data-name="Path 5179" d="M142.2,165.816v.608h-3.516v-.475l1.992-1.922c.517-.5.615-.811.615-1.118,0-.5-.356-.811-1.042-.811a1.538,1.538,0,0,0-1.251.532l-.475-.412a2.256,2.256,0,0,1,1.79-.741c1.021,0,1.678.524,1.678,1.363a1.984,1.984,0,0,1-.8,1.538l-1.5,1.44Z" transform="translate(-85.28 -99.411)" fill="#263238"/>
        <path id="Path_5180" data-name="Path 5180" d="M171.967,161.62v4.894h-.692v-4.286h-1.1v-.608Z" transform="translate(-104.766 -99.501)" fill="#263238"/>
        <g id="Group_10040" data-name="Group 10040" transform="translate(45.218 55.965)" opacity="0.6">
          <g id="Group_10039" data-name="Group 10039">
            <g id="Group_10038" data-name="Group 10038" clip-path="url(#clip-path-14)">
              <path id="Path_5181" data-name="Path 5181" d="M118.981,147.364v.172h-1.333v-1.884h1.292v.172h-1.093v.67h.974v.17h-.974v.7Z" transform="translate(-117.648 -145.636)" fill="#fff"/>
              <path id="Path_5182" data-name="Path 5182" d="M123.529,147.448v.821h-.191v-.8a.4.4,0,0,0-.425-.452.464.464,0,0,0-.5.512v.743h-.191v-1.416h.183v.261a.6.6,0,0,1,.538-.272.542.542,0,0,1,.582.606" transform="translate(-120.466 -146.368)" fill="#fff"/>
              <path id="Path_5183" data-name="Path 5183" d="M127.357,147.7a.455.455,0,0,1-.3.1.375.375,0,0,1-.415-.412v-.856h-.253v-.161h.253v-.31h.191v.31h.43v.161h-.43v.845a.226.226,0,0,0,.245.258.318.318,0,0,0,.21-.072Z" transform="translate(-123.031 -145.889)" fill="#fff"/>
              <path id="Path_5184" data-name="Path 5184" d="M130.679,147.62h-1.185a.524.524,0,0,0,.557.492.559.559,0,0,0,.434-.186l.107.124a.748.748,0,0,1-1.289-.49.682.682,0,0,1,.692-.719.675.675,0,0,1,.686.719c0,.016,0,.037,0,.059m-1.185-.143h1a.5.5,0,0,0-1,0" transform="translate(-124.823 -146.368)" fill="#fff"/>
              <path id="Path_5185" data-name="Path 5185" d="M134.615,146.842v.186l-.046,0a.458.458,0,0,0-.477.522v.721H133.9v-1.416h.183v.277a.535.535,0,0,1,.53-.288" transform="translate(-127.655 -146.368)" fill="#fff"/>
              <path id="Path_5186" data-name="Path 5186" d="M139.2,146.87l-.708,1.585c-.118.277-.269.366-.471.366a.484.484,0,0,1-.344-.129l.089-.143a.353.353,0,0,0,.258.108c.127,0,.213-.059.294-.237l.062-.137-.633-1.413h.2l.533,1.2.533-1.2Z" transform="translate(-129.977 -146.386)" fill="#fff"/>
              <path id="Path_5187" data-name="Path 5187" d="M141.86,147.561a.72.72,0,1,1,.721.721.7.7,0,0,1-.721-.721m1.246,0a.527.527,0,1,0-.525.552.517.517,0,0,0,.525-.552" transform="translate(-132.554 -146.368)" fill="#fff"/>
              <path id="Path_5188" data-name="Path 5188" d="M147.875,146.87v1.416h-.183v-.259a.563.563,0,0,1-.509.272.549.549,0,0,1-.6-.608v-.821h.191v.8a.4.4,0,0,0,.425.455.461.461,0,0,0,.482-.514v-.743Z" transform="translate(-135.464 -146.386)" fill="#fff"/>
              <path id="Path_5189" data-name="Path 5189" d="M152.045,146.842v.186l-.046,0a.458.458,0,0,0-.477.522v.721h-.191v-1.416h.183v.277a.535.535,0,0,1,.53-.288" transform="translate(-138.386 -146.368)" fill="#fff"/>
              <path id="Path_5190" data-name="Path 5190" d="M155.644,146.568a.99.99,0,1,1,.99.958.948.948,0,0,1-.99-.958m1.779,0a.791.791,0,1,0-.789.781.763.763,0,0,0,.789-.781" transform="translate(-141.04 -145.61)" fill="#fff"/>
              <path id="Path_5191" data-name="Path 5191" d="M161.772,145.824h-.662v-.172h1.524v.172h-.662v1.712h-.2Z" transform="translate(-144.405 -145.636)" fill="#fff"/>
              <path id="Path_5192" data-name="Path 5192" d="M167.374,146.3c0,.4-.291.643-.77.643H166.1v.595h-.2v-1.884h.705c.479,0,.77.242.77.646m-.2,0c0-.3-.2-.474-.576-.474h-.5v.942h.5c.377,0,.576-.172.576-.469" transform="translate(-147.353 -145.635)" fill="#fff"/>
            </g>
          </g>
        </g>
        <g id="Group_10043" data-name="Group 10043" transform="translate(47.673 72.108)" opacity="0.6">
          <g id="Group_10042" data-name="Group 10042">
            <g id="Group_10041" data-name="Group 10041" clip-path="url(#clip-path-15)">
              <path id="Path_5193" data-name="Path 5193" d="M124.035,189.534l.078-.153a.928.928,0,0,0,.622.228c.353,0,.506-.148.506-.334,0-.517-1.16-.2-1.16-.9,0-.277.215-.517.695-.517a1.067,1.067,0,0,1,.584.167l-.067.159a.974.974,0,0,0-.517-.156c-.344,0-.5.153-.5.342,0,.517,1.16.2,1.16.891,0,.277-.221.514-.7.514a1.02,1.02,0,0,1-.7-.245" transform="translate(-124.035 -187.765)" fill="#fff"/>
              <path id="Path_5194" data-name="Path 5194" d="M129.708,189.873h-1.184a.524.524,0,0,0,.557.492.559.559,0,0,0,.434-.186l.107.124a.748.748,0,0,1-1.289-.49.682.682,0,0,1,.692-.719.675.675,0,0,1,.686.719c0,.016,0,.037,0,.059m-1.184-.143h1a.5.5,0,0,0-1,0" transform="translate(-126.681 -188.524)" fill="#fff"/>
              <path id="Path_5195" data-name="Path 5195" d="M134.234,189.7v.821h-.191v-.8a.4.4,0,0,0-.425-.452.464.464,0,0,0-.5.512v.743h-.191v-1.416h.183v.261a.6.6,0,0,1,.538-.272.542.542,0,0,1,.582.606" transform="translate(-129.512 -188.524)" fill="#fff"/>
              <path id="Path_5196" data-name="Path 5196" d="M138.748,187.61v2h-.183v-.28a.614.614,0,0,1-.547.294.72.72,0,0,1,0-1.44.618.618,0,0,1,.538.28v-.851Zm-.188,1.289a.527.527,0,1,0-.525.552.518.518,0,0,0,.525-.552" transform="translate(-132.21 -187.61)" fill="#fff"/>
              <path id="Path_5197" data-name="Path 5197" d="M145.144,189.644v.877h-.183V190.3a.532.532,0,0,1-.487.234c-.32,0-.517-.167-.517-.412,0-.218.14-.4.547-.4h.449v-.086c0-.242-.137-.374-.4-.374a.721.721,0,0,0-.471.167l-.086-.143a.9.9,0,0,1,.576-.191.5.5,0,0,1,.573.549m-.191.452v-.232h-.444c-.274,0-.363.108-.363.253,0,.164.132.266.358.266a.453.453,0,0,0,.449-.288" transform="translate(-136.3 -188.524)" fill="#fff"/>
              <path id="Path_5198" data-name="Path 5198" d="M149.492,189.106v1.243a.621.621,0,0,1-.708.708.989.989,0,0,1-.66-.218l.1-.145a.843.843,0,0,0,.557.194c.358,0,.522-.164.522-.514v-.181a.637.637,0,0,1-.552.275.687.687,0,1,1,0-1.373.639.639,0,0,1,.56.283v-.272Zm-.186.673a.537.537,0,1,0-.538.52.506.506,0,0,0,.538-.52" transform="translate(-138.812 -188.524)" fill="#fff"/>
              <path id="Path_5199" data-name="Path 5199" d="M154.09,189.644v.877h-.183V190.3a.532.532,0,0,1-.487.234c-.32,0-.517-.167-.517-.412,0-.218.14-.4.547-.4h.449v-.086c0-.242-.137-.374-.4-.374a.721.721,0,0,0-.471.167l-.086-.143a.9.9,0,0,1,.576-.191.5.5,0,0,1,.573.549m-.191.452v-.232h-.444c-.274,0-.363.108-.363.253,0,.164.132.266.358.266a.453.453,0,0,0,.449-.288" transform="translate(-141.808 -188.524)" fill="#fff"/>
              <path id="Path_5200" data-name="Path 5200" d="M157.229,187.745a.138.138,0,0,1,.14-.135.136.136,0,0,1,.14.132.14.14,0,0,1-.28,0m.043.447h.191v1.416h-.191Z" transform="translate(-144.471 -187.61)" fill="#fff"/>
              <path id="Path_5201" data-name="Path 5201" d="M160.526,189.7v.821h-.191v-.8a.4.4,0,0,0-.425-.452.464.464,0,0,0-.5.512v.743h-.191v-1.416h.183v.261a.6.6,0,0,1,.538-.272.542.542,0,0,1,.582.606" transform="translate(-145.698 -188.524)" fill="#fff"/>
            </g>
          </g>
        </g>
        <g id="Group_10046" data-name="Group 10046" transform="translate(41.247 77.328)" opacity="0.4">
          <g id="Group_10045" data-name="Group 10045">
            <g id="Group_10044" data-name="Group 10044" clip-path="url(#clip-path-16)">
              <path id="Path_5202" data-name="Path 5202" d="M131.928,207.578h-21.42a3.193,3.193,0,0,1,0-6.386h21.42a3.193,3.193,0,1,1,0,6.386" transform="translate(-107.315 -201.192)" fill="#fff"/>
            </g>
          </g>
        </g>
        <path id="Path_5203" data-name="Path 5203" d="M121.752,207.311a1.088,1.088,0,0,1,1.14-1.1,1.063,1.063,0,0,1,.818.335l-.2.193a.8.8,0,0,0-.605-.255.827.827,0,1,0,0,1.653.8.8,0,0,0,.605-.258l.2.193a1.067,1.067,0,0,1-.821.338,1.087,1.087,0,0,1-1.137-1.1" transform="translate(-74.956 -126.954)" fill="#fff"/>
        <path id="Path_5204" data-name="Path 5204" d="M127.416,207.311a1.144,1.144,0,1,1,1.146,1.1,1.093,1.093,0,0,1-1.146-1.1m1.979,0a.836.836,0,1,0-.833.827.808.808,0,0,0,.833-.827" transform="translate(-78.444 -126.954)" fill="#fff"/>
        <path id="Path_5205" data-name="Path 5205" d="M136.441,206.276v2.151h-.252l-1.291-1.6v1.6h-.307v-2.151h.252l1.291,1.6v-1.6Z" transform="translate(-82.861 -126.993)" fill="#fff"/>
        <path id="Path_5206" data-name="Path 5206" d="M141.018,206.543h-.738v-.267h1.779v.267h-.738v1.884h-.3Z" transform="translate(-86.363 -126.993)" fill="#fff"/>
        <rect id="Rectangle_2893" data-name="Rectangle 2893" width="0.307" height="2.151" transform="translate(56.032 79.282)" fill="#fff"/>
        <path id="Path_5207" data-name="Path 5207" d="M150.113,206.276v2.151h-.252l-1.291-1.6v1.6h-.307v-2.151h.252l1.291,1.6v-1.6Z" transform="translate(-91.278 -126.993)" fill="#fff"/>
        <path id="Path_5208" data-name="Path 5208" d="M154.711,207.5v-1.223h.307v1.211c0,.476.218.691.6.691s.609-.215.609-.691v-1.211h.3V207.5a.911.911,0,1,1-1.819,0" transform="translate(-95.248 -126.993)" fill="#fff"/>
        <path id="Path_5209" data-name="Path 5209" d="M162.648,208.16v.267h-1.561v-2.151h1.518v.267h-1.211v.661h1.078v.261h-1.078v.695Z" transform="translate(-99.173 -126.994)" fill="#fff"/>
        <g id="Group_10049" data-name="Group 10049" transform="translate(10.94 30.687)" opacity="0.1">
          <g id="Group_10048" data-name="Group 10048">
            <g id="Group_10047" data-name="Group 10047" clip-path="url(#clip-path-17)">
              <path id="Path_5210" data-name="Path 5210" d="M109.913,79.841c-12.572,12.6-44.861,40.626-81.449,38.554V79.841Z" transform="translate(-28.464 -79.841)" fill="#fff"/>
            </g>
          </g>
        </g>
        <g id="Group_10052" data-name="Group 10052" transform="translate(47.124 53.37)" opacity="0.1">
          <g id="Group_10051" data-name="Group 10051">
            <g id="Group_10050" data-name="Group 10050" clip-path="url(#clip-path-18)">
              <path id="Path_5211" data-name="Path 5211" d="M177.349,139.325v37.183H122.607c2.1-7.51,6.3-17.794,14.437-25.143,14.644-13.222,31.639-13.183,40.305-12.039" transform="translate(-122.607 -138.858)" fill="#fff"/>
            </g>
          </g>
        </g>
      </g>
    </g>
    <path id="Path_5212" data-name="Path 5212" d="M295.121,64.407l1.275,5.636,1.275-5.636Z" transform="translate(-181.691 -39.652)" fill="#407bff"/>
    <g id="Group_10068" data-name="Group 10068">
      <g id="Group_10067" data-name="Group 10067" clip-path="url(#clip-path)">
        <g id="Group_10057" data-name="Group 10057" transform="translate(113.43 24.755)" opacity="0.7">
          <g id="Group_10056" data-name="Group 10056">
            <g id="Group_10055" data-name="Group 10055" clip-path="url(#clip-path-20)">
              <path id="Path_5213" data-name="Path 5213" d="M295.121,64.407l1.275,5.636,1.275-5.636Z" transform="translate(-295.121 -64.407)" fill="#fff"/>
            </g>
          </g>
        </g>
        <path id="Path_5214" data-name="Path 5214" d="M284.555,40.1H256a3.3,3.3,0,0,1-3.3-3.3V26.2a3.3,3.3,0,0,1,3.3-3.3h28.558a3.3,3.3,0,0,1,3.3,3.3V36.8a3.3,3.3,0,0,1-3.3,3.3" transform="translate(-155.571 -14.097)" fill="#407bff"/>
        <g id="Group_10060" data-name="Group 10060" transform="translate(97.124 8.8)" opacity="0.7">
          <g id="Group_10059" data-name="Group 10059">
            <g id="Group_10058" data-name="Group 10058" clip-path="url(#clip-path-21)">
              <path id="Path_5215" data-name="Path 5215" d="M284.555,40.1H256a3.3,3.3,0,0,1-3.3-3.3V26.2a3.3,3.3,0,0,1,3.3-3.3h28.558a3.3,3.3,0,0,1,3.3,3.3V36.8a3.3,3.3,0,0,1-3.3,3.3" transform="translate(-252.695 -22.898)" fill="#fff"/>
            </g>
          </g>
        </g>
        <g id="Group_10063" data-name="Group 10063" transform="translate(102.99 13.578)" opacity="0.5">
          <g id="Group_10062" data-name="Group 10062">
            <g id="Group_10061" data-name="Group 10061" clip-path="url(#clip-path-22)">
              <path id="Path_5216" data-name="Path 5216" d="M269.117,37.069v.744h-.3v-.75l-.854-1.4h.329l.688,1.134.691-1.134h.3Z" transform="translate(-267.959 -35.533)" fill="#263238"/>
              <path id="Path_5217" data-name="Path 5217" d="M273.022,37.811a.847.847,0,1,1,.848.833.81.81,0,0,1-.848-.833m1.4,0a.549.549,0,1,0-.547.575.534.534,0,0,0,.547-.575" transform="translate(-271.076 -36.345)" fill="#263238"/>
              <path id="Path_5218" data-name="Path 5218" d="M279.988,37.021V38.65h-.28V38.4a.662.662,0,0,1-.553.264.64.64,0,0,1-.7-.71v-.937h.3v.9c0,.32.16.479.439.479a.479.479,0,0,0,.5-.541v-.842Z" transform="translate(-274.42 -36.37)" fill="#263238"/>
              <path id="Path_5219" data-name="Path 5219" d="M284.786,36.981v.286a.52.52,0,0,0-.068,0,.486.486,0,0,0-.513.55v.811h-.3V37h.283v.274a.621.621,0,0,1,.593-.289" transform="translate(-277.779 -36.345)" fill="#263238"/>
              <path id="Path_5220" data-name="Path 5220" d="M289,36.7a1.144,1.144,0,1,1,1.146,1.1A1.093,1.093,0,0,1,289,36.7m1.979,0a.836.836,0,1,0-.833.827.808.808,0,0,0,.833-.827" transform="translate(-280.912 -35.494)" fill="#263238"/>
              <path id="Path_5221" data-name="Path 5221" d="M296.023,35.929h-.738v-.268h1.78v.268h-.738v1.884h-.3Z" transform="translate(-284.783 -35.533)" fill="#263238"/>
              <path id="Path_5222" data-name="Path 5222" d="M302.526,36.412c0,.467-.338.75-.9.75H301.1v.651h-.307V35.662h.839c.559,0,.9.283.9.75m-.307,0c0-.307-.206-.482-.6-.482H301.1v.965h.522c.393,0,.6-.175.6-.482" transform="translate(-288.171 -35.533)" fill="#263238"/>
              <path id="Path_5223" data-name="Path 5223" d="M308.262,36.7a1.088,1.088,0,0,1,1.14-1.1,1.063,1.063,0,0,1,.818.335l-.2.194a.8.8,0,0,0-.605-.255.827.827,0,1,0,0,1.653.8.8,0,0,0,.605-.258l.2.194a1.067,1.067,0,0,1-.821.338,1.087,1.087,0,0,1-1.137-1.1" transform="translate(-292.771 -35.494)" fill="#263238"/>
              <path id="Path_5224" data-name="Path 5224" d="M313.822,37.811a.847.847,0,1,1,.848.833.81.81,0,0,1-.848-.833m1.4,0a.549.549,0,1,0-.547.575.534.534,0,0,0,.547-.575" transform="translate(-296.194 -36.345)" fill="#263238"/>
              <path id="Path_5225" data-name="Path 5225" d="M320.589,35.326v2.28h-.283v-.258a.688.688,0,0,1-.581.277.831.831,0,0,1,0-1.663.693.693,0,0,1,.568.261v-.9Zm-.292,1.466a.549.549,0,1,0-.547.575.536.536,0,0,0,.547-.575" transform="translate(-299.322 -35.326)" fill="#263238"/>
              <path id="Path_5226" data-name="Path 5226" d="M325.974,37.909h-1.321a.552.552,0,0,0,.59.476.607.607,0,0,0,.47-.2l.163.191a.888.888,0,0,1-1.518-.568.8.8,0,0,1,.818-.83.786.786,0,0,1,.805.839c0,.025,0,.061-.006.089m-1.321-.212H325.7a.526.526,0,0,0-1.045,0" transform="translate(-302.68 -36.345)" fill="#263238"/>
            </g>
          </g>
        </g>
        <g id="Group_10066" data-name="Group 10066" transform="translate(107.525 17.458)" opacity="0.5">
          <g id="Group_10065" data-name="Group 10065">
            <g id="Group_10064" data-name="Group 10064" clip-path="url(#clip-path-23)">
              <path id="Path_5227" data-name="Path 5227" d="M282.5,47.188a1.634,1.634,0,0,1-1.675,1.858,1.709,1.709,0,0,1-.881-.208l.192-.4a1.244,1.244,0,0,0,.683.167c.719,0,1.174-.45,1.174-1.336v-.127a1.182,1.182,0,0,1-1.022.466,1.09,1.09,0,0,1-1.21-1.073,1.141,1.141,0,0,1,1.25-1.118c.952,0,1.488.638,1.488,1.766m-.623-.673c0-.364-.294-.683-.845-.683a.7.7,0,0,0-.779.688c0,.415.309.683.8.683a.737.737,0,0,0,.82-.688" transform="translate(-279.758 -45.422)" fill="#263238"/>
              <path id="Path_5228" data-name="Path 5228" d="M288.149,47.234c0-1.154.618-1.812,1.448-1.812s1.442.658,1.442,1.812-.618,1.812-1.442,1.812-1.448-.658-1.448-1.812m2.384,0c0-.906-.385-1.361-.936-1.361s-.942.455-.942,1.361.385,1.362.942,1.362.936-.456.936-1.362" transform="translate(-284.924 -45.422)" fill="#263238"/>
              <path id="Path_5229" data-name="Path 5229" d="M299.112,48.564V49h-2.546V48.66l1.442-1.392c.375-.364.445-.587.445-.81,0-.364-.258-.587-.754-.587a1.113,1.113,0,0,0-.906.385l-.344-.3a1.634,1.634,0,0,1,1.3-.537c.739,0,1.215.38,1.215.987a1.435,1.435,0,0,1-.582,1.113l-1.083,1.043Z" transform="translate(-290.034 -45.421)" fill="#263238"/>
              <path id="Path_5230" data-name="Path 5230" d="M305.233,45.527V49.07h-.5v-3.1h-.8v-.44Z" transform="translate(-294.641 -45.487)" fill="#263238"/>
              <path id="Path_5231" data-name="Path 5231" d="M309.333,47.234c0-1.154.617-1.812,1.447-1.812s1.442.658,1.442,1.812-.618,1.812-1.442,1.812-1.447-.658-1.447-1.812m2.384,0c0-.906-.385-1.361-.936-1.361s-.942.455-.942,1.361.385,1.362.942,1.362.936-.456.936-1.362" transform="translate(-297.966 -45.422)" fill="#263238"/>
            </g>
          </g>
        </g>
      </g>
    </g>
    <g id="Group_10109" data-name="Group 10109">
      <g id="Group_10108" data-name="Group 10108" clip-path="url(#clip-path)">
        <path id="Path_5232" data-name="Path 5232" d="M286.958,101.988l.4.261.436.279c.295.184.6.36.9.532.612.343,1.232.673,1.868.963a19.992,19.992,0,0,0,3.908,1.351l.062.015c.022.005.049.011.025.007s-.043,0-.1,0a1.034,1.034,0,0,0-.475.158,1.019,1.019,0,0,0-.391.434.38.38,0,0,0-.047.18c.011.024.025-.078.02-.191a3.4,3.4,0,0,0-.043-.409,15.106,15.106,0,0,0-.513-1.991c-.439-1.376-.961-2.792-1.479-4.181l1.483-.8a30.783,30.783,0,0,1,2.377,4.021,14.581,14.581,0,0,1,.915,2.308,6.494,6.494,0,0,1,.156.706,3.471,3.471,0,0,1,.033.94,2.232,2.232,0,0,1-.2.723,1.989,1.989,0,0,1-.758.855,2.075,2.075,0,0,1-1.018.3,2.4,2.4,0,0,1-.378-.016l-.115-.015-.077-.012a18.434,18.434,0,0,1-4.737-1.308,22.766,22.766,0,0,1-2.193-1.049c-.352-.2-.7-.4-1.048-.621-.172-.11-.346-.217-.517-.336s-.329-.229-.535-.384Z" transform="translate(-175.413 -60.704)" fill="#dc897c"/>
        <path id="Path_5233" data-name="Path 5233" d="M286.047,106.209a7.6,7.6,0,0,1,3.7,1.5l-1.547,4.758s-7.46-6.868-2.153-6.26" transform="translate(-174.931 -65.364)" fill="#407bff"/>
        <g id="Group_10071" data-name="Group 10071" transform="translate(109.21 40.808)" opacity="0.6">
          <g id="Group_10070" data-name="Group 10070">
            <g id="Group_10069" data-name="Group 10069" clip-path="url(#clip-path-25)">
              <path id="Path_5234" data-name="Path 5234" d="M286.032,110.228a31.142,31.142,0,0,0,2.165,2.241l.636-1.956.912-2.8a7.569,7.569,0,0,0-3.7-1.5c-3.264-.373-1.7,2.077-.016,4.017" transform="translate(-284.14 -106.173)" fill="#fff"/>
            </g>
          </g>
        </g>
        <g id="Group_10074" data-name="Group 10074" transform="translate(111.091 44.185)" opacity="0.2" style="isolation: isolate">
          <g id="Group_10073" data-name="Group 10073">
            <g id="Group_10072" data-name="Group 10072" clip-path="url(#clip-path-26)">
              <path id="Path_5235" data-name="Path 5235" d="M289.045,115.639a31.147,31.147,0,0,0,2.165,2.241l.636-1.956a4.553,4.553,0,0,0-2.79-.962,3.665,3.665,0,0,0-.011.676" transform="translate(-289.035 -114.961)"/>
            </g>
          </g>
        </g>
        <path id="Path_5236" data-name="Path 5236" d="M244.543,88.006s-3.574,11.886,3.955,13.481,8.319-3.874,8.319-3.874-6.168-9.364-12.273-9.606" transform="translate(-150.03 -54.181)" fill="#263238"/>
        <path id="Path_5237" data-name="Path 5237" d="M241.3,96.846a1.429,1.429,0,0,1,1.03-.725" transform="translate(-148.555 -59.177)" fill="none" stroke="#263238" stroke-linecap="round" stroke-linejoin="round" stroke-width="0.482"/>
        <path id="Path_5238" data-name="Path 5238" d="M243.6,102.088a5.794,5.794,0,0,1-.31,1.355.753.753,0,0,0,.787.015Z" transform="translate(-149.783 -62.85)" fill="#de5753"/>
        <path id="Path_5239" data-name="Path 5239" d="M242.152,99.954c.08.211.259.338.4.285s.189-.268.109-.478-.259-.338-.4-.285-.189.268-.109.478" transform="translate(-149.057 -61.234)" fill="#263238"/>
        <path id="Path_5240" data-name="Path 5240" d="M241.817,99.454l-.527-.005s.375.3.527.005" transform="translate(-148.55 -61.226)" fill="#263238"/>
        <path id="Path_5241" data-name="Path 5241" d="M249.293,92.8a.388.388,0,0,1-.054.1c-.035.065-.073.127-.111.192a3.665,3.665,0,0,1-.884,1.057,3.333,3.333,0,0,1-3.029.93c-.042-.012-.085-.027-.127-.042l0,0c-1.3-.527-2.291-2.076-3.109-4.124a8.142,8.142,0,0,1-.665-2.529c0-.008-.012-.031-.012-.038,0-.031-.008-.069-.008-.1a3.013,3.013,0,0,1,1.215-2.6,5.833,5.833,0,0,1,1.115-.688c3.863-1.876,7.6,4.22,5.673,7.845" transform="translate(-148.549 -52.084)" fill="#e4897b"/>
        <g id="Group_10077" data-name="Group 10077" transform="translate(96.666 41)" opacity="0.2" style="isolation: isolate">
          <g id="Group_10076" data-name="Group 10076">
            <g id="Group_10075" data-name="Group 10075" clip-path="url(#clip-path-27)">
              <path id="Path_5242" data-name="Path 5242" d="M255.417,106.672a3.666,3.666,0,0,1-.884,1.057,3.333,3.333,0,0,1-3.029.93,4.213,4.213,0,0,0,2.187-1.326,2.182,2.182,0,0,1,1.726-.661" transform="translate(-251.504 -106.672)"/>
            </g>
          </g>
        </g>
        <path id="Path_5243" data-name="Path 5243" d="M241.21,85.8a4.514,4.514,0,0,0,4.2,2.772s2.444,2.3,4.093,1.573c2.249-1,2.712-5.086.419-7.943-2.974-3.705-9.463-1.053-8.717,3.6" transform="translate(-148.464 -49.534)" fill="#263238"/>
        <path id="Path_5244" data-name="Path 5244" d="M247.7,98.691c-.2-.425-.2-1.3.51-1.515.73-.223,1.9,1.282.4,2.452-.215.168-.5-.05-.914-.937" transform="translate(-152.429 -59.813)" fill="#e4897b"/>
        <path id="Path_5245" data-name="Path 5245" d="M242.807,80.085s-2.907.571-3.849,2.294c-1.1,2.011-1.139,3.573,1.771,4.593,0,0,3.691-3.475,5.282-3.86a17.343,17.343,0,0,1,2.827-.454c-1.056-3.023-4.86-3.847-6.032-2.572" transform="translate(-146.689 -48.948)" fill="#263238"/>
        <path id="Path_5246" data-name="Path 5246" d="M257.387,104.861a6.833,6.833,0,0,1,2.52,3.666l6.231-3.634s-4.878-1.113-5.718-3c0,0-3.258.405-3.033,2.968" transform="translate(-158.453 -62.73)" fill="#e4897b"/>
        <path id="Path_5247" data-name="Path 5247" d="M259.189,123.051s-8.055-7.932-8.94-10.422a13.2,13.2,0,0,1,10.177-5.507c6.785-.221,11.4,12.685,11.4,12.685Z" transform="translate(-154.065 -65.948)" fill="#407bff"/>
        <g id="Group_10080" data-name="Group 10080" transform="translate(96.185 41.17)" opacity="0.6">
          <g id="Group_10079" data-name="Group 10079">
            <g id="Group_10078" data-name="Group 10078" clip-path="url(#clip-path-28)">
              <path id="Path_5248" data-name="Path 5248" d="M271.828,119.805l-12.634,3.244s-1.76-1.733-3.728-3.832c-.607-.657-1.241-1.349-1.853-2.033a20.355,20.355,0,0,1-3.359-4.558,13.2,13.2,0,0,1,10.174-5.508c6.788-.219,11.4,12.687,11.4,12.687" transform="translate(-250.254 -107.115)" fill="#fff"/>
            </g>
          </g>
        </g>
        <path id="Path_5249" data-name="Path 5249" d="M252.922,86.632a8.468,8.468,0,0,0,5.323,5.222c4.143,1.3,3.1,5.529,7.119,5.03,2.137-.265,3.966-4.617-2.588-8.451-3.82-2.235-2.338-9.573-10.446-8.885,0,0,1.682,5.03.592,7.084" transform="translate(-155.347 -48.946)" fill="#263238"/>
        <path id="Path_5250" data-name="Path 5250" d="M261.286,234.649l-1.92-.437a296.243,296.243,0,0,1,2.9-29.957c.193-1.368.38-2.661.561-3.867.088-.573.17-1.123.251-1.653.4-2.617.736-4.686.948-5.965.156-.932.244-1.445.244-1.445l6.908,1.689-.5,1.743-1.634,5.757-.185.658-1.082,3.8-1.837,6.471c.123,9.774-4.662,23.205-4.662,23.205" transform="translate(-159.678 -117.789)" fill="#e4897b"/>
        <path id="Path_5251" data-name="Path 5251" d="M299.847,230.682l-1.969-.1a309.7,309.7,0,0,1-2.4-32.236c-.04-1.392-.074-2.694-.1-3.872,0-.061,0-.117,0-.174-.05-2.34-.074-4.2-.085-5.379,0-.922-.007-1.429-.007-1.429l7.1.466-.3,2.958-.445,4.346-.088.852-.306,2.961-.819,7.942c1.815,9.6-.568,23.664-.568,23.664" transform="translate(-181.789 -115.43)" fill="#e4897b"/>
        <path id="Path_5252" data-name="Path 5252" d="M296.823,298.668c-.006-.246-3.034-.053-3.034-.053a9.556,9.556,0,0,1-3.674,2.321c-1.81.426-.8,1.512,1.225,1.512h5c1.437,0,.539-1.224.479-3.78" transform="translate(-178.029 -183.798)" fill="#263238"/>
        <path id="Path_5253" data-name="Path 5253" d="M296.2,298.386a.291.291,0,0,1-.073-.323.325.325,0,0,1,.162-.205,1.24,1.24,0,0,1,.679-.074c-.246-.131-.462-.291-.471-.45-.006-.1.061-.189.2-.254a.466.466,0,0,1,.392-.011c.411.171.665.878.676.908a.078.078,0,0,1,0,.061.085.085,0,0,1-.011.017.075.075,0,0,1-.027.021,3.8,3.8,0,0,1-1.255.384.42.42,0,0,1-.267-.073m.168-.389a.168.168,0,0,0-.087.106c-.03.119.008.15.02.16.143.118.7-.05,1.144-.239a1.979,1.979,0,0,0-1.077-.027m.4-.773c-.042.019-.11.059-.108.1.008.136.441.372.89.542a1.334,1.334,0,0,0-.52-.651.314.314,0,0,0-.123-.026.323.323,0,0,0-.14.034" transform="translate(-182.298 -182.866)" fill="#263238"/>
        <path id="Path_5254" data-name="Path 5254" d="M254.645,298.668c-.006-.246-3.035-.053-3.035-.053a9.554,9.554,0,0,1-3.673,2.321c-1.81.426-.8,1.512,1.225,1.512h5c1.437,0,.539-1.224.479-3.78" transform="translate(-152.062 -183.798)" fill="#263238"/>
        <path id="Path_5255" data-name="Path 5255" d="M254.021,298.386a.291.291,0,0,1-.073-.323.325.325,0,0,1,.162-.205,1.24,1.24,0,0,1,.679-.074c-.246-.131-.462-.291-.471-.45-.006-.1.061-.189.2-.254a.466.466,0,0,1,.392-.011c.41.171.665.878.676.908a.078.078,0,0,1,0,.061.085.085,0,0,1-.011.017.076.076,0,0,1-.027.021,3.8,3.8,0,0,1-1.255.384.419.419,0,0,1-.267-.073m.168-.389a.168.168,0,0,0-.087.106c-.03.119.008.15.02.16.143.118.7-.05,1.144-.239a1.979,1.979,0,0,0-1.077-.027m.4-.773c-.042.019-.11.059-.108.1.008.136.441.372.89.542a1.334,1.334,0,0,0-.52-.651.313.313,0,0,0-.123-.026.323.323,0,0,0-.14.034" transform="translate(-156.332 -182.866)" fill="#263238"/>
        <path id="Path_5256" data-name="Path 5256" d="M269.245,162.695l1.639-11.52v-7.8c4.316-3.245,12.636-3.245,12.636-3.245s6.394,8.865,3.287,23.459l-8.024,1.172-.513-2.722-1.006,2.722Z" transform="translate(-165.76 -86.27)" fill="#263238"/>
        <g id="Group_10083" data-name="Group 10083" transform="translate(103.485 53.859)" opacity="0.2">
          <g id="Group_10082" data-name="Group 10082">
            <g id="Group_10081" data-name="Group 10081" clip-path="url(#clip-path-29)">
              <path id="Path_5257" data-name="Path 5257" d="M269.245,162.695l1.639-11.52v-7.8c4.316-3.245,12.636-3.245,12.636-3.245s6.394,8.865,3.287,23.459l-8.024,1.172-.513-2.722-1.006,2.722Z" transform="translate(-269.245 -140.128)" fill="#fff"/>
            </g>
          </g>
        </g>
        <g id="Group_10086" data-name="Group 10086" transform="translate(112.51 67.255)" opacity="0.2" style="isolation: isolate">
          <g id="Group_10085" data-name="Group 10085">
            <g id="Group_10084" data-name="Group 10084" clip-path="url(#clip-path-30)">
              <path id="Path_5258" data-name="Path 5258" d="M292.726,183.5l1.545-4.8s1.622-.491,3.7-3.713a11.685,11.685,0,0,1-5.25,8.514" transform="translate(-292.726 -174.982)"/>
            </g>
          </g>
        </g>
        <g id="Group_10089" data-name="Group 10089" transform="translate(109.09 58.972)" opacity="0.2" style="isolation: isolate">
          <g id="Group_10088" data-name="Group 10088">
            <g id="Group_10087" data-name="Group 10087" clip-path="url(#clip-path-31)">
              <path id="Path_5259" data-name="Path 5259" d="M283.828,153.776l3.6-.344a8.128,8.128,0,0,1,.577,4.277L285.7,159.1l-1.672-1.187s-.049-3.051-.2-4.132" transform="translate(-283.828 -153.432)"/>
            </g>
          </g>
        </g>
        <g id="Group_10092" data-name="Group 10092" transform="translate(117.759 58.062)" opacity="0.2" style="isolation: isolate">
          <g id="Group_10091" data-name="Group 10091">
            <g id="Group_10090" data-name="Group 10090" clip-path="url(#clip-path-32)">
              <path id="Path_5260" data-name="Path 5260" d="M306.385,151.435a18.105,18.105,0,0,1,1.065,3.687l1.278.541.688-.856a13.633,13.633,0,0,0-1.255-3.741Z" transform="translate(-306.385 -151.066)"/>
            </g>
          </g>
        </g>
        <path id="Path_5261" data-name="Path 5261" d="M268.684,197.133l8.518,2.5-.535,1.143-8.094-2.489Z" transform="translate(-165.347 -121.365)" fill="#263238"/>
        <path id="Path_5262" data-name="Path 5262" d="M293.2,201.081l.141,1.051,8.352-1.051.129-1.328Z" transform="translate(-180.508 -122.978)" fill="#263238"/>
        <path id="Path_5263" data-name="Path 5263" d="M297.1,142.262a30.177,30.177,0,0,1,4.131-.4l-.514-.851a23.451,23.451,0,0,0-4.028.241Z" transform="translate(-182.658 -86.806)" fill="#263238"/>
        <path id="Path_5264" data-name="Path 5264" d="M275.043,147.035c-1.1.476-1.737.836-1.737.836l.007,1.049c.62-.314,1.244-.6,1.866-.857Z" transform="translate(-168.26 -90.522)" fill="#263238"/>
        <path id="Path_5265" data-name="Path 5265" d="M278.953,144.708a33.66,33.66,0,0,1,6.614-1.841l-.384-1.024a29.14,29.14,0,0,0-6.388,1.837Z" transform="translate(-171.64 -87.326)" fill="#263238"/>
        <path id="Path_5266" data-name="Path 5266" d="M215.042,155.721l-2.183-.876-.369,2.06s1.968,1.195,2.788-.227Z" transform="translate(-130.82 -95.33)" fill="#e4897b"/>
        <path id="Path_5267" data-name="Path 5267" d="M209.512,154.971l-.7,1.594,1.414.339.369-2.059Z" transform="translate(-128.555 -95.33)" fill="#e4897b"/>
        <path id="Path_5268" data-name="Path 5268" d="M302.694,95.771l-.259-2.338-1.989.649s-.122,2.3,1.518,2.349Z" transform="translate(-184.967 -57.522)" fill="#e4897b"/>
        <path id="Path_5269" data-name="Path 5269" d="M301.222,91.1l-1.735.137.37,1.406L301.846,92Z" transform="translate(-184.379 -56.089)" fill="#e4897b"/>
        <g id="Group_10095" data-name="Group 10095" transform="translate(99.16 48.552)" opacity="0.2" style="isolation: isolate">
          <g id="Group_10094" data-name="Group 10094">
            <g id="Group_10093" data-name="Group 10093" clip-path="url(#clip-path-33)">
              <path id="Path_5270" data-name="Path 5270" d="M260.231,131.042c-.607-.657-1.241-1.349-1.853-2.033-.234-1.43-.384-2.687-.384-2.687a5.551,5.551,0,0,1,2.237,4.72" transform="translate(-257.994 -126.322)"/>
            </g>
          </g>
        </g>
        <path id="Path_5271" data-name="Path 5271" d="M233.4,123.28c-.226.955-.5,1.827-.774,2.727s-.61,1.769-.945,2.644-.7,1.742-1.1,2.6c-.2.429-.405.854-.624,1.275-.1.212-.223.42-.336.629l-.171.314-.088.16c-.052.088-.1.181-.159.261a4.588,4.588,0,0,1-1.464,1.338,9.06,9.06,0,0,1-1.457.7,17.322,17.322,0,0,1-2.836.777,31.332,31.332,0,0,1-5.608.534l-.155-1.676c.856-.186,1.741-.379,2.6-.6s1.714-.446,2.539-.719a17.9,17.9,0,0,0,2.345-.917,6.182,6.182,0,0,0,.957-.565,1.748,1.748,0,0,0,.509-.517c.008-.014.007-.023.013-.033l.066-.145.135-.3c.089-.2.183-.392.265-.6.169-.4.343-.8.5-1.209.324-.813.63-1.638.925-2.469s.563-1.673.825-2.516.514-1.708.743-2.513Z" transform="translate(-134.012 -75.392)" fill="#dc897c"/>
        <path id="Path_5272" data-name="Path 5272" d="M248.548,116.983c-1.882,1.228-2.888,4.428-3.207,5.993l3.906,2.874,1.97-1.921c.8-4.413-1.958-7.41-2.669-6.946" transform="translate(-151.044 -71.991)" fill="#407bff"/>
        <g id="Group_10098" data-name="Group 10098" transform="translate(94.297 44.944)" opacity="0.6">
          <g id="Group_10097" data-name="Group 10097">
            <g id="Group_10096" data-name="Group 10096" clip-path="url(#clip-path-34)">
              <path id="Path_5273" data-name="Path 5273" d="M248.548,116.983c-1.882,1.228-2.888,4.428-3.207,5.993l3.906,2.874,1.97-1.921c.8-4.413-1.958-7.41-2.669-6.946" transform="translate(-245.341 -116.936)" fill="#fff"/>
            </g>
          </g>
        </g>
        <path id="Path_5274" data-name="Path 5274" d="M298.07,90.951l-2.787.3a.282.282,0,0,1-.293-.3l-.168-5.909a.34.34,0,0,1,.275-.359l2.787-.3a.281.281,0,0,1,.293.3l.168,5.909a.34.34,0,0,1-.275.359" transform="translate(-181.507 -51.951)" fill="#263238"/>
        <g id="Group_10101" data-name="Group 10101" transform="translate(113.315 32.433)" opacity="0.6">
          <g id="Group_10100" data-name="Group 10100">
            <g id="Group_10099" data-name="Group 10099" clip-path="url(#clip-path-35)">
              <path id="Path_5275" data-name="Path 5275" d="M298.07,90.951l-2.787.3a.282.282,0,0,1-.293-.3l-.168-5.909a.34.34,0,0,1,.275-.359l2.787-.3a.281.281,0,0,1,.293.3l.168,5.909a.34.34,0,0,1-.275.359" transform="translate(-294.822 -84.384)" fill="#fff"/>
            </g>
          </g>
        </g>
        <path id="Path_5276" data-name="Path 5276" d="M297.432,91.019l-2.787.3a.282.282,0,0,1-.294-.3l-.168-5.909a.34.34,0,0,1,.275-.359l2.787-.3a.281.281,0,0,1,.293.3l.168,5.909a.34.34,0,0,1-.275.359" transform="translate(-181.114 -51.993)" fill="#263238"/>
        <g id="Group_10104" data-name="Group 10104" transform="translate(113.07 32.459)" opacity="0.7">
          <g id="Group_10103" data-name="Group 10103">
            <g id="Group_10102" data-name="Group 10102" clip-path="url(#clip-path-36)">
              <path id="Path_5277" data-name="Path 5277" d="M297.432,91.019l-2.787.3a.282.282,0,0,1-.294-.3l-.168-5.909a.34.34,0,0,1,.275-.359l2.787-.3a.281.281,0,0,1,.293.3l.168,5.909a.34.34,0,0,1-.275.359" transform="translate(-294.184 -84.452)" fill="#fff"/>
            </g>
          </g>
        </g>
        <path id="Path_5278" data-name="Path 5278" d="M297.409,84.755l-.729.078-.094.225-1.129.12-.106-.2-.728.078a.221.221,0,0,0-.179.233l.168,5.909a.183.183,0,0,0,.191.193l2.787-.3a.22.22,0,0,0,.178-.233l-.168-5.909a.183.183,0,0,0-.19-.193" transform="translate(-181.274 -52.178)" fill="#407bff"/>
        <g id="Group_10107" data-name="Group 10107" transform="translate(113.509 33.722)" opacity="0.8">
          <g id="Group_10106" data-name="Group 10106">
            <g id="Group_10105" data-name="Group 10105" clip-path="url(#clip-path-37)">
              <path id="Path_5279" data-name="Path 5279" d="M297.579,88.727l-2.05.218a.179.179,0,0,1-.187-.19l-.017-.57a.216.216,0,0,1,.175-.228l2.05-.218a.179.179,0,0,1,.187.19l.016.57a.216.216,0,0,1-.175.228" transform="translate(-295.326 -87.738)" fill="#fff"/>
            </g>
          </g>
        </g>
      </g>
    </g>
  </g>
</svg>
