<svg id="mission-ico" xmlns="http://www.w3.org/2000/svg" xmlns:xlink="http://www.w3.org/1999/xlink" width="56" height="36.971" viewBox="0 0 56 36.971">
  <defs>
    <clipPath id="clip-path">
      <rect id="Rectangle_479" data-name="Rectangle 479" width="56" height="36.971" fill="#fff"/>
    </clipPath>
  </defs>
  <g id="Group_716" data-name="Group 716" clip-path="url(#clip-path)">
    <path id="Path_637" data-name="Path 637" d="M32.235,16.3l-3.464.974a13.437,13.437,0,0,1-1.212,7.409,9.615,9.615,0,0,1-4.737,4.82c-4.126,1.807-7.854.867-11.149-1.969a13.352,13.352,0,0,1-4.416-7.675A13.216,13.216,0,0,1,8.821,10,9.58,9.58,0,0,1,18.72,5.5a11.262,11.262,0,0,1,7.069,4.478c.675.876,1.218,1.854,1.844,2.82l3.342-.852a3.431,3.431,0,0,0-.139-.4c-.54-1.044-1.016-2.128-1.639-3.12a18.4,18.4,0,0,0-7.257-6.741A14.93,14.93,0,0,0,16.083.036a13.682,13.682,0,0,0-9.509,2.8C2.317,6.093.356,10.57.04,15.81A20.96,20.96,0,0,0,3.092,28.1a18.162,18.162,0,0,0,7.787,7.263,14.584,14.584,0,0,0,10.5,1.075,14.347,14.347,0,0,0,9-7.508,19.428,19.428,0,0,0,2.1-10.8c-.043-.6-.156-1.188-.243-1.827" transform="translate(0 0)" fill="#fff"/>
    <path id="Path_638" data-name="Path 638" d="M260.093,42.392c-.191.032-.555-.058-.59-.17-.106-.337.217-.384.463-.449q3.109-.822,6.217-1.646c.743-.2,1.482-.407,2.265-.622a1.332,1.332,0,0,0-.147-.266c-.943-.945-1.87-1.908-2.844-2.82a1.944,1.944,0,0,0-1.9-.412c-1.144.3-2.3.551-3.418.936a3.034,3.034,0,0,0-1.37.965c-.832,1.1-1.565,2.284-2.308,3.453a1.115,1.115,0,0,1-.737.531q-4.892,1.216-9.779,2.454c-1.865.469-3.732.934-5.6,1.41a1.169,1.169,0,0,0-.94,1.538c.2.711.792,1,1.648.77,1.043-.282,2.073-.612,3.121-.872.776-.193,1.4-.461,1.277-1.432a.259.259,0,0,1,.153-.206.318.318,0,0,1,.227.141.985.985,0,0,1,.1.286c.2.66.2.657.868.469q4.752-1.338,9.508-2.666a.969.969,0,0,1,.626.023q1.826.88,3.625,1.814a2.579,2.579,0,0,0,1.854.321c1.24-.31,2.48-.624,3.7-.995a2.005,2.005,0,0,0,1.381-1.5c.078-.294.169-.584.246-.877.129-.491.251-.983.4-1.553-.51.082-.908.141-1.3.21-2.246.39-4.49.788-6.739,1.161" transform="translate(-212.448 -31.885)" fill="#fff"/>
    <path id="Path_639" data-name="Path 639" d="M131.7,117.063a7.177,7.177,0,0,1,.991-.508c.879-.341,1.77-.653,2.754-1.012a18.171,18.171,0,0,0-1.272-1.329,3.74,3.74,0,0,0-5.447.542,5.414,5.414,0,0,0,2.129,7.978,3.923,3.923,0,0,0,5.312-4.077c-.167.035-.326.079-.488.1-1.152.149-2.3.328-3.459.423a.974.974,0,0,1-1.079-.739,1.12,1.12,0,0,1,.559-1.379" transform="translate(-113.381 -100.548)" fill="#fff"/>
    <path id="Path_640" data-name="Path 640" d="M311.274,138l.068.254a50.445,50.445,0,0,0,10.916-2.913l-.066-.248A50.018,50.018,0,0,0,311.274,138" transform="translate(-276.286 -119.908)" fill="#fff"/>
    <path id="Path_641" data-name="Path 641" d="M175.5,133.933c-2.524.823-5.133,1.109-7.4,2.457,2.656.039,5.076-1.013,7.656-1.556l-.258-.9" transform="translate(-149.205 -118.879)" fill="#fff"/>
    <path id="Path_642" data-name="Path 642" d="M312.267,53.2a23.823,23.823,0,0,0-7.381,2.305c1.3.358,6.992-1.417,7.381-2.305" transform="translate(-270.616 -47.218)" fill="#fff"/>
  </g>
</svg>
