<svg xmlns="http://www.w3.org/2000/svg" xmlns:xlink="http://www.w3.org/1999/xlink" width="97" height="97" viewBox="0 0 97 97">
  <defs>
    <clipPath id="clip-path">
      <rect id="Rectangle_2708" data-name="Rectangle 2708" width="59.055" height="58.945" fill="#20285b"/>
    </clipPath>
  </defs>
  <g id="prospecting-ico" transform="translate(-870 -1380)">
    <circle id="Ellipse_237" data-name="Ellipse 237" cx="48.5" cy="48.5" r="48.5" transform="translate(870 1380)" fill="#838ea4" opacity="0.2"/>
    <g id="Group_9863" data-name="Group 9863" transform="translate(888 1401)">
      <g id="Group_9862" data-name="Group 9862" transform="translate(0 0)" clip-path="url(#clip-path)">
        <path id="Path_4917" data-name="Path 4917" d="M69.031,34.869c-.745.591-1.464,1.221-2.252,1.748a1.3,1.3,0,0,1-1,.024c-.386-.134-.466-.53-.382-1.168-.735-.135-1.9.27-1.859-1,.035-1.184,1.13-.778,1.726-.876a4.024,4.024,0,0,1,.356-1.081.747.747,0,0,1,1.082-.169c.8.582,1.557,1.22,2.332,1.835Z" transform="translate(-9.976 -5.054)" fill="#20285b"/>
        <path id="Path_4918" data-name="Path 4918" d="M0,34.193c.775-.614,1.524-1.265,2.339-1.819a.977.977,0,0,1,.933.056A3.407,3.407,0,0,1,3.8,33.515a13.011,13.011,0,0,1,1.481.42c.141.056.231.394.238.606.023.648-.368.84-1.846.944a3.391,3.391,0,0,1-.006.593.892.892,0,0,1-1.376.6C1.5,36.118.761,35.486,0,34.883v-.69" transform="translate(0 -5.069)" fill="#20285b"/>
        <path id="Path_4919" data-name="Path 4919" d="M34.941,0c.607.754,1.25,1.484,1.8,2.279a1.132,1.132,0,0,1-.011.949c-.216.451-.678.507-1.211.345,0,.352.013.668,0,.985a.918.918,0,1,1-1.835.005c-.016-.3,0-.609,0-.913a3.461,3.461,0,0,1-.736-.047.843.843,0,0,1-.522-1.279C32.984,1.519,33.633.771,34.249,0Z" transform="translate(-5.067 0)" fill="#20285b"/>
        <path id="Path_4920" data-name="Path 4920" d="M53.459,30.8a21.9,21.9,0,0,1-.135,2.636A3.67,3.67,0,0,1,49.973,36.5a.575.575,0,0,0-.555.452c-.336.855-.683,1.706-1.06,2.543a.587.587,0,0,0,.087.712,3.75,3.75,0,0,1-.236,5.08q-1.386,1.463-2.853,2.848a3.763,3.763,0,0,1-5.045.227.624.624,0,0,0-.764-.086c-.819.372-1.654.714-2.5,1.035a.608.608,0,0,0-.478.6,3.753,3.753,0,0,1-3.609,3.4c-1.421.043-2.845.04-4.266,0a3.763,3.763,0,0,1-3.645-3.423.581.581,0,0,0-.443-.566q-1.287-.5-2.552-1.05a.59.59,0,0,0-.715.072,3.77,3.77,0,0,1-5.131-.258q-1.39-1.339-2.732-2.726a3.818,3.818,0,0,1-.3-5.182.779.779,0,0,0,.083-.637c-.329-.878-.719-1.731-1.057-2.606a.577.577,0,0,0-.572-.431,3.777,3.777,0,0,1-3.418-3.711q-.034-2.043,0-4.086a3.765,3.765,0,0,1,3.417-3.707.588.588,0,0,0,.573-.438c.338-.874.729-1.728,1.058-2.606a.778.778,0,0,0-.083-.637,3.817,3.817,0,0,1,.3-5.18q1.328-1.361,2.689-2.687a3.781,3.781,0,0,1,5.174-.3.585.585,0,0,0,.711.083c.839-.377,1.69-.727,2.547-1.06a.577.577,0,0,0,.45-.558,3.759,3.759,0,0,1,3.755-3.426c1.326-.015,2.653-.012,3.979,0A3.811,3.811,0,0,1,36.6,11.628a.773.773,0,0,0,.4.5c.854.389,1.723.75,2.6,1.082a.782.782,0,0,0,.637-.062,3.838,3.838,0,0,1,5.232.314q1.339,1.307,2.649,2.644a3.829,3.829,0,0,1,.31,5.225.788.788,0,0,0-.061.642q.5,1.315,1.081,2.6a.785.785,0,0,0,.51.4,3.828,3.828,0,0,1,3.455,3.871c.007.652,0,1.3,0,1.957l.038,0M21.54,46.169c.422.122.723.184,1,.3.978.394,1.939.829,2.924,1.2a2,2,0,0,1,1.4,1.844,1.962,1.962,0,0,0,2.162,1.962c1.153.006,2.306,0,3.46,0a1.992,1.992,0,0,0,2.269-2.036,1.971,1.971,0,0,1,1.357-1.756q1.474-.57,2.923-1.206a1.963,1.963,0,0,1,2.246.306,1.97,1.97,0,0,0,2.927-.107q1.272-1.253,2.528-2.523a1.971,1.971,0,0,0,.126-2.963,1.957,1.957,0,0,1-.29-2.245c.419-.944.822-1.9,1.188-2.863a1.989,1.989,0,0,1,1.846-1.4,1.958,1.958,0,0,0,1.962-2.1c.007-1.17,0-2.341,0-3.511A1.984,1.984,0,0,0,49.54,26.8a1.993,1.993,0,0,1-1.778-1.409c-.34-.914-.706-1.822-1.121-2.7a2.073,2.073,0,0,1,.311-2.491,1.916,1.916,0,0,0-.1-2.747q-1.348-1.38-2.732-2.726a1.932,1.932,0,0,0-2.75-.081,2.069,2.069,0,0,1-2.5.294,24.045,24.045,0,0,0-2.6-1.081,2.041,2.041,0,0,1-1.52-1.935,1.917,1.917,0,0,0-2.043-1.892c-1.249-.008-2.5-.006-3.749,0a1.923,1.923,0,0,0-2.085,1.909A2.035,2.035,0,0,1,25.4,13.845c-.9.324-1.79.687-2.655,1.1a2.078,2.078,0,0,1-2.5-.31,1.926,1.926,0,0,0-2.748.1q-1.381,1.348-2.731,2.727a1.916,1.916,0,0,0-.083,2.746,2.07,2.07,0,0,1,.3,2.493,23.471,23.471,0,0,0-1.06,2.542,2.087,2.087,0,0,1-1.963,1.571,1.93,1.93,0,0,0-1.9,2.095q-.009,1.813,0,3.626a1.96,1.96,0,0,0,1.977,2.147,1.98,1.98,0,0,1,1.817,1.36q.573,1.471,1.206,2.917a1.96,1.96,0,0,1-.3,2.243,1.959,1.959,0,0,0,.105,2.92q1.257,1.268,2.528,2.524a2.015,2.015,0,0,0,2.978.142,6.819,6.819,0,0,1,1.178-.617" transform="translate(-1.287 -1.284)" fill="#20285b"/>
        <path id="Path_4921" data-name="Path 4921" d="M35.551,65.275a.971.971,0,0,1,1.227.405,1,1,0,0,1-.216,1.211c-.378.484-.734.984-1.109,1.47a.946.946,0,0,1-1.7.015c-.363-.47-.711-.953-1.076-1.423-.293-.379-.547-.759-.275-1.254a.994.994,0,0,1,1.232-.438c.143-1.559.325-1.907.978-1.893s.831.365.935,1.908" transform="translate(-5.07 -9.95)" fill="#20285b"/>
        <path id="Path_4922" data-name="Path 4922" d="M55.79,12.058a.971.971,0,0,1-.566-1.212c.169-.522.626-.609,1.1-.663.609-.069,1.211-.185,1.821-.246.76-.077,1.173.319,1.107,1.075-.053.608-.167,1.211-.24,1.817-.06.491-.147.975-.7,1.142a.982.982,0,0,1-1.185-.557c-1.219,1.012-1.57,1.123-2.03.65s-.336-.867.689-2.006" transform="translate(-8.612 -1.559)" fill="#20285b"/>
        <path id="Path_4923" data-name="Path 4923" d="M12.1,13.406a.984.984,0,0,1-1.2.564c-.524-.16-.625-.617-.685-1.091-.072-.568-.173-1.134-.233-1.7-.1-.944.282-1.327,1.217-1.223.571.063,1.136.169,1.706.233.478.054.933.145,1.1.67a.952.952,0,0,1-.561,1.195c.442.625,1.517,1.134.652,2s-1.382-.2-2-.642" transform="translate(-1.566 -1.56)" fill="#20285b"/>
        <path id="Path_4924" data-name="Path 4924" d="M12.1,55.663c1.178-1,1.568-1.126,2.029-.65s.325.878-.671,1.988c.1.078.2.148.288.234a.89.89,0,0,1-.4,1.563,19.989,19.989,0,0,1-2.444.346.836.836,0,0,1-.935-.97c.047-.647.165-1.288.246-1.933.061-.488.136-.973.7-1.137a.984.984,0,0,1,1.184.56" transform="translate(-1.565 -8.596)" fill="#20285b"/>
        <path id="Path_4925" data-name="Path 4925" d="M55.786,57.02c-1.009-1.152-1.136-1.533-.692-2,.464-.488.884-.358,2.03.642.066-.088.112-.217.2-.253.3-.125.646-.348.917-.286a1.063,1.063,0,0,1,.666.661,16.574,16.574,0,0,1,.355,2.379.847.847,0,0,1-.981.98c-.687-.052-1.368-.169-2.052-.261-.455-.062-.88-.189-1.013-.7a.964.964,0,0,1,.573-1.161" transform="translate(-8.613 -8.596)" fill="#20285b"/>
        <path id="Path_4926" data-name="Path 4926" d="M38.844,41.057c0,1.932,0,3.789,0,5.647a2.819,2.819,0,0,1-3.1,3.109A3.4,3.4,0,0,1,33.3,49.1a3.711,3.711,0,0,1-3.131.673,2.708,2.708,0,0,1-2.4-2.728c-.016-1.764,0-3.529,0-5.293v-.692c-.457,0-.873.008-1.289,0a2.361,2.361,0,0,1-2.4-2.419c-.012-2.166-.02-4.335,0-6.5A5.835,5.835,0,0,1,27.5,26.918l1.044,1.489-.418.234a3.992,3.992,0,0,0-2.191,3.6c-.029,2.052-.009,4.1-.007,6.156,0,.669.142.809.806.817.323,0,.646,0,1.039,0v-2.5c0-.441,0-.883,0-1.323,0-.835.319-1.251.937-1.241.6.009.905.419.908,1.215,0,1.074,0,2.148,0,3.222v.593H37V37.262c0-.672-.005-1.343,0-2.014.007-.689.345-1.088.91-1.094s.927.4.931,1.074c.008,1.3,0,2.6,0,3.981a6.57,6.57,0,0,0,1.327-.027.785.785,0,0,0,.495-.561c.031-2.244.077-4.491-.013-6.731a3.811,3.811,0,0,0-2.117-3.226c-.146-.083-.3-.151-.469-.235L39.12,26.9a5.844,5.844,0,0,1,3.292,4.212,6.015,6.015,0,0,1,.118,1.2q.016,3.107,0,6.214a2.38,2.38,0,0,1-2.522,2.529c-.363,0-.726,0-1.168,0m-9.226.023c0,2.015-.008,3.965.005,5.914a.913.913,0,0,0,.981.967c.211.01.421.005.632,0,.82-.011,1.144-.33,1.146-1.155q.008-2.669,0-5.338a3.639,3.639,0,0,0-.041-.39Zm7.377.019H34.233c0,2.01-.01,3.978.006,5.946a.891.891,0,0,0,.915.913,7.125,7.125,0,0,0,.92,0,.891.891,0,0,0,.915-.915c.017-1.968.007-3.936.007-5.945" transform="translate(-3.78 -4.224)" fill="#20285b"/>
        <path id="Path_4927" data-name="Path 4927" d="M29.454,21.3a15.4,15.4,0,0,1,.323-2.261,4.595,4.595,0,0,1,8.976,1.222,15.611,15.611,0,0,1-.091,2.81,4.543,4.543,0,0,1-4.819,3.8,4.627,4.627,0,0,1-4.3-4.52c-.008-.345,0-.69,0-1.035l-.087-.012m7.464.066c0-.345.011-.69,0-1.034a2.765,2.765,0,0,0-5.527.021c-.019.67-.021,1.342,0,2.012a2.764,2.764,0,0,0,5.523.035c.017-.344,0-.69,0-1.034" transform="translate(-4.625 -2.484)" fill="#20285b"/>
      </g>
    </g>
  </g>
</svg>
