<svg xmlns="http://www.w3.org/2000/svg" width="97" height="97" viewBox="0 0 97 97">
  <g id="protection-ico_" data-name="protection-ico " transform="translate(-791 -205)">
    <circle id="Ellipse_249" data-name="Ellipse 249" cx="48.5" cy="48.5" r="48.5" transform="translate(791 205)" fill="#838ea4" opacity="0.2"/>
    <g id="shield" transform="translate(817.427 228.586)">
      <path id="Path_4971" data-name="Path 4971" d="M216.751,98.814a.718.718,0,0,0,1.082-.123l4.732-7.142a.711.711,0,1,0-1.185-.786L217.116,97.2l-2.37-2.25a.711.711,0,1,0-.979,1.031l2.984,2.833Zm0,0" transform="translate(-193.302 -81.419)" fill="#20285b"/>
      <path id="Path_4972" data-name="Path 4972" d="M126.577,28.239a1.053,1.053,0,0,0,.436.1h.006a1.04,1.04,0,0,0,.441-.1C138.271,23.092,140.1,12,140.407,8.721a1.7,1.7,0,0,0-1.048-1.734,6.213,6.213,0,0,1-3.818-5.215A1.4,1.4,0,0,0,134.147.5h-.009L119.573.585a1.393,1.393,0,0,0-1.387,1.3,6.215,6.215,0,0,1-3.762,5.252A1.694,1.694,0,0,0,113.4,8.879c.342,3.274,2.3,14.346,13.175,19.36Zm-11.594-19.8a7.63,7.63,0,0,0,4.62-6.436l14.524-.085A7.631,7.631,0,0,0,138.814,8.3a.286.286,0,0,1,.178.29c-.285,3.072-1.991,13.429-11.981,18.282C116.963,22.137,115.137,11.8,114.815,8.731a.28.28,0,0,1,.167-.288Zm0,0" transform="translate(-102.643)" fill="#20285b"/>
      <path id="Path_4973" data-name="Path 4973" d="M143.784,38a.75.75,0,0,0,.873.5.712.712,0,0,0,.5-.872c-.181-.667-.333-1.344-.453-2.014a10,10,0,0,0,4.068-5.331l10.268-.06a10,10,0,0,0,4.13,5.283c-.111.672-.256,1.351-.43,2.021a.711.711,0,1,0,1.377.357c.2-.787.37-1.585.493-2.373a1.087,1.087,0,0,0-.512-1.1,8.581,8.581,0,0,1-3.773-4.837,1.1,1.1,0,0,0-1.045-.771h-.007l-10.75.063a1.1,1.1,0,0,0-1.042.784,8.581,8.581,0,0,1-3.716,4.881,1.087,1.087,0,0,0-.5,1.109c.133.786.307,1.582.52,2.365Zm0,0" transform="translate(-129.669 -25.614)" fill="#20285b"/>
      <path id="Path_4974" data-name="Path 4974" d="M177.58,147.588a.711.711,0,0,0-.928.386,17.909,17.909,0,0,1-7.733,9,17.916,17.916,0,0,1-7.844-8.926.711.711,0,0,0-1.309.557,19.287,19.287,0,0,0,8.633,9.706,1.089,1.089,0,0,0,1.055-.006,19.281,19.281,0,0,0,8.513-9.791.71.71,0,0,0-.386-.928Zm0,0" transform="translate(-144.568 -133.095)" fill="#20285b"/>
      <path id="Path_4975" data-name="Path 4975" d="M24.1,384.273a2.515,2.515,0,1,0,2.516,2.515A2.518,2.518,0,0,0,24.1,384.273Zm0,3.609a1.094,1.094,0,1,1,1.094-1.094A1.095,1.095,0,0,1,24.1,387.882Zm0,0" transform="translate(-19.539 -347.393)" fill="#20285b"/>
      <path id="Path_4976" data-name="Path 4976" d="M48.027,243.9a2.962,2.962,0,0,0-4.09-.791l-9.295,6.221-1.984-.111-.051-.508a4.315,4.315,0,0,0-3.7-3.855l-.037,0-10.015-.878c-.339-.053-1.423-.364-4.4-2.074a11.06,11.06,0,0,0-5.067-1.458v-1.86a1.694,1.694,0,0,0-1.693-1.693h-6A1.7,1.7,0,0,0,0,238.584V256.9A1.7,1.7,0,0,0,1.693,258.6h6A1.7,1.7,0,0,0,9.386,256.9v-.5l8.755,3.315a4.9,4.9,0,0,0,2.037.15l14.547-2.1.011,0a7.152,7.152,0,0,0,3.39-1.519l.026-.022,9.395-8.45a2.962,2.962,0,0,0,.481-3.872ZM46.6,246.714l-9.385,8.441a5.73,5.73,0,0,1-2.7,1.2l-14.536,2.1-.013,0H19.96a3.193,3.193,0,0,1-1.346-.086l-9.228-3.495v-8.12a.711.711,0,0,0-1.422,0V256.9a.271.271,0,0,1-.271.271h-6a.271.271,0,0,1-.271-.271V238.584a.271.271,0,0,1,.271-.271h6a.271.271,0,0,1,.271.271v4.963a.711.711,0,0,0,1.422,0v-1.679a9.63,9.63,0,0,1,4.36,1.268c3.595,2.061,4.6,2.2,4.928,2.25l.037,0,10.016.878a2.9,2.9,0,0,1,2.465,2.585l.038.379-13.41.828-.027,0a1.621,1.621,0,0,1-1.106-.579.711.711,0,1,0-1.092.911,3.079,3.079,0,0,0,2.071,1.085c.439.046,14.345-.866,14.345-.866l2.788.157a.709.709,0,0,0,.435-.119l9.494-6.354a1.533,1.533,0,0,1,1.869,2.422Zm0,0" transform="translate(0 -213.982)" fill="#20285b"/>
    </g>
  </g>
</svg>
