<svg xmlns="http://www.w3.org/2000/svg" xmlns:xlink="http://www.w3.org/1999/xlink" width="97" height="97" viewBox="0 0 97 97">
  <defs>
    <clipPath id="clip-path">
      <rect id="Rectangle_2705" data-name="Rectangle 2705" width="41.016" height="52.4" fill="#20285b"/>
    </clipPath>
  </defs>
  <g id="resourceful-ico" transform="translate(-870 -1758)">
    <circle id="Ellipse_241" data-name="Ellipse 241" cx="48.5" cy="48.5" r="48.5" transform="translate(870 1758)" fill="#838ea4" opacity="0.2"/>
    <g id="Group_9857" data-name="Group 9857" transform="translate(898.65 1779.85)">
      <g id="Group_9856" data-name="Group 9856" clip-path="url(#clip-path)">
        <path id="Path_4899" data-name="Path 4899" d="M25.911,0A2.656,2.656,0,0,1,27.66,1.777c.077.28,1.108.581,1.387.454a2.3,2.3,0,0,1,2.812.488c.453.441.9.885,1.34,1.34a2.27,2.27,0,0,1,.439,2.687,1.344,1.344,0,0,0,.633,1.5,2.3,2.3,0,0,1,1.584,2.218c.01.665.011,1.331,0,2a2.293,2.293,0,0,1-1.559,2.184,1.322,1.322,0,0,0-.643,1.531,2.239,2.239,0,0,1-.4,2.606c-.47.518-.979,1-1.483,1.486a2.37,2.37,0,0,1-2.22.607,1.715,1.715,0,0,0,1.223,2.03c1.855.734,3.717,1.452,5.576,2.178,1.033.4,2.071.793,3.1,1.216a4.73,4.73,0,0,1,3.154,4.64c.034,3.513.012,7.027,0,10.541a1.4,1.4,0,0,1-.179.456c-.106-.129-.261-.242-.31-.39a5.077,5.077,0,0,0-1.041-2.084c-.1-.109-.1-.349-.1-.528-.006-2.593,0-5.185,0-7.778a3.251,3.251,0,0,0-2.313-3.415c-2.681-1.057-5.369-2.1-8.048-3.157a.473.473,0,0,0-.644.158c-1.566,1.849-3.148,3.686-4.724,5.527-.631.737-1.015.755-1.679.067q-2.578-2.672-5.147-5.353a.608.608,0,0,0-.784-.193c-2.534,1.011-5.08,1.993-7.62,2.99a3.23,3.23,0,0,0-2.214,3.278c0,2.626.006,5.253-.013,7.88a2,2,0,0,1-.257.726c-.283.632-.571,1.262-.874,1.885a2.156,2.156,0,0,1-.315.388,1.426,1.426,0,0,1-.176-.459c-.01-3.531-.02-7.061,0-10.592a4.8,4.8,0,0,1,3.209-4.6q4.287-1.681,8.574-3.361a1.788,1.788,0,0,0,1.307-1.995,4.527,4.527,0,0,1-1.147-.071,3.478,3.478,0,0,1-1.142-.637,17.831,17.831,0,0,1-1.386-1.364,2.264,2.264,0,0,1-.445-2.727,1.391,1.391,0,0,0-.621-1.47,2.292,2.292,0,0,1-1.607-2.251q-.011-.972,0-1.944a2.293,2.293,0,0,1,1.537-2.2A1.3,1.3,0,0,0,15.08,6.7a2.263,2.263,0,0,1,.432-2.6c.471-.495.958-.974,1.449-1.448a2.286,2.286,0,0,1,2.692-.442c.314.146,1.345-.129,1.43-.431A2.667,2.667,0,0,1,22.835,0ZM15.939,13.131l1.3,3.113a4.459,4.459,0,0,0-.4.334c-.458.459-.459.762-.013,1.218.274.28.555.555.833.832.907.9.97.905,1.883.04a.9.9,0,0,1,.093-.078c.847.346,1.631.721,2.453.98.454.143.629.305.6.793-.036.689.219.9.925.905.427,0,.854,0,1.281,0,1.027,0,1.141-.12,1.192-1.127a.6.6,0,0,1,.259-.453c.906-.373,1.829-.708,2.863-1.1a2.741,2.741,0,0,0,.27.338c.5.494.808.494,1.3.014.292-.286.581-.578.871-.867.82-.818.82-.916,0-1.765-.059-.061-.112-.127-.114-.13l1.27-3.045c.122,0,.309,0,.5,0,.71-.01.914-.211.917-.914,0-.563.01-1.126,0-1.688a.694.694,0,0,0-.752-.778c-.252-.016-.505,0-.658,0L31.5,6.642a3.13,3.13,0,0,0,.4-.31c.475-.474.471-.771,0-1.255-.395-.4-.791-.8-1.2-1.191s-.72-.394-1.149.009c-.17.16-.339.323-.436.415-.855-.353-1.623-.736-2.432-.98-.482-.145-.648-.325-.624-.821.033-.66-.219-.866-.9-.87-.427,0-.854,0-1.281,0-1.078,0-1.157.086-1.217,1.147a.584.584,0,0,1-.281.428c-.893.369-1.8.7-2.7,1.046l-.063.194a4.417,4.417,0,0,0-.4-.535c-.44-.44-.745-.442-1.182-.019s-.875.862-1.3,1.3a.646.646,0,0,0-.009,1,3.982,3.982,0,0,0,.534.417l-1.3,3.133c-.141,0-.36-.007-.579,0-.6.021-.83.252-.836.852s-.006,1.193,0,1.79a.667.667,0,0,0,.728.738c.254.007.508,0,.679,0M27.75,20.988a2.62,2.62,0,0,1-3.019,1.921c-.374-.023-.75,0-1.126,0a2.37,2.37,0,0,1-2.508-1.76,2.6,2.6,0,0,0-.165-.266A3.7,3.7,0,0,1,19.6,23.872l4.731,4.915,4.48-5.229a3.948,3.948,0,0,1-1.065-2.57" transform="translate(-3.864)" fill="#20285b"/>
        <path id="Path_4900" data-name="Path 4900" d="M34.684,96.273c.649,0,1.3-.017,1.948.007a.481.481,0,0,0,.573-.412c.372-1.275.778-2.54,1.173-3.807a1.663,1.663,0,0,1,3.283-.021c.385,1.236.788,2.466,1.134,3.712.122.438.329.539.749.53,1.213-.026,2.426-.013,3.64-.008A1.678,1.678,0,0,1,48.95,97.39a1.661,1.661,0,0,1-.719,1.957c-1.015.78-2.026,1.566-3.061,2.32a.621.621,0,0,0-.278.834c.428,1.275.807,2.566,1.2,3.853a1.651,1.651,0,0,1-2.66,1.839c-1.021-.772-2.045-1.54-3.052-2.332a.468.468,0,0,0-.7-.011c-1,.793-2.031,1.559-3.052,2.331a1.656,1.656,0,0,1-2.669-1.858c.394-1.286.777-2.576,1.2-3.852a.594.594,0,0,0-.269-.794c-1.048-.765-2.072-1.561-3.1-2.351a1.638,1.638,0,0,1-.7-1.915,1.672,1.672,0,0,1,1.751-1.137c.615,0,1.23,0,1.845,0m9.77,10.638.075-.067c-.521-1.688-1.033-3.379-1.571-5.062a.483.483,0,0,1,.2-.638c1.257-.939,2.5-1.9,3.747-2.849.124-.095.236-.206.438-.385H41.768l-1.693-5.424-.115.016-1.684,5.407H32.658c.263.208.393.315.527.417,1.207.921,2.405,1.853,3.628,2.752a.6.6,0,0,1,.245.807c-.456,1.39-.879,2.791-1.311,4.189-.082.264-.15.531-.259.917,1.407-1.071,2.725-2.042,4-3.064a.707.707,0,0,1,1.072,0c1.277,1.021,2.593,1.994,3.893,2.985" transform="translate(-19.514 -57.069)" fill="#20285b"/>
        <path id="Path_4901" data-name="Path 4901" d="M8.435,111.765c.694,0,1.359,0,2.023,0a1.633,1.633,0,0,1,1.756,1.115,1.66,1.66,0,0,1-.738,1.948c-.445.345-.886.7-1.346,1.021a.5.5,0,0,0-.229.681c.225.624.406,1.264.589,1.9a1.635,1.635,0,0,1-2.576,1.788,15.237,15.237,0,0,1-1.338-1.031c-.33-.3-.56-.246-.866.02-.412.357-.858.676-1.3,1a1.637,1.637,0,0,1-2.587-1.8c.185-.638.37-1.276.589-1.9a.479.479,0,0,0-.214-.641c-.5-.356-.985-.735-1.469-1.113a1.631,1.631,0,0,1,.991-2.983c.6-.008,1.2-.015,1.794,0a.4.4,0,0,0,.472-.339c.172-.606.358-1.208.549-1.808a1.653,1.653,0,0,1,3.228-.022c.23.711.444,1.426.673,2.164m2.069,1.742-.05-.111c-.9,0-1.808-.029-2.71.012-.436.02-.591-.144-.692-.533-.17-.658-.393-1.3-.6-1.951-.082-.26-.172-.519-.259-.778a23.94,23.94,0,0,0-.861,2.444c-.25.806-.25.806-1.09.806H1.827a18.836,18.836,0,0,0,2.167,1.77.642.642,0,0,1,.286.877c-.32.906-.579,1.833-.908,2.9.9-.681,1.676-1.255,2.433-1.858a.468.468,0,0,1,.7,0c.753.6,1.533,1.174,2.43,1.855-.337-1.085-.612-2.026-.926-2.954a.559.559,0,0,1,.232-.759c.772-.548,1.511-1.143,2.263-1.718" transform="translate(0 -68.187)" fill="#20285b"/>
        <path id="Path_4902" data-name="Path 4902" d="M80.042,111.77c1.326,0,1.326,0,1.723-1.27.117-.374.215-.755.357-1.119a1.628,1.628,0,0,1,3.046-.006,15.137,15.137,0,0,1,.544,1.755c.117.491.325.712.866.652a11.948,11.948,0,0,1,1.588-.009,1.621,1.621,0,0,1,1,2.9c-.518.419-1.049.821-1.587,1.213a.46.46,0,0,0-.193.6c.219.645.416,1.3.6,1.952a1.633,1.633,0,0,1-2.542,1.8c-.514-.367-1.014-.753-1.506-1.149a.389.389,0,0,0-.577,0c-.463.377-.941.736-1.422,1.09a1.643,1.643,0,0,1-2.607-1.833,15.91,15.91,0,0,1,.492-1.558.754.754,0,0,0-.338-1.1,12.68,12.68,0,0,1-1.269-.951,1.632,1.632,0,0,1,1.005-2.98c.273-.005.546,0,.82,0m6.382,7.172c-.258-.836-.468-1.526-.683-2.216-.373-1.2-.374-1.2.6-1.947.283-.219.57-.433.854-.652s.541-.422.928-.725H85.914c-1.2,0-1.2,0-1.554-1.147-.217-.7-.441-1.4-.661-2.1a17.642,17.642,0,0,0-.931,2.676c-.123.482-.348.6-.813.581-.875-.037-1.753-.011-2.63-.011a16.956,16.956,0,0,0,2.155,1.762.662.662,0,0,1,.279.922c-.314.892-.567,1.805-.892,2.861.865-.657,1.619-1.2,2.339-1.79a.568.568,0,0,1,.868-.017c.718.6,1.478,1.14,2.35,1.8" transform="translate(-48.784 -68.192)" fill="#20285b"/>
        <path id="Path_4903" data-name="Path 4903" d="M41.191,22.134A5.243,5.243,0,1,1,46.42,27.4a5.248,5.248,0,0,1-5.229-5.264m8.847.041a3.6,3.6,0,1,0-3.629,3.588,3.607,3.607,0,0,0,3.629-3.588" transform="translate(-25.93 -10.64)" fill="#20285b"/>
      </g>
    </g>
  </g>
</svg>
