<svg xmlns="http://www.w3.org/2000/svg" width="97" height="97" viewBox="0 0 97 97">
  <g id="risk-management-ico" transform="translate(-1098 -205)">
    <circle id="Ellipse_248" data-name="Ellipse 248" cx="48.5" cy="48.5" r="48.5" transform="translate(1098 205)" fill="#838ea4" opacity="0.2"/>
    <g id="risk" transform="translate(1121.502 227.791)">
      <path id="Path_4993" data-name="Path 4993" d="M8.229,47.972,41.765,48a3.2,3.2,0,0,0,2.817-1.634,3.12,3.12,0,0,0-.041-3.182L35.775,28.51c.125-.133.25-.251.374-.394l2.814.806a1.377,1.377,0,0,0,1.554-.582c.16-.24.7-1.163.818-1.4a1.386,1.386,0,0,0-.266-1.668l-2.1-2.011a14.808,14.808,0,0,0,.53-1.977l2.854-.7A1.4,1.4,0,0,0,43.4,19.3c.009-.143.01-.522.01-.91s0-.767-.009-.89a1.415,1.415,0,0,0-1.072-1.3l-2.828-.7a14.792,14.792,0,0,0-.53-1.976l2.1-2.009a1.382,1.382,0,0,0,.278-1.65c-.134-.257-.668-1.177-.8-1.379a1.392,1.392,0,0,0-1.583-.621l-2.81.806A13.824,13.824,0,0,0,34.7,7.231l.806-2.8a1.4,1.4,0,0,0-.6-1.572c-.235-.142-1.142-.67-1.38-.792a1.393,1.393,0,0,0-1.673.263L29.816,4.418a14.219,14.219,0,0,0-1.988-.53L27.116,1.04a1.406,1.406,0,0,0-1.3-1.034C25.548,0,24.476,0,24.2.007a1.414,1.414,0,0,0-1.3,1.061l-.7,2.821a14.2,14.2,0,0,0-1.988.53L18.181,2.332a1.39,1.39,0,0,0-1.657-.276c-.258.133-1.164.66-1.416.813a1.4,1.4,0,0,0-.588,1.566l.8,2.793a13.845,13.845,0,0,0-1.452,1.446l-2.811-.807a1.373,1.373,0,0,0-1.554.581c-.17.253-.706,1.182-.82,1.4a1.386,1.386,0,0,0,.266,1.67l2.1,2.012a14.817,14.817,0,0,0-.53,1.972l-2.854.7a1.4,1.4,0,0,0-1.046,1.276c-.008.143-.009.522-.009.91s0,.766.007.887a1.414,1.414,0,0,0,1.073,1.3l2.828.694a14.868,14.868,0,0,0,.53,1.977L8.955,25.271a1.378,1.378,0,0,0-.275,1.65c.135.262.67,1.182.8,1.381a1.388,1.388,0,0,0,1.582.619l2.81-.8c.123.142.24.274.363.4L5.46,43.15a3.12,3.12,0,0,0-.048,3.184,3.194,3.194,0,0,0,2.817,1.638Zm6.766-21.007a1.426,1.426,0,0,0-1.44-.422l-2.784.8c-.15-.246-.438-.74-.6-1.022l2.094-2.01a1.418,1.418,0,0,0,.331-1.474,13.135,13.135,0,0,1-.529-1.958,1.426,1.426,0,0,0-1.045-1.12l-2.813-.694V17.72l2.835-.7a1.413,1.413,0,0,0,1.02-1.1,13.146,13.146,0,0,1,.528-1.968,1.423,1.423,0,0,0-.344-1.485l-2.08-2c.146-.262.427-.746.6-1.021l2.792.8A1.44,1.44,0,0,0,15.013,9.8,12.473,12.473,0,0,1,16.48,8.348a1.417,1.417,0,0,0,.422-1.44l-.8-2.774c.27-.16.75-.438,1.028-.591l2.02,2.08a1.431,1.431,0,0,0,1.47.341,12.815,12.815,0,0,1,2-.531A1.44,1.44,0,0,0,23.72,4.4l.7-2.8h1.194l.706,2.822A1.44,1.44,0,0,0,27.423,5.44a12.67,12.67,0,0,1,2,.534,1.426,1.426,0,0,0,1.461-.357l2.011-2.072c.268.149.766.438,1.027.591l-.8,2.776a1.424,1.424,0,0,0,.447,1.456,12.437,12.437,0,0,1,1.458,1.454,1.431,1.431,0,0,0,1.445.423l2.784-.8c.152.246.439.741.6,1.021L37.757,12.48a1.421,1.421,0,0,0-.331,1.474,13.064,13.064,0,0,1,.525,1.954A1.428,1.428,0,0,0,39,17.029l2.814.693v1.347l-2.835.7a1.415,1.415,0,0,0-1.021,1.1,13.024,13.024,0,0,1-.528,1.968,1.428,1.428,0,0,0,.344,1.486l2.08,2c-.145.262-.426.745-.6,1.022l-2.79-.8a1.427,1.427,0,0,0-1.455.446c-.03.035-.058.064-.086.1l-1.529-2.56a10.4,10.4,0,1,0-16.774.019L15.1,27.084c-.035-.044-.067-.076-.1-.119Zm2.531-3.931a8.8,8.8,0,1,1,14.96-.024L27.8,15.164a3.242,3.242,0,0,0-5.547,0ZM6.83,43.976,23.623,15.981a1.642,1.642,0,0,1,2.8.007L43.172,44.008a1.541,1.541,0,0,1,.021,1.571,1.614,1.614,0,0,1-1.425.822L8.23,46.372a1.615,1.615,0,0,1-1.425-.824,1.54,1.54,0,0,1,.025-1.573Z" fill="#20285b"/>
      <path id="Path_4994" data-name="Path 4994" d="M29.4,42.4A2.4,2.4,0,0,0,31.8,40V30.4a2.4,2.4,0,0,0-4.8,0V40A2.4,2.4,0,0,0,29.4,42.4Zm-.8-12a.8.8,0,0,1,1.6,0V40a.8.8,0,1,1-1.6,0Z" transform="translate(-4.4 -5.6)" fill="#20285b"/>
      <path id="Path_4995" data-name="Path 4995" d="M29.4,52.8A2.4,2.4,0,1,0,27,50.4,2.4,2.4,0,0,0,29.4,52.8Zm0-3.2a.8.8,0,1,1-.8.8A.8.8,0,0,1,29.4,49.6Z" transform="translate(-4.4 -9.6)" fill="#20285b"/>
    </g>
  </g>
</svg>
