<svg xmlns="http://www.w3.org/2000/svg" xmlns:xlink="http://www.w3.org/1999/xlink" width="97" height="97" viewBox="0 0 97 97">
  <defs>
    <clipPath id="clip-path">
      <rect id="Rectangle_2710" data-name="Rectangle 2710" width="48.161" height="48.615" fill="#20285b"/>
    </clipPath>
  </defs>
  <g id="streamlined-ico" transform="translate(-1103 -1758)">
    <circle id="Ellipse_242" data-name="Ellipse 242" cx="48.5" cy="48.5" r="48.5" transform="translate(1103 1758)" fill="#838ea4" opacity="0.2"/>
    <g id="Group_9867" data-name="Group 9867" transform="translate(1128 1784.793)">
      <g id="Group_9866" data-name="Group 9866" transform="translate(0 0)" clip-path="url(#clip-path)">
        <path id="Path_4934" data-name="Path 4934" d="M65.6,0a.957.957,0,0,1,.5,1.1c-.2,1.345-.334,2.7-.492,4.049-.065.555-.38.87-.835.826-.473-.047-.724-.445-.651-1.02.086-.67.163-1.342.257-2.111-.184.168-.3.266-.407.373Q62.133,5.048,60.3,6.877c-.421.419-.877.435-1.2.061a.791.791,0,0,1,.163-1.133Q61.1,3.973,62.929,2.146c.086-.086.163-.182.305-.341-.647.087-1.2.162-1.76.235a4.847,4.847,0,0,1-.519.057.715.715,0,0,1-.8-.641.7.7,0,0,1,.618-.813c.841-.14,1.69-.236,2.535-.361C63.885.2,64.456.1,65.028,0Z" transform="translate(-17.961 0)" fill="#20285b"/>
        <path id="Path_4935" data-name="Path 4935" d="M1.1,0c1.01.158,2.02.317,3.03.471.344.053.692.083,1.034.143.506.09.785.407.744.819a.747.747,0,0,1-.925.654c-.659-.07-1.315-.173-2.086-.277.167.18.269.3.379.409,1.2,1.2,2.406,2.383,3.578,3.6a1.155,1.155,0,0,1,.294.83c-.072.573-.8.723-1.26.282-.571-.548-1.122-1.116-1.681-1.676L1.76,2.8c.092.795.161,1.453.246,2.109.079.616-.156,1.019-.642,1.066C.9,6.025.6,5.706.525,5.106.357,3.709.19,2.313.009.918A.887.887,0,0,1,.531,0Z" transform="translate(0 0)" fill="#20285b"/>
        <path id="Path_4936" data-name="Path 4936" d="M47.212,25.171a14.851,14.851,0,0,1-.131,1.981,2.716,2.716,0,0,1-2.027,2.169c-.893.266-1.8.5-2.7.74a1.719,1.719,0,0,0-1.286,1.2,13.959,13.959,0,0,1-.556,1.307,1.5,1.5,0,0,0,.081,1.491c.465.771.909,1.556,1.351,2.342a2.813,2.813,0,0,1-.468,3.637c-.6.627-1.2,1.26-1.812,1.881a2.882,2.882,0,0,1-3.566.539c-.809-.432-1.605-.886-2.4-1.346a1.7,1.7,0,0,0-1.592-.076c-.5.207-.987.422-1.485.622a1.7,1.7,0,0,0-1.014,1.231c-.227.838-.448,1.678-.677,2.517a2.892,2.892,0,0,1-2.807,2.268c-.932.04-1.868.038-2.8,0a3.021,3.021,0,0,1-2.846-2.252q-.389-1.343-.735-2.7a1.46,1.46,0,0,0-1.012-1.089c-.476-.167-.936-.38-1.4-.583a1.657,1.657,0,0,0-1.749.152c-.567.4-1.146.79-1.726,1.174a2.911,2.911,0,0,1-3.779-.348c-.654-.643-1.284-1.312-1.908-1.984a3.016,3.016,0,0,1-.435-3.522q.662-1.206,1.369-2.385A1.54,1.54,0,0,0,9.183,32.6c-.211-.459-.4-.928-.586-1.4a1.655,1.655,0,0,0-1.15-1.04c-.914-.253-1.831-.494-2.743-.751A2.906,2.906,0,0,1,2.536,26.58c-.009-.87-.008-1.741,0-2.611a2.918,2.918,0,0,1,2.178-2.88q1.321-.376,2.656-.708a1.666,1.666,0,0,0,1.256-1.164,12.987,12.987,0,0,1,.535-1.264,1.594,1.594,0,0,0-.071-1.622c-.47-.768-.909-1.555-1.35-2.342a2.886,2.886,0,0,1,.416-3.585C8.766,9.742,9.4,9.1,10.029,8.453a2.893,2.893,0,0,1,3.6-.534c.788.438,1.562.9,2.327,1.376a1.677,1.677,0,0,0,1.671.092c.477-.21.961-.4,1.442-.6a1.72,1.72,0,0,0,1.022-1.228c.227-.838.449-1.679.678-2.517a2.974,2.974,0,0,1,2.987-2.3q1.235-.014,2.469,0a3.082,3.082,0,0,1,3,2.26c.265.91.51,1.826.747,2.743a1.4,1.4,0,0,0,.9,1.018c.514.2,1.027.409,1.532.635a1.648,1.648,0,0,0,1.628-.1q1.095-.664,2.2-1.306a2.943,2.943,0,0,1,3.806.517q.882.9,1.743,1.815a3.1,3.1,0,0,1,.254,4c-.46.644-.919,1.288-1.388,1.924a1.4,1.4,0,0,0-.166,1.475c.229.537.452,1.078.681,1.615a1.649,1.649,0,0,0,1.169.952c.838.229,1.678.451,2.517.677a2.94,2.94,0,0,1,2.322,3.01c0,.4,0,.791,0,1.187h.036m-1.535.017c0-.4,0-.791,0-1.187a1.46,1.46,0,0,0-1.247-1.6c-.854-.23-1.714-.444-2.563-.69a3.1,3.1,0,0,1-2.082-1.8c-.232-.536-.46-1.074-.677-1.616a2.86,2.86,0,0,1,.308-2.881c.458-.644.926-1.283,1.386-1.926a1.609,1.609,0,0,0-.152-2.193q-.829-.881-1.68-1.744A1.446,1.446,0,0,0,36.961,9.3c-.723.423-1.439.859-2.161,1.283A2.733,2.733,0,0,1,32.622,11c-.77-.223-1.507-.557-2.259-.838A2.784,2.784,0,0,1,28.548,8.18c-.247-.915-.489-1.831-.75-2.742a1.564,1.564,0,0,0-1.575-1.192q-1.235-.009-2.469,0a1.461,1.461,0,0,0-1.548,1.194c-.229.854-.445,1.712-.689,2.563a3.122,3.122,0,0,1-1.9,2.165c-.469.188-.932.389-1.4.587a3.1,3.1,0,0,1-3-.163c-.756-.46-1.517-.914-2.287-1.352a1.392,1.392,0,0,0-1.851.26q-.911.933-1.808,1.883a1.43,1.43,0,0,0-.231,1.9q.676,1.2,1.371,2.385a2.969,2.969,0,0,1,.127,2.819c-.205.478-.4.96-.6,1.441a2.922,2.922,0,0,1-1.985,1.822q-1.348.372-2.7.734a1.435,1.435,0,0,0-1.231,1.559q-.011,1.211,0,2.421a1.424,1.424,0,0,0,1.187,1.541c.883.244,1.771.472,2.65.73a3.078,3.078,0,0,1,2.117,1.944c.169.442.355.879.551,1.31a2.989,2.989,0,0,1-.143,2.9c-.447.764-.892,1.53-1.324,2.3a1.542,1.542,0,0,0,.2,1.846c.593.637,1.193,1.268,1.808,1.883a1.44,1.44,0,0,0,1.977.19q.851-.564,1.689-1.146a3.078,3.078,0,0,1,3.149-.3c.48.2.96.406,1.445.6a2.836,2.836,0,0,1,1.816,1.981c.248.914.49,1.831.751,2.742A1.573,1.573,0,0,0,23.43,46.2q1.281.028,2.563,0A1.481,1.481,0,0,0,27.5,45c.233-.853.451-1.711.689-2.563a3.132,3.132,0,0,1,1.888-2.173c.467-.193.934-.386,1.4-.585a3.127,3.127,0,0,1,2.957.13c.752.436,1.512.859,2.273,1.279a1.445,1.445,0,0,0,1.968-.287c.584-.6,1.161-1.21,1.742-1.815a1.339,1.339,0,0,0,.238-1.841q-.663-1.177-1.349-2.343a2.99,2.99,0,0,1-.126-2.9c.175-.389.355-.777.5-1.178a3.126,3.126,0,0,1,2.223-2.08c.9-.251,1.8-.485,2.7-.74a1.388,1.388,0,0,0,1.078-1.386c.014-.443,0-.886,0-1.329" transform="translate(-0.771 -0.834)" fill="#20285b"/>
        <path id="Path_4937" data-name="Path 4937" d="M64.369,63.925c-.091-.765-.166-1.434-.252-2.1-.074-.581.165-.977.634-1.031s.782.268.852.857q.249,2.094.51,4.186a.771.771,0,0,1-.89.925q-2.137-.283-4.271-.591c-.574-.083-.848-.4-.792-.863s.4-.687.99-.619c.658.075,1.313.176,2.095.282-.173-.187-.275-.3-.385-.414q-1.809-1.812-3.62-3.624a.772.772,0,0,1-.135-1.1c.317-.375.775-.361,1.2.056q1.833,1.822,3.658,3.653c.108.108.224.207.41.379" transform="translate(-17.961 -18.154)" fill="#20285b"/>
        <path id="Path_4938" data-name="Path 4938" d="M2.889,64.97c.777-.106,1.432-.207,2.09-.282.593-.067.937.159.993.616s-.216.781-.79.864q-2.134.309-4.271.592a.772.772,0,0,1-.893-.922q.262-2.092.51-4.186c.071-.594.378-.914.849-.86s.711.449.637,1.028c-.085.669-.161,1.338-.252,2.1.183-.168.3-.266.407-.373Q4,61.725,5.826,59.9c.411-.409.831-.439,1.162-.1.315.319.269.764-.122,1.168-.065.068-.133.134-.2.2q-1.694,1.694-3.387,3.388c-.109.108-.21.225-.39.419" transform="translate(-0.003 -18.154)" fill="#20285b"/>
        <path id="Path_4939" data-name="Path 4939" d="M29.167,41.907A12.361,12.361,0,1,1,41.63,29.566,12.423,12.423,0,0,1,29.167,41.907m.028-23.237A10.877,10.877,0,1,0,40.131,29.581,10.928,10.928,0,0,0,29.195,18.67" transform="translate(-5.103 -5.238)" fill="#20285b"/>
        <path id="Path_4940" data-name="Path 4940" d="M28.192,29.265c-1.464-2.506-1.272-4.6.544-6.1a4.257,4.257,0,0,1,5.9,6.1c.163.04.3.079.446.109a4.686,4.686,0,0,1,3.674,4.859,3.049,3.049,0,0,1-2.937,2.823c-2.926.03-5.852.035-8.777,0a3.143,3.143,0,0,1-2.9-3.938,4.653,4.653,0,0,1,3.742-3.755c.1-.021.2-.06.311-.092m3.183,6.3c1.424,0,2.848.01,4.271,0a1.606,1.606,0,0,0,1.64-1.658,3.162,3.162,0,0,0-3.072-3.124q-2.752-.04-5.506,0a3.108,3.108,0,0,0-3.118,2.753,1.634,1.634,0,0,0,1.749,2.033c1.345,0,2.69,0,4.034,0m.055-6.379a2.747,2.747,0,1,0-2.759-2.73,2.748,2.748,0,0,0,2.759,2.73" transform="translate(-7.336 -6.77)" fill="#20285b"/>
      </g>
    </g>
  </g>
</svg>
