<svg id="subscribe-ico" xmlns="http://www.w3.org/2000/svg" xmlns:xlink="http://www.w3.org/1999/xlink" width="156.566" height="132.533" viewBox="0 0 156.566 132.533">
  <defs>
    <clipPath id="clip-path">
      <rect id="Rectangle_3030" data-name="Rectangle 3030" width="156.566" height="132.533" fill="none"/>
    </clipPath>
    <clipPath id="clip-path-5">
      <rect id="Rectangle_2977" data-name="Rectangle 2977" width="78.147" height="90.966" fill="none"/>
    </clipPath>
    <clipPath id="clip-path-6">
      <rect id="Rectangle_2979" data-name="Rectangle 2979" width="52.826" height="9.045" fill="none"/>
    </clipPath>
    <clipPath id="clip-path-8">
      <rect id="Rectangle_3006" data-name="Rectangle 3006" width="6.819" height="7.176" fill="none"/>
    </clipPath>
    <clipPath id="clip-path-9">
      <rect id="Rectangle_3007" data-name="Rectangle 3007" width="6.076" height="7.798" fill="none"/>
    </clipPath>
    <clipPath id="clip-path-10">
      <rect id="Rectangle_3008" data-name="Rectangle 3008" width="7.184" height="4.566" fill="none"/>
    </clipPath>
    <clipPath id="clip-path-11">
      <rect id="Rectangle_3009" data-name="Rectangle 3009" width="6.336" height="5.262" fill="none"/>
    </clipPath>
    <clipPath id="clip-path-12">
      <rect id="Rectangle_3010" data-name="Rectangle 3010" width="5.805" height="4.333" fill="none"/>
    </clipPath>
    <clipPath id="clip-path-14">
      <rect id="Rectangle_3012" data-name="Rectangle 3012" width="3.643" height="5.071" fill="none"/>
    </clipPath>
    <clipPath id="clip-path-15">
      <rect id="Rectangle_3013" data-name="Rectangle 3013" width="4.159" height="3.936" fill="none"/>
    </clipPath>
    <clipPath id="clip-path-16">
      <rect id="Rectangle_3014" data-name="Rectangle 3014" width="15.8" height="12.138" fill="none"/>
    </clipPath>
    <clipPath id="clip-path-18">
      <rect id="Rectangle_3016" data-name="Rectangle 3016" width="18.742" height="20.425" fill="none"/>
    </clipPath>
    <clipPath id="clip-path-20">
      <rect id="Rectangle_3018" data-name="Rectangle 3018" width="19.382" height="23.599" fill="none"/>
    </clipPath>
    <clipPath id="clip-path-21">
      <rect id="Rectangle_3019" data-name="Rectangle 3019" width="2.98" height="3.044" fill="none"/>
    </clipPath>
    <clipPath id="clip-path-22">
      <rect id="Rectangle_3020" data-name="Rectangle 3020" width="3.355" height="3.198" fill="none"/>
    </clipPath>
    <clipPath id="clip-path-23">
      <rect id="Rectangle_3021" data-name="Rectangle 3021" width="3.509" height="6.266" fill="none"/>
    </clipPath>
    <clipPath id="clip-path-24">
      <rect id="Rectangle_3022" data-name="Rectangle 3022" width="22.753" height="60.183" fill="none"/>
    </clipPath>
    <clipPath id="clip-path-25">
      <rect id="Rectangle_3023" data-name="Rectangle 3023" width="2.181" height="3.643" fill="none"/>
    </clipPath>
    <clipPath id="clip-path-26">
      <rect id="Rectangle_3024" data-name="Rectangle 3024" width="4.006" height="11.481" fill="none"/>
    </clipPath>
    <clipPath id="clip-path-27">
      <rect id="Rectangle_3025" data-name="Rectangle 3025" width="3.76" height="10.603" fill="none"/>
    </clipPath>
    <clipPath id="clip-path-28">
      <rect id="Rectangle_3026" data-name="Rectangle 3026" width="2.342" height="4.76" fill="none"/>
    </clipPath>
    <clipPath id="clip-path-29">
      <rect id="Rectangle_3027" data-name="Rectangle 3027" width="1.977" height="14.478" fill="none"/>
    </clipPath>
    <clipPath id="clip-path-30">
      <rect id="Rectangle_3028" data-name="Rectangle 3028" width="2.673" height="8.313" fill="none"/>
    </clipPath>
  </defs>
  <g id="Group_10193" data-name="Group 10193" clip-path="url(#clip-path)">
    <rect id="Rectangle_2917" data-name="Rectangle 2917" width="57.327" height="84.048" transform="translate(17.864 30.108)" fill="#f0f0f0"/>
    <rect id="Rectangle_2918" data-name="Rectangle 2918" width="53.274" height="15.523" transform="translate(19.89 32.753)" fill="#e0e0e0"/>
    <rect id="Rectangle_2919" data-name="Rectangle 2919" width="3.026" height="13.01" transform="translate(19.89 35.266)" fill="#ebebeb"/>
    <rect id="Rectangle_2920" data-name="Rectangle 2920" width="3.026" height="13.01" transform="translate(34.524 35.266)" fill="#ebebeb"/>
    <rect id="Rectangle_2921" data-name="Rectangle 2921" width="3.026" height="13.01" transform="translate(51.18 35.456) rotate(-9.778)" fill="#ebebeb"/>
    <rect id="Rectangle_2922" data-name="Rectangle 2922" width="3.026" height="11.295" transform="translate(23.64 36.981)" fill="#ebebeb"/>
    <rect id="Rectangle_2923" data-name="Rectangle 2923" width="3.026" height="11.295" transform="translate(30.596 36.981)" fill="#ebebeb"/>
    <rect id="Rectangle_2924" data-name="Rectangle 2924" width="3.026" height="11.295" transform="translate(48.153 36.981)" fill="#ebebeb"/>
    <rect id="Rectangle_2925" data-name="Rectangle 2925" width="3.026" height="11.295" transform="translate(38.57 37.25) rotate(-12.529)" fill="#ebebeb"/>
    <rect id="Rectangle_2926" data-name="Rectangle 2926" width="1.513" height="13.656" transform="translate(27.77 34.621)" fill="#ebebeb"/>
    <rect id="Rectangle_2927" data-name="Rectangle 2927" width="1.513" height="13.656" transform="translate(45.77 34.621)" fill="#ebebeb"/>
    <rect id="Rectangle_2928" data-name="Rectangle 2928" width="53.274" height="15.523" transform="translate(19.89 50.735)" fill="#e0e0e0"/>
    <rect id="Rectangle_2929" data-name="Rectangle 2929" width="3.026" height="13.01" transform="translate(70.138 53.247)" fill="#ebebeb"/>
    <rect id="Rectangle_2930" data-name="Rectangle 2930" width="3.026" height="13.01" transform="translate(55.504 53.247)" fill="#ebebeb"/>
    <rect id="Rectangle_2931" data-name="Rectangle 2931" width="13.01" height="3.026" transform="matrix(0.17, -0.985, 0.985, 0.17, 36.682, 65.743)" fill="#ebebeb"/>
    <rect id="Rectangle_2932" data-name="Rectangle 2932" width="3.027" height="11.295" transform="translate(66.388 54.962)" fill="#ebebeb"/>
    <rect id="Rectangle_2933" data-name="Rectangle 2933" width="3.027" height="11.295" transform="translate(59.432 54.962)" fill="#ebebeb"/>
    <rect id="Rectangle_2934" data-name="Rectangle 2934" width="3.026" height="11.295" transform="translate(41.874 54.962)" fill="#ebebeb"/>
    <rect id="Rectangle_2935" data-name="Rectangle 2935" width="11.295" height="3.026" transform="translate(49.079 65.601) rotate(-77.471)" fill="#ebebeb"/>
    <rect id="Rectangle_2936" data-name="Rectangle 2936" width="1.513" height="13.656" transform="translate(63.771 52.602)" fill="#ebebeb"/>
    <rect id="Rectangle_2937" data-name="Rectangle 2937" width="1.513" height="13.656" transform="translate(45.77 52.602)" fill="#ebebeb"/>
    <rect id="Rectangle_2938" data-name="Rectangle 2938" width="3.026" height="13.01" transform="translate(19.89 53.247)" fill="#ebebeb"/>
    <rect id="Rectangle_2939" data-name="Rectangle 2939" width="3.026" height="11.295" transform="translate(23.64 54.962)" fill="#ebebeb"/>
    <rect id="Rectangle_2940" data-name="Rectangle 2940" width="3.026" height="11.295" transform="translate(30.596 54.962)" fill="#ebebeb"/>
    <rect id="Rectangle_2941" data-name="Rectangle 2941" width="1.513" height="13.656" transform="translate(27.77 52.602)" fill="#ebebeb"/>
    <rect id="Rectangle_2942" data-name="Rectangle 2942" width="53.274" height="15.523" transform="translate(19.89 68.715)" fill="#e0e0e0"/>
    <rect id="Rectangle_2943" data-name="Rectangle 2943" width="3.026" height="13.01" transform="translate(50.468 71.228)" fill="#ebebeb"/>
    <rect id="Rectangle_2944" data-name="Rectangle 2944" width="3.026" height="13.01" transform="translate(67.124 71.417) rotate(-9.778)" fill="#ebebeb"/>
    <rect id="Rectangle_2945" data-name="Rectangle 2945" width="3.026" height="11.295" transform="translate(39.584 72.943)" fill="#ebebeb"/>
    <rect id="Rectangle_2946" data-name="Rectangle 2946" width="3.026" height="11.295" transform="translate(46.54 72.943)" fill="#ebebeb"/>
    <rect id="Rectangle_2947" data-name="Rectangle 2947" width="3.026" height="11.295" transform="translate(64.097 72.943)" fill="#ebebeb"/>
    <rect id="Rectangle_2948" data-name="Rectangle 2948" width="3.026" height="11.295" transform="translate(54.514 73.212) rotate(-12.529)" fill="#ebebeb"/>
    <rect id="Rectangle_2949" data-name="Rectangle 2949" width="1.513" height="13.656" transform="translate(43.714 70.583)" fill="#ebebeb"/>
    <rect id="Rectangle_2950" data-name="Rectangle 2950" width="1.513" height="13.656" transform="translate(61.714 70.583)" fill="#ebebeb"/>
    <rect id="Rectangle_2951" data-name="Rectangle 2951" width="3.026" height="13.01" transform="translate(32.307 71.417) rotate(-9.778)" fill="#ebebeb"/>
    <rect id="Rectangle_2952" data-name="Rectangle 2952" width="3.026" height="11.295" transform="translate(29.281 72.943)" fill="#ebebeb"/>
    <rect id="Rectangle_2953" data-name="Rectangle 2953" width="3.026" height="11.295" transform="translate(19.697 73.212) rotate(-12.529)" fill="#ebebeb"/>
    <rect id="Rectangle_2954" data-name="Rectangle 2954" width="1.513" height="13.656" transform="translate(26.897 70.583)" fill="#ebebeb"/>
    <rect id="Rectangle_2955" data-name="Rectangle 2955" width="9.89" height="84.269" transform="translate(7.974 30.108)" fill="#e0e0e0"/>
    <g id="Group_10113" data-name="Group 10113">
      <g id="Group_10112" data-name="Group 10112" clip-path="url(#clip-path)">
        <path id="Path_5280" data-name="Path 5280" d="M256.917,220.636h-8.4l4.417-35.977a3.209,3.209,0,0,1,3.1-2.758h36.664l-5.375,38.735Z" transform="translate(-148.176 -108.458)" fill="#f5f5f5"/>
        <path id="Path_5281" data-name="Path 5281" d="M335.332,220.636h8.4l4.417-35.977a2.388,2.388,0,0,0-2.419-2.758h-2.888a3.208,3.208,0,0,0-3.1,2.758Z" transform="translate(-199.941 -108.458)" fill="#f0f0f0"/>
        <path id="Path_5282" data-name="Path 5282" d="M324.051,238.469l1.523-17.4a1.658,1.658,0,0,1,1.442-1.5l.626-.08a2.225,2.225,0,0,0,1.935-2.013l.278-3.173a2.225,2.225,0,0,0-2.217-2.419h14.043A2.225,2.225,0,0,1,343.9,214.3l-.278,3.173a2.225,2.225,0,0,1-1.935,2.013l-.626.08a1.658,1.658,0,0,0-1.442,1.5l-1.523,17.4a2.456,2.456,0,0,1-2.447,2.242H321.6a2.456,2.456,0,0,0,2.447-2.242" transform="translate(-191.756 -126.334)" fill="#e6e6e6"/>
        <path id="Path_5283" data-name="Path 5283" d="M224.167,216.712a5.29,5.29,0,0,0-5.27-4.829h12.226a5.29,5.29,0,0,1,5.27,4.829l1.207,13.794H225.374Z" transform="translate(-130.517 -126.335)" fill="#e6e6e6"/>
        <path id="Path_5284" data-name="Path 5284" d="M202.16,211.883h5.43a5.291,5.291,0,0,1,5.271,4.829l1.207,13.794h29.117l1.207-13.794a5.291,5.291,0,0,1,5.271-4.829h5.43a2.225,2.225,0,0,1,2.217,2.419l-.277,3.173a2.225,2.225,0,0,1-1.935,2.013l-.626.08a1.658,1.658,0,0,0-1.443,1.5l-1.523,17.4a2.456,2.456,0,0,1-2.447,2.242H208.193a2.456,2.456,0,0,1-2.447-2.242l-1.523-17.4a1.658,1.658,0,0,0-1.442-1.5l-.626-.08a2.225,2.225,0,0,1-1.935-2.013l-.278-3.173a2.225,2.225,0,0,1,2.217-2.419" transform="translate(-119.211 -126.335)" fill="#f0f0f0"/>
        <path id="Path_5285" data-name="Path 5285" d="M40.007,41.058a5.767,5.767,0,0,1,1.7-4.839c2.15-1.89,1.961-3.015,1.347-3.162S41.876,34.8,40.93,35.32c0,0-.03-2.694.931-3.687s1.464-3.55.55-3.595-1.008,1.519-1.2,2.628a9.333,9.333,0,0,1-1.207,2.668,10.464,10.464,0,0,0-.819-3.4c-.621-.992,1.034-3.261.4-4.254s-1.772.9-1.678,3.025,1.512,4.4,1.182,6.617c0,0-.626-1.56-1.187-1.7s-1.129-1.174-1.507-1.556-.851.942,0,2.17,3.025,4.517,2.694,7.174Z" transform="translate(-21.415 -15.148)" fill="#e6e6e6"/>
        <path id="Path_5286" data-name="Path 5286" d="M42.566,60.848l.7,4.419a2.247,2.247,0,0,1-2.219,2.6H40.3a2.247,2.247,0,0,1-2.219-2.6l.7-4.419Z" transform="translate(-22.689 -36.281)" fill="#e6e6e6"/>
        <rect id="Rectangle_2956" data-name="Rectangle 2956" width="2.193" height="9.428" transform="translate(62.155 21.292)" fill="#ebebeb"/>
        <rect id="Rectangle_2957" data-name="Rectangle 2957" width="2.193" height="9.428" transform="translate(51.55 21.292)" fill="#ebebeb"/>
        <rect id="Rectangle_2958" data-name="Rectangle 2958" width="9.428" height="2.193" transform="translate(37.91 30.348) rotate(-80.217)" fill="#ebebeb"/>
        <rect id="Rectangle_2959" data-name="Rectangle 2959" width="2.193" height="8.186" transform="translate(59.438 22.535)" fill="#ebebeb"/>
        <rect id="Rectangle_2960" data-name="Rectangle 2960" width="2.193" height="8.186" transform="translate(54.397 22.535)" fill="#ebebeb"/>
        <rect id="Rectangle_2961" data-name="Rectangle 2961" width="2.193" height="8.186" transform="translate(41.673 22.535)" fill="#ebebeb"/>
        <rect id="Rectangle_2962" data-name="Rectangle 2962" width="8.186" height="2.193" transform="translate(46.895 30.245) rotate(-77.476)" fill="#ebebeb"/>
        <rect id="Rectangle_2963" data-name="Rectangle 2963" width="1.097" height="9.896" transform="translate(57.541 20.824)" fill="#ebebeb"/>
        <rect id="Rectangle_2964" data-name="Rectangle 2964" width="1.097" height="9.896" transform="translate(44.497 20.824)" fill="#ebebeb"/>
        <rect id="Rectangle_2965" data-name="Rectangle 2965" width="10.686" height="7.378" transform="translate(25.989 23.237)" fill="#ebebeb"/>
        <rect id="Rectangle_2966" data-name="Rectangle 2966" width="8.952" height="5.508" transform="translate(64.377 26.259)" fill="#ebebeb"/>
        <rect id="Rectangle_2967" data-name="Rectangle 2967" width="4.476" height="5.508" transform="translate(66.76 21.417)" fill="#ebebeb"/>
        <rect id="Rectangle_2968" data-name="Rectangle 2968" width="10.647" height="44.366" transform="translate(135.391 14.13)" fill="#e0e0e0"/>
        <rect id="Rectangle_2969" data-name="Rectangle 2969" width="39.817" height="44.483" transform="translate(105.078 14.13)" fill="#e0e0e0"/>
        <rect id="Rectangle_2970" data-name="Rectangle 2970" width="41.312" height="44.483" transform="translate(103.794 14.13)" fill="#f0f0f0"/>
        <rect id="Rectangle_2971" data-name="Rectangle 2971" width="37.849" height="41.02" transform="translate(105.558 15.549)" fill="#fff"/>
        <rect id="Rectangle_2972" data-name="Rectangle 2972" width="0.702" height="41.02" transform="translate(105.558 15.549)" fill="#e0e0e0"/>
        <rect id="Rectangle_2973" data-name="Rectangle 2973" width="37.364" height="1.106" transform="translate(106.142 45.046)" fill="#e0e0e0"/>
        <rect id="Rectangle_2974" data-name="Rectangle 2974" width="38.443" height="1.857" transform="translate(105.558 43.19)" fill="#f0f0f0"/>
      </g>
    </g>
    <g id="Group_10115" data-name="Group 10115">
      <g id="Group_10114" data-name="Group 10114" clip-path="url(#clip-path)">
        <path id="Path_5287" data-name="Path 5287" d="M156.566,310.181c0,2.525-35.048,4.572-78.283,4.572S0,312.706,0,310.181s35.048-4.572,78.283-4.572,78.283,2.047,78.283,4.572" transform="translate(0 -182.219)" fill="#f5f5f5"/>
      </g>
    </g>
    <g id="Group_10123" data-name="Group 10123">
      <g id="Group_10122" data-name="Group 10122" clip-path="url(#clip-path)">
        <path id="Path_5288" data-name="Path 5288" d="M154.8,144.484H82.562a2.954,2.954,0,0,1-2.953-2.954V56.471a2.954,2.954,0,0,1,2.953-2.954H154.8a2.954,2.954,0,0,1,2.954,2.954V141.53a2.954,2.954,0,0,1-2.954,2.954" transform="translate(-47.467 -31.909)" fill="#407bff"/>
        <g id="Group_10118" data-name="Group 10118" transform="translate(32.142 21.608)" opacity="0.6" style="isolation: isolate">
          <g id="Group_10117" data-name="Group 10117">
            <g id="Group_10116" data-name="Group 10116" clip-path="url(#clip-path-5)">
              <path id="Path_5289" data-name="Path 5289" d="M154.8,144.484H82.562a2.954,2.954,0,0,1-2.953-2.954V56.471a2.954,2.954,0,0,1,2.953-2.954H154.8a2.954,2.954,0,0,1,2.954,2.954V141.53a2.954,2.954,0,0,1-2.954,2.954" transform="translate(-79.609 -53.517)" fill="#fff"/>
            </g>
          </g>
        </g>
        <g id="Group_10121" data-name="Group 10121" transform="translate(44.802 93.951)" opacity="0.2">
          <g id="Group_10120" data-name="Group 10120">
            <g id="Group_10119" data-name="Group 10119" clip-path="url(#clip-path-6)">
              <rect id="Rectangle_2978" data-name="Rectangle 2978" width="52.826" height="9.045" transform="translate(0 0)"/>
            </g>
          </g>
        </g>
        <rect id="Rectangle_2980" data-name="Rectangle 2980" width="52.826" height="9.045" transform="translate(44.803 93.398)" fill="#407bff"/>
        <rect id="Rectangle_2981" data-name="Rectangle 2981" width="27.887" height="60.221" transform="translate(39.618 26.926)" fill="#fff"/>
        <rect id="Rectangle_2982" data-name="Rectangle 2982" width="27.887" height="60.221" transform="translate(39.618 26.926)" fill="none" stroke="#2a3856" stroke-miterlimit="10" stroke-width="1"/>
        <rect id="Rectangle_2983" data-name="Rectangle 2983" width="27.887" height="60.221" transform="translate(72.769 26.926)" fill="#fff"/>
        <rect id="Rectangle_2984" data-name="Rectangle 2984" width="27.887" height="1.742" transform="translate(39.618 26.926)" fill="#263238"/>
        <rect id="Rectangle_2985" data-name="Rectangle 2985" width="27.887" height="1.742" transform="translate(72.769 26.926)" fill="#263238"/>
        <rect id="Rectangle_2986" data-name="Rectangle 2986" width="14.772" height="2.112" transform="translate(43.866 33.947)" fill="#e0e0e0"/>
        <rect id="Rectangle_2987" data-name="Rectangle 2987" width="11.114" height="2.112" transform="translate(43.866 38.632)" fill="#e0e0e0"/>
        <rect id="Rectangle_2988" data-name="Rectangle 2988" width="16.158" height="2.112" transform="translate(43.866 43.062)" fill="#e0e0e0"/>
        <rect id="Rectangle_2989" data-name="Rectangle 2989" width="14.772" height="2.112" transform="translate(43.866 47.493)" fill="#e0e0e0"/>
        <rect id="Rectangle_2990" data-name="Rectangle 2990" width="7.314" height="2.112" transform="translate(43.866 51.924)" fill="#e0e0e0"/>
        <rect id="Rectangle_2991" data-name="Rectangle 2991" width="14.772" height="2.112" transform="translate(43.866 56.354)" fill="#e0e0e0"/>
        <rect id="Rectangle_2992" data-name="Rectangle 2992" width="12.091" height="2.112" transform="translate(43.866 60.785)" fill="#e0e0e0"/>
        <rect id="Rectangle_2993" data-name="Rectangle 2993" width="14.772" height="2.112" transform="translate(43.866 65.215)" fill="#e0e0e0"/>
        <rect id="Rectangle_2994" data-name="Rectangle 2994" width="14.772" height="2.112" transform="translate(76.406 33.947)" fill="#e0e0e0"/>
        <rect id="Rectangle_2995" data-name="Rectangle 2995" width="11.114" height="2.112" transform="translate(76.405 38.632)" fill="#e0e0e0"/>
        <rect id="Rectangle_2996" data-name="Rectangle 2996" width="16.158" height="2.112" transform="translate(76.405 43.062)" fill="#e0e0e0"/>
        <rect id="Rectangle_2997" data-name="Rectangle 2997" width="14.772" height="2.112" transform="translate(76.406 47.493)" fill="#e0e0e0"/>
        <rect id="Rectangle_2998" data-name="Rectangle 2998" width="7.314" height="2.112" transform="translate(76.405 51.924)" fill="#e0e0e0"/>
        <rect id="Rectangle_2999" data-name="Rectangle 2999" width="14.772" height="2.112" transform="translate(76.406 56.354)" fill="#e0e0e0"/>
        <rect id="Rectangle_3000" data-name="Rectangle 3000" width="12.091" height="2.112" transform="translate(76.405 60.785)" fill="#e0e0e0"/>
        <rect id="Rectangle_3001" data-name="Rectangle 3001" width="14.772" height="2.112" transform="translate(76.406 65.215)" fill="#e0e0e0"/>
        <rect id="Rectangle_3002" data-name="Rectangle 3002" width="12.091" height="2.112" transform="translate(76.405 69.646)" fill="#e0e0e0"/>
        <rect id="Rectangle_3003" data-name="Rectangle 3003" width="4.287" height="2.112" transform="translate(76.406 74.076)" fill="#e0e0e0"/>
        <rect id="Rectangle_3004" data-name="Rectangle 3004" width="14.772" height="2.112" transform="translate(76.406 78.507)" fill="#e0e0e0"/>
      </g>
    </g>
    <text id="SUBSCRIBE" transform="translate(53.869 99.483)" fill="#fff" font-size="5" font-family="MyriadPro-Bold, Myriad Pro" font-weight="700"><tspan x="0" y="0">SUBSCRIBE</tspan></text>
    <g id="Group_10152" data-name="Group 10152">
      <g id="Group_10151" data-name="Group 10151" clip-path="url(#clip-path)">
        <path id="Path_5290" data-name="Path 5290" d="M68.962,244.781s-2.673-2.228-4.965,0-2.734,16.033-2.734,16.033" transform="translate(-36.528 -145.36)" fill="none" stroke="#407bff" stroke-miterlimit="10" stroke-width="0.945"/>
        <path id="Path_5291" data-name="Path 5291" d="M54.359,258.577s1.575-16.2-4.356-23.009" transform="translate(-29.814 -140.457)" fill="none" stroke="#407bff" stroke-miterlimit="10" stroke-width="0.945"/>
        <path id="Path_5292" data-name="Path 5292" d="M61.968,255.048s-1.213-18.443,3.236-22.535" transform="translate(-36.858 -138.636)" fill="none" stroke="#407bff" stroke-miterlimit="10" stroke-width="0.945"/>
        <path id="Path_5293" data-name="Path 5293" d="M48.386,267s-.1-12.187-3.41-14.082-4.992,4.285-4.992,4.285" transform="translate(-23.841 -150.586)" fill="none" stroke="#407bff" stroke-miterlimit="10" stroke-width="0.945"/>
        <path id="Path_5294" data-name="Path 5294" d="M63.958,267.818s-.539-9.356,2.022-12.7,5.258,1.433,5.258,1.433" transform="translate(-38.107 -151.406)" fill="none" stroke="#407bff" stroke-miterlimit="10" stroke-width="0.945"/>
        <path id="Path_5295" data-name="Path 5295" d="M60.215,253.643s1.657-21.881-1.085-25.589" transform="translate(-35.256 -135.978)" fill="none" stroke="#407bff" stroke-miterlimit="10" stroke-width="0.945"/>
        <path id="Path_5296" data-name="Path 5296" d="M37.111,255.873s1.649.608,1.158,2.043-5.7,3.8-5.7,3.8-2.183-2-.178-5.256,4.678-1.61,4.723-.583" transform="translate(-18.806 -151.767)" fill="#407bff"/>
        <g id="Group_10126" data-name="Group 10126" transform="translate(12.735 102.769)" opacity="0.2" style="isolation: isolate">
          <g id="Group_10125" data-name="Group 10125">
            <g id="Group_10124" data-name="Group 10124" clip-path="url(#clip-path-8)">
              <path id="Path_5297" data-name="Path 5297" d="M37.111,255.873s1.649.608,1.158,2.043-5.7,3.8-5.7,3.8-2.183-2-.178-5.256,4.678-1.61,4.723-.583" transform="translate(-31.541 -254.535)"/>
            </g>
          </g>
        </g>
        <path id="Path_5298" data-name="Path 5298" d="M60.343,250.107s-1.756-.073-1.855,1.439,3.8,5.7,3.8,5.7,2.785-1.007,2.187-4.782-3.7-3.287-4.135-2.356" transform="translate(-34.872 -148.733)" fill="#407bff"/>
        <g id="Group_10129" data-name="Group 10129" transform="translate(23.614 100.714)" opacity="0.2" style="isolation: isolate">
          <g id="Group_10128" data-name="Group 10128">
            <g id="Group_10127" data-name="Group 10127" clip-path="url(#clip-path-9)">
              <path id="Path_5299" data-name="Path 5299" d="M60.343,250.107s-1.756-.073-1.855,1.439,3.8,5.7,3.8,5.7,2.785-1.007,2.187-4.782-3.7-3.287-4.135-2.356" transform="translate(-58.486 -249.447)"/>
            </g>
          </g>
        </g>
        <path id="Path_5300" data-name="Path 5300" d="M65.17,230.111s-1.17-.126-1.076-.839,4.549-2.548,7.178.419c0,0-1.683,2.891-4.116,2.929s-1.986-2.51-1.986-2.51" transform="translate(-38.213 -135.978)" fill="#407bff"/>
        <g id="Group_10132" data-name="Group 10132" transform="translate(25.876 92.077)" opacity="0.2" style="isolation: isolate">
          <g id="Group_10131" data-name="Group 10131">
            <g id="Group_10130" data-name="Group 10130" clip-path="url(#clip-path-10)">
              <path id="Path_5301" data-name="Path 5301" d="M65.17,230.111s-1.17-.126-1.076-.839,4.549-2.548,7.178.419c0,0-1.683,2.891-4.116,2.929s-1.986-2.51-1.986-2.51" transform="translate(-64.088 -228.055)"/>
            </g>
          </g>
        </g>
        <path id="Path_5302" data-name="Path 5302" d="M54.044,223.267s1.06.512,1.356-.143-2.513-4.568-6.313-3.441c0,0-.1,3.344,1.944,4.663s3.013-1.08,3.013-1.08" transform="translate(-29.267 -130.865)" fill="#407bff"/>
        <g id="Group_10135" data-name="Group 10135" transform="translate(19.818 88.616)" opacity="0.2" style="isolation: isolate">
          <g id="Group_10134" data-name="Group 10134">
            <g id="Group_10133" data-name="Group 10133" clip-path="url(#clip-path-11)">
              <path id="Path_5303" data-name="Path 5303" d="M54.044,223.267s1.06.512,1.356-.143-2.513-4.568-6.313-3.441c0,0-.1,3.344,1.944,4.663s3.013-1.08,3.013-1.08" transform="translate(-49.086 -219.481)"/>
            </g>
          </g>
        </g>
        <path id="Path_5304" data-name="Path 5304" d="M74.281,254.82s-.808-.652.064-.971,5.149-.228,5.193,4.009c0,0-4.981.828-5.6-.786s.341-2.253.341-2.253" transform="translate(-43.963 -151.291)" fill="#407bff"/>
        <g id="Group_10138" data-name="Group 10138" transform="translate(29.77 102.447)" opacity="0.2" style="isolation: isolate">
          <g id="Group_10137" data-name="Group 10137">
            <g id="Group_10136" data-name="Group 10136" clip-path="url(#clip-path-12)">
              <path id="Path_5305" data-name="Path 5305" d="M74.281,254.82s-.808-.652.064-.971,5.149-.228,5.193,4.009c0,0-4.981.828-5.6-.786s.341-2.253.341-2.253" transform="translate(-73.733 -253.738)"/>
            </g>
          </g>
        </g>
        <path id="Path_5306" data-name="Path 5306" d="M42.166,231.284s.808-.652-.064-.971-5.149-.228-5.193,4.009c0,0,4.981.828,5.6-.786s-.341-2.253-.341-2.253" transform="translate(-22.007 -137.258)" fill="#407bff"/>
        <g id="Group_10141" data-name="Group 10141" transform="translate(14.902 92.944)" opacity="0.2" style="isolation: isolate">
          <g id="Group_10140" data-name="Group 10140">
            <g id="Group_10139" data-name="Group 10139" clip-path="url(#clip-path-12)">
              <path id="Path_5307" data-name="Path 5307" d="M42.166,231.284s.808-.652-.064-.971-5.149-.228-5.193,4.009c0,0,4.981.828,5.6-.786s-.341-2.253-.341-2.253" transform="translate(-36.909 -230.202)"/>
            </g>
          </g>
        </g>
        <path id="Path_5308" data-name="Path 5308" d="M53.274,240.517s.071-.793-.569-.482-2.87,2.716-.558,5c0,0,3.111-2.3,2.55-3.5s-1.423-1.013-1.423-1.013" transform="translate(-30.481 -143.078)" fill="#407bff"/>
        <g id="Group_10144" data-name="Group 10144" transform="translate(20.64 96.885)" opacity="0.2" style="isolation: isolate">
          <g id="Group_10143" data-name="Group 10143">
            <g id="Group_10142" data-name="Group 10142" clip-path="url(#clip-path-14)">
              <path id="Path_5309" data-name="Path 5309" d="M53.274,240.517s.071-.793-.569-.482-2.87,2.716-.558,5c0,0,3.111-2.3,2.55-3.5s-1.423-1.013-1.423-1.013" transform="translate(-51.122 -239.963)"/>
            </g>
          </g>
        </g>
        <path id="Path_5310" data-name="Path 5310" d="M75.866,243.077s-.483-.633.224-.711,3.876.767,3.138,3.931c0,0-3.861-.29-4.026-1.6s.664-1.615.664-1.615" transform="translate(-44.827 -144.507)" fill="#407bff"/>
        <g id="Group_10147" data-name="Group 10147" transform="translate(30.354 97.853)" opacity="0.2" style="isolation: isolate">
          <g id="Group_10146" data-name="Group 10146">
            <g id="Group_10145" data-name="Group 10145" clip-path="url(#clip-path-15)">
              <path id="Path_5311" data-name="Path 5311" d="M75.866,243.077s-.483-.633.224-.711,3.876.767,3.138,3.931c0,0-3.861-.29-4.026-1.6s.664-1.615.664-1.615" transform="translate(-75.181 -242.361)"/>
            </g>
          </g>
        </g>
        <path id="Path_5312" data-name="Path 5312" d="M43.6,299.492H56.081l1.659-12.138H41.94Z" transform="translate(-25.007 -171.335)" fill="#263238"/>
        <g id="Group_10150" data-name="Group 10150" transform="translate(16.933 116.02)" opacity="0.2" style="isolation: isolate">
          <g id="Group_10149" data-name="Group 10149">
            <g id="Group_10148" data-name="Group 10148" clip-path="url(#clip-path-16)">
              <path id="Path_5313" data-name="Path 5313" d="M43.6,299.492H56.081l1.659-12.138H41.94Z" transform="translate(-41.94 -287.355)" fill="#fff"/>
            </g>
          </g>
        </g>
        <path id="Path_5314" data-name="Path 5314" d="M56.763,284.918v1.153a1.4,1.4,0,0,1-1.4,1.4H39.075a1.4,1.4,0,0,1-1.4-1.4v-1.153Z" transform="translate(-22.465 -169.882)" fill="#263238"/>
      </g>
    </g>
    <g id="Group_10157" data-name="Group 10157">
      <g id="Group_10156" data-name="Group 10156" clip-path="url(#clip-path)">
        <path id="Path_5315" data-name="Path 5315" d="M320.107,0h-11.6a3.572,3.572,0,0,0-3.572,3.572V13.666a3.571,3.571,0,0,0,3.572,3.572h3.386l-.819,3.187,3.221-3.187h5.81a3.571,3.571,0,0,0,3.572-3.572V3.572A3.572,3.572,0,0,0,320.107,0" transform="translate(-181.818)" fill="#407bff"/>
        <g id="Group_10155" data-name="Group 10155" transform="translate(123.118)" opacity="0.7">
          <g id="Group_10154" data-name="Group 10154">
            <g id="Group_10153" data-name="Group 10153" clip-path="url(#clip-path-18)">
              <path id="Path_5316" data-name="Path 5316" d="M320.107,0h-11.6a3.572,3.572,0,0,0-3.572,3.572V13.666a3.571,3.571,0,0,0,3.572,3.572h3.386l-.819,3.187,3.221-3.187h5.81a3.571,3.571,0,0,0,3.572-3.572V3.572A3.572,3.572,0,0,0,320.107,0" transform="translate(-304.936)" fill="#fff"/>
            </g>
          </g>
        </g>
        <path id="Path_5317" data-name="Path 5317" d="M325.4,12.738a5.757,5.757,0,1,1-5.757-5.757,5.757,5.757,0,0,1,5.757,5.757" transform="translate(-187.155 -4.162)" fill="#407bff"/>
        <path id="Path_5318" data-name="Path 5318" d="M322.532,20.013a.529.529,0,0,1-.4-.187l-2.259-2.662a.529.529,0,0,1,.807-.684l1.855,2.186,3.064-3.61a.529.529,0,1,1,.807.684l-3.467,4.085a.529.529,0,0,1-.4.187" transform="translate(-190.648 -8.866)" fill="#fff"/>
      </g>
    </g>
    <g id="Group_10192" data-name="Group 10192">
      <g id="Group_10191" data-name="Group 10191" clip-path="url(#clip-path)">
        <path id="Path_5319" data-name="Path 5319" d="M309.168,122.4s-7.031-.885-17.681,2.035c0,0-1.714-19.032-1.51-21.646s16.442-1.849,16.442-1.849a94.547,94.547,0,0,0,1.464,12.213c1.045,4.6,1.82,8.364,1.285,9.248" transform="translate(-172.888 -60.125)" fill="#407bff"/>
        <g id="Group_10160" data-name="Group 10160" transform="translate(117.072 40.714)" opacity="0.2">
          <g id="Group_10159" data-name="Group 10159">
            <g id="Group_10158" data-name="Group 10158" clip-path="url(#clip-path-20)">
              <path id="Path_5320" data-name="Path 5320" d="M309.168,122.4s-7.031-.885-17.681,2.035c0,0-1.714-19.032-1.51-21.646s16.442-1.849,16.442-1.849a94.547,94.547,0,0,0,1.464,12.213c1.045,4.6,1.82,8.364,1.285,9.248" transform="translate(-289.96 -100.839)"/>
            </g>
          </g>
        </g>
        <path id="Path_5321" data-name="Path 5321" d="M281.017,300.2l2.867.812.682-4.461.367-2.386-2.867-.812-.489,3.2Z" transform="translate(-167.556 -174.912)" fill="#e4897b"/>
        <path id="Path_5322" data-name="Path 5322" d="M321.837,300.663l2.955.392.028-4.276.02-2.657-2.959-.388-.02,3.044Z" transform="translate(-191.895 -175.139)" fill="#e4897b"/>
        <g id="Group_10163" data-name="Group 10163" transform="translate(129.966 118.596)" opacity="0.2">
          <g id="Group_10162" data-name="Group 10162">
            <g id="Group_10161" data-name="Group 10161" clip-path="url(#clip-path-21)">
              <path id="Path_5323" data-name="Path 5323" d="M321.917,293.734l-.02,3.044h2.96l.02-2.657Z" transform="translate(-321.897 -293.734)"/>
            </g>
          </g>
        </g>
        <g id="Group_10166" data-name="Group 10166" transform="translate(114.022 118.442)" opacity="0.2">
          <g id="Group_10165" data-name="Group 10165">
            <g id="Group_10164" data-name="Group 10164" clip-path="url(#clip-path-22)">
              <path id="Path_5324" data-name="Path 5324" d="M282.407,296.552h2.988l.367-2.386-2.867-.812Z" transform="translate(-282.407 -293.354)"/>
            </g>
          </g>
        </g>
        <path id="Path_5325" data-name="Path 5325" d="M245.295,108.261l-2.846-.841.52,3.25s2.584.6,2.836-.747Z" transform="translate(-144.56 -64.049)" fill="#e4897b"/>
        <path id="Path_5326" data-name="Path 5326" d="M235.414,108.175l1.4,2.643,1.965-.147-.52-3.25Z" transform="translate(-140.365 -64.049)" fill="#e4897b"/>
        <path id="Path_5327" data-name="Path 5327" d="M251.7,110.016l-4.673-1.047-.425,2.27,4.243,1.035Z" transform="translate(-147.036 -64.973)" fill="#e4897b"/>
        <path id="Path_5328" data-name="Path 5328" d="M268.224,98.987l-.275.327c-.589.69-2.031,2.358-3.509,3.8a10.021,10.021,0,0,1-3.238,2.4c-2.289.589-10.611-1.861-10.611-1.861l.86-3.375s7.752,1.03,8.354,1.03c.456,0,5.172-6.831,6.315-7.393Z" transform="translate(-149.415 -55.993)" fill="#407bff"/>
        <g id="Group_10169" data-name="Group 10169" transform="translate(115.025 40.851)" opacity="0.2">
          <g id="Group_10168" data-name="Group 10168">
            <g id="Group_10167" data-name="Group 10167" clip-path="url(#clip-path-23)">
              <path id="Path_5329" data-name="Path 5329" d="M288.4,103.649c-.59.69-2.031,2.358-3.509,3.8a11.851,11.851,0,0,1,2.309-5.911,2.1,2.1,0,0,1,.363-.355Z" transform="translate(-284.892 -101.178)"/>
            </g>
          </g>
        </g>
        <path id="Path_5330" data-name="Path 5330" d="M271.172,309.077l3.255-.088a.262.262,0,0,1,.261.2l.684,2.622a.428.428,0,0,1-.41.539c-1.175.012-2.874-.011-4.35.029-1.726.046-2.823-.038-4.847.016-1.224.033-1.608-1.189-1.1-1.315,2.314-.57,3.826-.458,5.8-1.749a1.372,1.372,0,0,1,.71-.251" transform="translate(-157.676 -184.235)" fill="#263238"/>
        <path id="Path_5331" data-name="Path 5331" d="M277.728,309.349l-.009,0c-.477.109-1.327.248-1.664-.031a.4.4,0,0,1-.145-.338.221.221,0,0,1,.11-.19c.356-.214,1.575.362,1.713.428a.071.071,0,0,1,.04.071.069.069,0,0,1-.045.058m-1.61-.448-.025.012a.083.083,0,0,0-.042.076.257.257,0,0,0,.093.224,1.922,1.922,0,0,0,1.335.046,2.952,2.952,0,0,0-1.361-.357" transform="translate(-164.511 -184.089)" fill="#407bff"/>
        <path id="Path_5332" data-name="Path 5332" d="M278.77,308.293a.069.069,0,0,1-.052,0c-.365-.151-1.1-.774-1.059-1.11.01-.08.063-.178.256-.2a.522.522,0,0,1,.4.11,2.02,2.02,0,0,1,.5,1.131.068.068,0,0,1-.027.064.051.051,0,0,1-.018.01m-.907-1.159c-.058.022-.062.054-.063.066-.025.2.477.693.852.9a1.665,1.665,0,0,0-.426-.9.379.379,0,0,0-.291-.082.321.321,0,0,0-.071.017" transform="translate(-165.553 -183.033)" fill="#407bff"/>
        <path id="Path_5333" data-name="Path 5333" d="M312.2,309.077l3.255-.088a.262.262,0,0,1,.261.2l.684,2.622a.428.428,0,0,1-.41.539c-1.175.012-2.874-.011-4.35.029-1.726.046-2.823-.038-4.847.016-1.224.033-1.608-1.189-1.1-1.315,2.314-.57,3.826-.458,5.8-1.749a1.373,1.373,0,0,1,.71-.251" transform="translate(-182.138 -184.235)" fill="#263238"/>
        <path id="Path_5334" data-name="Path 5334" d="M318.754,309.349l-.009,0c-.477.109-1.327.248-1.664-.031a.4.4,0,0,1-.145-.338.222.222,0,0,1,.11-.19c.356-.214,1.575.362,1.713.428a.071.071,0,0,1,.04.071.069.069,0,0,1-.045.058m-1.61-.448-.025.012a.083.083,0,0,0-.042.076.257.257,0,0,0,.093.224,1.922,1.922,0,0,0,1.335.046,2.951,2.951,0,0,0-1.361-.357" transform="translate(-188.973 -184.089)" fill="#407bff"/>
        <path id="Path_5335" data-name="Path 5335" d="M319.8,308.293a.069.069,0,0,1-.052,0c-.365-.151-1.1-.774-1.059-1.11.01-.08.063-.178.256-.2a.522.522,0,0,1,.4.11,2.02,2.02,0,0,1,.5,1.131.068.068,0,0,1-.027.064.051.051,0,0,1-.018.01m-.907-1.159c-.058.022-.062.054-.063.066-.025.2.477.693.852.9a1.665,1.665,0,0,0-.426-.9.379.379,0,0,0-.291-.082.321.321,0,0,0-.071.017" transform="translate(-190.015 -183.033)" fill="#407bff"/>
        <path id="Path_5336" data-name="Path 5336" d="M304.061,149.95c1.566,6.789-1.121,60.185-1.121,60.185h-5.193l-2.22-44.5-8.178,44.5-5.55-.4c3.628-34.471,6.835-55.052,6.835-55.052l-.008-2.6Z" transform="translate(-168.022 -89.408)" fill="#263238"/>
        <g id="Group_10172" data-name="Group 10172" transform="translate(113.776 60.544)" opacity="0.4">
          <g id="Group_10171" data-name="Group 10171">
            <g id="Group_10170" data-name="Group 10170" clip-path="url(#clip-path-24)">
              <path id="Path_5337" data-name="Path 5337" d="M281.8,209.734l5.552.4,6.436-35.029,1.74-9.468,2.221,44.5h5.192s2.689-53.4,1.122-60.183l-15.435,2.128.008,2.6s-3.206,20.579-6.836,55.051" transform="translate(-281.797 -149.955)" fill="#fff"/>
            </g>
          </g>
        </g>
        <path id="Path_5338" data-name="Path 5338" d="M305.589,87.593a65.068,65.068,0,0,0,.247,9.731c.216,2.259.516,4.4.835,6.323.747,4.518,1.594,7.9,1.716,9.086-2.262.313-10.786,1.489-15.435,2.129-5.629-15.737-3.509-24.9-3.509-24.9a30.284,30.284,0,0,1,3.54-1.211c.254-.071.514-.134.779-.2a57.543,57.543,0,0,1,6.562-.906c.417-.037.842-.064,1.256-.083,2.108-.1,4.008.023,4.008.023" transform="translate(-172.347 -52.191)" fill="#263238"/>
        <path id="Path_5339" data-name="Path 5339" d="M304.959,70.143c.113,2.162.343,6.215,2.139,7.242a4.737,4.737,0,0,1-3.537,2.346,1.483,1.483,0,0,1-1.708-1.64c1.058-.791.8-2.127,0-3.633Z" transform="translate(-179.978 -41.823)" fill="#e4897b"/>
        <g id="Group_10175" data-name="Group 10175" transform="translate(121.874 30.08)" opacity="0.2">
          <g id="Group_10174" data-name="Group 10174">
            <g id="Group_10173" data-name="Group 10173" clip-path="url(#clip-path-25)">
              <path id="Path_5340" data-name="Path 5340" d="M303.694,74.5l-1.84,2.552a6.841,6.841,0,0,1,.485,1.091,2.89,2.89,0,0,0,1.682-2.54,3.189,3.189,0,0,0-.328-1.1" transform="translate(-301.855 -74.503)"/>
            </g>
          </g>
        </g>
        <path id="Path_5341" data-name="Path 5341" d="M289.828,58.59c-.353,1.12-.159,3.423,1.406,2.674s-.8-4.6-1.406-2.674" transform="translate(-172.72 -34.616)" fill="#263238"/>
        <path id="Path_5342" data-name="Path 5342" d="M298.1,57.531c.172,2.88.42,4.558-.85,6.188a3.864,3.864,0,0,1-6.642-1.242c-.929-2.5-1.054-6.791,1.615-8.243a3.98,3.98,0,0,1,5.877,3.3" transform="translate(-172.914 -32.043)" fill="#e4897b"/>
        <path id="Path_5343" data-name="Path 5343" d="M305.047,54.479V51.262s3.425-.254,3.272,1.5c1.9.941,1,3.892-1.548,5.339-1.4-1.118-1.236-3.809-1.236-3.809-.151.067-.317.129-.488.189" transform="translate(-181.884 -30.557)" fill="#263238"/>
        <path id="Path_5344" data-name="Path 5344" d="M309.534,66.4a2.708,2.708,0,0,1-1.152,1.74c-.8.527-1.5-.121-1.531-1.031-.026-.82.36-2.082,1.286-2.244a1.245,1.245,0,0,1,1.4,1.535" transform="translate(-182.958 -38.665)" fill="#e4897b"/>
        <path id="Path_5345" data-name="Path 5345" d="M298.692,65.734c.028.233-.072.436-.225.453s-.3-.158-.328-.391.072-.436.225-.453.3.158.328.391" transform="translate(-177.762 -38.96)" fill="#263238"/>
        <path id="Path_5346" data-name="Path 5346" d="M292.154,66.464c.028.233-.072.436-.225.453s-.3-.158-.328-.391.072-.436.225-.453.3.158.328.391" transform="translate(-173.864 -39.395)" fill="#263238"/>
        <path id="Path_5347" data-name="Path 5347" d="M293.761,67.1a8.082,8.082,0,0,1-.9,2.048,1.393,1.393,0,0,0,1.133.063Z" transform="translate(-174.618 -40.007)" fill="#de5753"/>
        <path id="Path_5348" data-name="Path 5348" d="M298.475,72.7a2.269,2.269,0,0,1-.3.054.07.07,0,0,1-.077-.061.068.068,0,0,1,.06-.076,1.84,1.84,0,0,0,1.42-.89.069.069,0,0,1,.124.062,1.912,1.912,0,0,1-1.226.91" transform="translate(-177.739 -42.743)" fill="#263238"/>
        <path id="Path_5349" data-name="Path 5349" d="M299.453,62.978a.139.139,0,0,1-.134-.039,1.109,1.109,0,0,0-.934-.359.14.14,0,0,1-.162-.111.137.137,0,0,1,.109-.16,1.384,1.384,0,0,1,1.185.44.137.137,0,0,1-.064.228" transform="translate(-177.814 -37.145)" fill="#263238"/>
        <path id="Path_5350" data-name="Path 5350" d="M289.633,63.545a.139.139,0,0,1-.165-.18,1.357,1.357,0,0,1,.891-.88.14.14,0,0,1,.168.1.137.137,0,0,1-.1.166,1.06,1.06,0,0,0-.7.7.136.136,0,0,1-.1.088" transform="translate(-172.59 -37.255)" fill="#263238"/>
        <path id="Path_5351" data-name="Path 5351" d="M296.091,53.934a7.933,7.933,0,0,1-2.941-1.907s-1.832.479-2.208,1.225a.911.911,0,0,1-.16-1.225s-1.371.289-1.643,1.225a1.147,1.147,0,0,1-.644-1.225,1.545,1.545,0,0,0-.8,1.225s-1.517-3.155,3.486-4.06a3.7,3.7,0,0,0-1.172-.2s3.489-1.408,6.258-.119,2.263,3.766-.173,5.061" transform="translate(-171.407 -28.817)" fill="#263238"/>
        <path id="Path_5352" data-name="Path 5352" d="M328.492,115.137l-4.841.646s-2-13.966-2.879-18.476V87.674l2.531-.666,1.95.666a47.215,47.215,0,0,1,1.24,5.895c.238,1.51.452,3.125.642,4.76.262,2.229.48,4.5.666,6.622.291,3.428.484,6.464.589,8.313.069,1.179.1,1.873.1,1.873" transform="translate(-191.26 -51.878)" fill="#407bff"/>
        <path id="Path_5353" data-name="Path 5353" d="M318.6,95.561s.4-6.794,2.532-10.3c0,0-.053-1-.479-1.163s-2.053.8-2.053.8-1.014-.692-1.238-.373S316.6,87,318.6,95.561" transform="translate(-189.083 -50.133)" fill="#407bff"/>
        <g id="Group_10178" data-name="Group 10178" transform="translate(128.037 33.947)" opacity="0.7">
          <g id="Group_10177" data-name="Group 10177">
            <g id="Group_10176" data-name="Group 10176" clip-path="url(#clip-path-26)">
              <path id="Path_5354" data-name="Path 5354" d="M318.6,95.561s.4-6.794,2.532-10.3c0,0-.053-1-.479-1.163s-2.053.8-2.053.8-1.014-.692-1.238-.373S316.6,87,318.6,95.561" transform="translate(-317.12 -84.08)" fill="#fff"/>
            </g>
          </g>
        </g>
        <path id="Path_5355" data-name="Path 5355" d="M290.637,119.127l.553.4s-.8-4.5-.476-15.889c.016-.549.036-1.078.057-1.583.412-9.633,1.906-11.386,2-11.491l-1.4.476-2.531.872c-.747,8.22,1.793,27.214,1.793,27.214" transform="translate(-172.141 -53.999)" fill="#407bff"/>
        <path id="Path_5356" data-name="Path 5356" d="M292.465,99.26s-1.4-6.6-.982-8.879,1.907-1.265,1.907-1.265,1.37-1.105,1.776.113c0,0-1.88,1.325-2.7,10.031" transform="translate(-173.75 -52.861)" fill="#407bff"/>
        <g id="Group_10181" data-name="Group 10181" transform="translate(117.655 35.795)" opacity="0.7">
          <g id="Group_10180" data-name="Group 10180">
            <g id="Group_10179" data-name="Group 10179" clip-path="url(#clip-path-27)">
              <path id="Path_5357" data-name="Path 5357" d="M292.465,99.26s-1.4-6.6-.982-8.879,1.907-1.265,1.907-1.265,1.37-1.105,1.776.113c0,0-1.88,1.325-2.7,10.031" transform="translate(-291.405 -88.657)" fill="#fff"/>
            </g>
          </g>
        </g>
        <g id="Group_10184" data-name="Group 10184" transform="translate(133.533 41.691)" opacity="0.2">
          <g id="Group_10183" data-name="Group 10183">
            <g id="Group_10182" data-name="Group 10182" clip-path="url(#clip-path-28)">
              <path id="Path_5358" data-name="Path 5358" d="M333.074,108.018c-2.067-1.159-2.342-4.183-2.342-4.183.125-.048.892-.311,1.7-.577.238,1.51.452,3.125.642,4.76" transform="translate(-330.732 -103.258)"/>
            </g>
          </g>
        </g>
        <g id="Group_10187" data-name="Group 10187" transform="translate(125.527 71.22)" opacity="0.2">
          <g id="Group_10186" data-name="Group 10186">
            <g id="Group_10185" data-name="Group 10185" clip-path="url(#clip-path-29)">
              <path id="Path_5359" data-name="Path 5359" d="M311.137,190.874l1.74-9.468-.335-5.011s-2.386,8.689-1.405,14.479" transform="translate(-310.901 -176.395)"/>
            </g>
          </g>
        </g>
        <g id="Group_10190" data-name="Group 10190" transform="translate(134.457 53.072)" opacity="0.2">
          <g id="Group_10189" data-name="Group 10189">
            <g id="Group_10188" data-name="Group 10188" clip-path="url(#clip-path-30)">
              <path id="Path_5360" data-name="Path 5360" d="M335.695,139.761c-1.3-.089-2.427-.174-2.427-.174l-.246-5.285a1.877,1.877,0,0,1,1.361-.25,14.866,14.866,0,0,0,.723-2.6c.291,3.428.484,6.464.589,8.313" transform="translate(-333.022 -131.448)"/>
            </g>
          </g>
        </g>
        <path id="Path_5361" data-name="Path 5361" d="M337,131.435l-2.532,4.065,2,1.151,2.378-3.663Z" transform="translate(-199.428 -78.368)" fill="#e4897b"/>
        <path id="Path_5362" data-name="Path 5362" d="M329.888,88.532c1.7.187,8.946,10.126,9.265,13.123s-4.254,8.168-4.254,8.168l-3.056-1.8s3.1-4.768,3.263-6.041-5.671-6.489-5.671-6.489a11.815,11.815,0,0,1-.717-3.739,4.012,4.012,0,0,1,1.17-3.224" transform="translate(-195.995 -52.787)" fill="#407bff"/>
        <path id="Path_5363" data-name="Path 5363" d="M331.645,138.52s2.606.559,3.653,2.2c0,0-1.088,3.412-1.866,3.784a9.088,9.088,0,0,1-2.712.371,18.64,18.64,0,0,1,.925-6.351" transform="translate(-197.189 -82.592)" fill="#407bff"/>
      </g>
    </g>
  </g>
</svg>
