<svg id="transaction-details-ico" xmlns="http://www.w3.org/2000/svg" xmlns:xlink="http://www.w3.org/1999/xlink" width="135.196" height="141.016" viewBox="0 0 135.196 141.016">
  <defs>
    <clipPath id="clip-path">
      <rect id="Rectangle_3186" data-name="Rectangle 3186" width="135.196" height="141.016" fill="none"/>
    </clipPath>
    <clipPath id="clip-path-3">
      <rect id="Rectangle_3181" data-name="Rectangle 3181" width="52.216" height="29.809" fill="none"/>
    </clipPath>
    <clipPath id="clip-path-4">
      <path id="Rectangle_3183" data-name="Rectangle 3183" d="M2.754,0H5.861A2.754,2.754,0,0,1,8.614,2.754v0A2.754,2.754,0,0,1,5.861,5.507H2.753A2.753,2.753,0,0,1,0,2.754v0A2.754,2.754,0,0,1,2.754,0Z" fill="none"/>
    </clipPath>
    <clipPath id="clip-path-6">
      <rect id="Rectangle_3184" data-name="Rectangle 3184" width="20.978" height="20.979" fill="none"/>
    </clipPath>
  </defs>
  <g id="Group_10476" data-name="Group 10476" clip-path="url(#clip-path)">
    <g id="Group_10468" data-name="Group 10468">
      <g id="Group_10467" data-name="Group 10467" clip-path="url(#clip-path)">
        <path id="Path_5626" data-name="Path 5626" d="M79.184,115.578H31.5A30.125,30.125,0,0,1,3,94.567q-.139-.428-.275-.866C-.834,82.183-2.767,68.761,9.061,50.822S12.775,16.057,27.983,9.931s27.545,1.513,44.864-5.925,51.958-7,54.071,23.19-6.337,28.877-2.957,38.941,14.785,52.067-44.777,49.442" transform="translate(0 0)" fill="#e4f1ff"/>
        <path id="Path_5627" data-name="Path 5627" d="M71.27,357.831c0,4.737-14.373,8.577-32.1,8.577s-32.1-3.84-32.1-8.577,14.373-8.576,32.1-8.576,32.1,3.84,32.1,8.576" transform="translate(-4.559 -225.392)" fill="#e4f1ff"/>
        <line id="Line_329" data-name="Line 329" x2="130.716" transform="translate(2.115 115.557)" fill="none" stroke="#1c004f" stroke-linecap="round" stroke-miterlimit="10" stroke-width="0.5"/>
        <path id="Path_5628" data-name="Path 5628" d="M55.447,331.692l26.722.028a1.556,1.556,0,0,0,1.558-1.555l.029-26.419-28.279-.03Z" transform="translate(-35.783 -196.003)" fill="#9fccfb"/>
        <path id="Path_5629" data-name="Path 5629" d="M42.549,289.433l28.265.03-8.9-7.092a3.5,3.5,0,0,0-2.177-.761l-23.664-.025a.649.649,0,0,0-.461,1.114Z" transform="translate(-22.854 -181.721)" fill="#9fccfb"/>
        <path id="Path_5630" data-name="Path 5630" d="M32.96,308.381l-.088-24.309c0-1.852,1.2-2.155,1.2-2.155l-.218.457c-.107.235.116.51.3.69l6.752,6.584-.03,27.974-7.052-7.142a3,3,0,0,1-.869-2.1" transform="translate(-21.214 -181.935)" fill="#9fccfb"/>
        <path id="Path_5631" data-name="Path 5631" d="M63.382,303.727,56.7,303.72a1.18,1.18,0,0,0-1.181,1.178l-.008,7.06" transform="translate(-35.821 -196.006)" fill="none" stroke="#fff" stroke-miterlimit="10" stroke-width="0.5"/>
        <line id="Line_330" data-name="Line 330" x1="0.015" y2="14.091" transform="translate(19.666 120.418)" fill="none" stroke="#fff" stroke-miterlimit="10" stroke-width="0.5"/>
        <line id="Line_331" data-name="Line 331" x2="4.139" y2="4.036" transform="translate(15.52 103.677)" fill="none" stroke="#fff" stroke-miterlimit="10" stroke-width="0.5"/>
        <path id="Path_5632" data-name="Path 5632" d="M35.709,281.917l-.218.457c-.106.235.116.51.3.69L37.68,284.9" transform="translate(-22.886 -181.935)" fill="none" stroke="#fff" stroke-miterlimit="10" stroke-width="0.5"/>
        <path id="Path_5633" data-name="Path 5633" d="M163.417,156.284H126.329a6.01,6.01,0,0,1-6.01-6.01V68.9a6.01,6.01,0,0,1,6.01-6.01h37.088a6.01,6.01,0,0,1,6.01,6.01v81.373a6.01,6.01,0,0,1-6.01,6.01" transform="translate(-77.648 -40.587)" fill="#1c004f"/>
        <path id="Path_5634" data-name="Path 5634" d="M167.645,158.181h-37.8a3.526,3.526,0,0,1-3.526-3.526V72.944a3.526,3.526,0,0,1,3.526-3.526h37.8a3.526,3.526,0,0,1,3.526,3.526v81.71a3.526,3.526,0,0,1-3.526,3.526" transform="translate(-81.521 -44.799)" fill="#fff"/>
        <path id="Path_5635" data-name="Path 5635" d="M177.371,72.656H162.457a3.336,3.336,0,0,1-3.336-3.336V66.335a.177.177,0,0,1,.177-.177h21.408V69.32a3.336,3.336,0,0,1-3.336,3.336" transform="translate(-102.689 -42.695)" fill="#1c004f"/>
        <path id="Path_5636" data-name="Path 5636" d="M118.9,35.038a10.679,10.679,0,1,1-10.74-10.617A10.679,10.679,0,0,1,118.9,35.038" transform="translate(-62.95 -15.76)" fill="#b4d8f9"/>
        <path id="Path_5637" data-name="Path 5637" d="M120.521,39.238a8.118,8.118,0,1,1-8.165-8.071,8.118,8.118,0,0,1,8.165,8.071" transform="translate(-67.3 -20.113)" fill="#71b7e2"/>
        <path id="Path_5638" data-name="Path 5638" d="M121.57,40.386a8.009,8.009,0,1,1-8.055-7.963,8.009,8.009,0,0,1,8.055,7.963" transform="translate(-68.118 -20.924)" fill="#ff725e"/>
        <path id="Path_5639" data-name="Path 5639" d="M121.57,40.386a8.009,8.009,0,1,1-8.055-7.963,8.009,8.009,0,0,1,8.055,7.963" transform="translate(-68.118 -20.924)" fill="#8cc2f2"/>
        <path id="Path_5640" data-name="Path 5640" d="M123.018,44.754l-.012-2.049h.01a4.217,4.217,0,0,1,1.091.278,3.446,3.446,0,0,1,.512.319l.027-.063.312-.739.072-.17-.367-.382-.175.08a3.836,3.836,0,0,0-1.487-.42l-.007-1.127-.353-.281,0,.283-.482,0,.007,1.147c-1.583.161-2.329,1.069-2.323,2.1.008,1.411,1.218,1.77,2.347,2.037L122.2,47.8a3.9,3.9,0,0,1-2.035-.76l-.451,1.028a4.443,4.443,0,0,0,2.492.828l0,.851-.4.009.4.267.832,0-.006-1.137c1.593-.172,2.349-1.069,2.343-2.1-.008-1.411-1.238-1.759-2.367-2.027m-.834-.209c-.59-.169-1.028-.39-1.031-.877,0-.447.3-.814,1.02-.93Zm.822-1.842h0m.029,5.076-.01-1.8c.61.169,1.058.4,1.061.9,0,.437-.31.783-1.05.9" transform="translate(-77.259 -25.942)" fill="#71b7e2"/>
        <path id="Path_5641" data-name="Path 5641" d="M122.065,48.615l.007,1.137-.833,0-.006-1.127a4.447,4.447,0,0,1-2.493-.829l.451-1.028a3.9,3.9,0,0,0,2.035.76l-.012-2.031c-1.129-.267-2.339-.626-2.347-2.037-.006-1.036.741-1.944,2.323-2.105l-.006-1.147.832,0,.006,1.127a4.358,4.358,0,0,1,2.065.608l-.41,1.028a4.208,4.208,0,0,0-1.648-.539l.012,2.051c1.129.267,2.359.616,2.367,2.027.006,1.036-.75,1.934-2.344,2.105m-.858-4.341-.011-1.807c-.72.116-1.022.483-1.02.93,0,.487.44.708,1.031.877m1.9,2.335c0-.5-.451-.728-1.061-.9l.01,1.8c.741-.116,1.053-.463,1.051-.9" transform="translate(-76.629 -25.948)" fill="#fff"/>
        <path id="Path_5642" data-name="Path 5642" d="M184.637,14.19a6.766,6.766,0,1,1-6.8-6.727,6.766,6.766,0,0,1,6.8,6.727" transform="translate(-110.423 -4.817)" fill="#b4d8f9"/>
        <path id="Path_5643" data-name="Path 5643" d="M185.662,16.852a5.143,5.143,0,1,1-5.173-5.114,5.143,5.143,0,0,1,5.173,5.114" transform="translate(-113.179 -7.575)" fill="#71b7e2"/>
        <path id="Path_5644" data-name="Path 5644" d="M186.326,17.579a5.074,5.074,0,1,1-5.1-5.045,5.074,5.074,0,0,1,5.1,5.045" transform="translate(-113.696 -8.089)" fill="#ff725e"/>
        <path id="Path_5645" data-name="Path 5645" d="M186.326,17.579a5.074,5.074,0,1,1-5.1-5.045,5.074,5.074,0,0,1,5.1,5.045" transform="translate(-113.696 -8.089)" fill="#8cc2f2"/>
        <path id="Path_5646" data-name="Path 5646" d="M187.243,20.347l-.007-1.3h.006a2.664,2.664,0,0,1,.691.176,2.159,2.159,0,0,1,.325.2l.017-.04.2-.468.045-.108-.233-.242-.111.051a2.43,2.43,0,0,0-.942-.266l0-.714L187,17.461v.179l-.3,0,0,.727c-1,.1-1.476.677-1.472,1.333,0,.894.772,1.121,1.487,1.291l.007,1.286a2.469,2.469,0,0,1-1.289-.482l-.286.651a2.819,2.819,0,0,0,1.579.525l0,.539-.251.006.252.169.527,0,0-.72c1.009-.109,1.488-.678,1.485-1.334,0-.894-.784-1.115-1.5-1.284m-.528-.132c-.374-.107-.651-.247-.653-.556,0-.283.19-.516.646-.589Zm.521-1.167h0m.018,3.216-.006-1.138c.386.107.67.253.672.569,0,.277-.2.5-.666.57" transform="translate(-119.488 -11.268)" fill="#71b7e2"/>
        <path id="Path_5647" data-name="Path 5647" d="M186.64,22.792l0,.721-.527,0,0-.714a2.818,2.818,0,0,1-1.579-.525l.286-.651a2.469,2.469,0,0,0,1.29.482l-.007-1.287c-.715-.17-1.482-.4-1.487-1.291,0-.656.469-1.231,1.472-1.333l0-.727.528,0,0,.714a2.756,2.756,0,0,1,1.308.385l-.26.651a2.661,2.661,0,0,0-1.044-.341l.007,1.3c.715.17,1.495.39,1.5,1.284,0,.656-.476,1.225-1.485,1.334m-.543-2.75L186.09,18.9c-.456.073-.648.306-.646.589,0,.309.279.449.653.556m1.205,1.479c0-.315-.286-.461-.672-.569l.007,1.138c.469-.073.667-.293.666-.57" transform="translate(-119.088 -11.272)" fill="#fff"/>
        <path id="Path_5648" data-name="Path 5648" d="M328.613,176.3H344.9a1.439,1.439,0,0,0,1.439-1.44V158.037a1.439,1.439,0,0,0-1.439-1.44H328.613a1.44,1.44,0,0,0-1.44,1.44v16.822a1.44,1.44,0,0,0,1.44,1.44" transform="translate(-211.141 -101.06)" fill="#9fccfb"/>
        <path id="Path_5649" data-name="Path 5649" d="M344.9,156.6H328.613a1.439,1.439,0,0,0-1.439,1.44v4.233h19.164v-4.233A1.439,1.439,0,0,0,344.9,156.6" transform="translate(-211.142 -101.06)" fill="#407bff"/>
        <path id="Path_5650" data-name="Path 5650" d="M365.824,180.783h2.561a.279.279,0,0,0,.279-.279v-2.561a.279.279,0,0,0-.279-.279h-2.561a.279.279,0,0,0-.279.279V180.5a.279.279,0,0,0,.279.279" transform="translate(-235.904 -114.655)" fill="#e4f1ff"/>
        <path id="Path_5651" data-name="Path 5651" d="M355.511,180.783h2.561a.279.279,0,0,0,.279-.279v-2.561a.279.279,0,0,0-.279-.279h-2.561a.279.279,0,0,0-.279.279V180.5a.279.279,0,0,0,.279.279" transform="translate(-229.249 -114.655)" fill="#fff"/>
        <path id="Path_5652" data-name="Path 5652" d="M340.175,154.314a.639.639,0,0,1-.639-.639v-2.262a.639.639,0,1,1,1.277,0v2.262a.639.639,0,0,1-.639.639" transform="translate(-219.119 -97.303)" fill="#8ec3f4"/>
        <path id="Path_5653" data-name="Path 5653" d="M349.292,154.324a.639.639,0,0,1-.639-.639v-2.262a.639.639,0,1,1,1.277,0v2.262a.639.639,0,0,1-.639.639" transform="translate(-225.003 -97.309)" fill="#8ec3f4"/>
        <path id="Path_5654" data-name="Path 5654" d="M357.985,154.317a.639.639,0,0,1-.639-.639v-2.262a.639.639,0,0,1,1.277,0v2.262a.639.639,0,0,1-.639.639" transform="translate(-230.613 -97.305)" fill="#8ec3f4"/>
        <path id="Path_5655" data-name="Path 5655" d="M345.125,180.783h2.561a.279.279,0,0,0,.279-.279v-2.561a.279.279,0,0,0-.279-.279h-2.561a.279.279,0,0,0-.279.279V180.5a.279.279,0,0,0,.279.279" transform="translate(-222.546 -114.655)" fill="#e4f1ff"/>
        <path id="Path_5656" data-name="Path 5656" d="M334.811,180.783h2.561a.279.279,0,0,0,.279-.279v-2.561a.279.279,0,0,0-.279-.279h-2.561a.279.279,0,0,0-.279.279V180.5a.279.279,0,0,0,.279.279" transform="translate(-215.89 -114.655)" fill="#e4f1ff"/>
        <path id="Path_5657" data-name="Path 5657" d="M365.75,190.573h2.561a.279.279,0,0,0,.279-.279v-2.561a.279.279,0,0,0-.279-.279H365.75a.279.279,0,0,0-.279.279v2.561a.279.279,0,0,0,.279.279" transform="translate(-235.857 -120.973)" fill="#e4f1ff"/>
        <path id="Path_5658" data-name="Path 5658" d="M355.436,190.573H358a.279.279,0,0,0,.279-.279v-2.561a.279.279,0,0,0-.279-.279h-2.561a.279.279,0,0,0-.279.279v2.561a.279.279,0,0,0,.279.279" transform="translate(-229.2 -120.973)" fill="#fff"/>
        <path id="Path_5659" data-name="Path 5659" d="M345.05,190.573h2.56a.279.279,0,0,0,.279-.279v-2.561a.279.279,0,0,0-.279-.279h-2.56a.279.279,0,0,0-.279.279v2.561a.279.279,0,0,0,.279.279" transform="translate(-222.498 -120.973)" fill="#e4f1ff"/>
        <path id="Path_5660" data-name="Path 5660" d="M334.737,190.573H337.3a.279.279,0,0,0,.279-.279v-2.561a.279.279,0,0,0-.279-.279h-2.561a.279.279,0,0,0-.279.279v2.561a.279.279,0,0,0,.279.279" transform="translate(-215.842 -120.973)" fill="#e4f1ff"/>
        <path id="Path_5661" data-name="Path 5661" d="M365.677,200.446h2.561a.279.279,0,0,0,.279-.279v-2.561a.279.279,0,0,0-.279-.279h-2.561a.279.279,0,0,0-.279.279v2.561a.279.279,0,0,0,.279.279" transform="translate(-235.809 -127.345)" fill="#e4f1ff"/>
        <path id="Path_5662" data-name="Path 5662" d="M355.363,200.446h2.561a.279.279,0,0,0,.279-.279v-2.561a.279.279,0,0,0-.279-.279h-2.561a.279.279,0,0,0-.279.279v2.561a.279.279,0,0,0,.279.279" transform="translate(-229.153 -127.345)" fill="#fff"/>
        <path id="Path_5663" data-name="Path 5663" d="M344.978,200.446h2.561a.279.279,0,0,0,.279-.279v-2.561a.279.279,0,0,0-.279-.279h-2.561a.279.279,0,0,0-.279.279v2.561a.279.279,0,0,0,.279.279" transform="translate(-222.451 -127.345)" fill="#e4f1ff"/>
        <path id="Path_5664" data-name="Path 5664" d="M334.664,200.446h2.561a.279.279,0,0,0,.279-.279v-2.561a.279.279,0,0,0-.279-.279h-2.561a.279.279,0,0,0-.279.279v2.561a.279.279,0,0,0,.279.279" transform="translate(-215.795 -127.345)" fill="#e4f1ff"/>
        <path id="Path_5665" data-name="Path 5665" d="M366.7,154.317a.639.639,0,0,1-.639-.639v-2.262a.639.639,0,1,1,1.277,0v2.262a.639.639,0,0,1-.639.639" transform="translate(-236.237 -97.305)" fill="#8ec3f4"/>
        <g id="Group_10466" data-name="Group 10466" transform="translate(53.865 41.634)" opacity="0.35">
          <g id="Group_10465" data-name="Group 10465">
            <g id="Group_10464" data-name="Group 10464" clip-path="url(#clip-path-3)">
              <path id="Path_5666" data-name="Path 5666" d="M201.349,117.394H154.63a2.748,2.748,0,0,0-2.748,2.749v24.313a2.748,2.748,0,0,0,2.748,2.748h46.719a2.748,2.748,0,0,0,2.748-2.748V120.143a2.748,2.748,0,0,0-2.748-2.749" transform="translate(-151.882 -117.394)" fill="#9fccfb"/>
            </g>
          </g>
        </g>
        <path id="Path_5667" data-name="Path 5667" d="M197.939,144.511H151.221a2.749,2.749,0,0,1-2.749-2.749V117.45a2.749,2.749,0,0,1,2.749-2.748h46.718a2.749,2.749,0,0,1,2.749,2.748v24.313a2.749,2.749,0,0,1-2.749,2.749" transform="translate(-95.816 -74.023)" fill="#9fccfb"/>
        <path id="Path_5668" data-name="Path 5668" d="M200.688,117.45a2.749,2.749,0,0,0-2.749-2.749H151.221a2.749,2.749,0,0,0-2.749,2.749v.429c5.718.26,16.8,2.134,24.531,12.058,8.9,11.423,20.854,10.305,27.684,7.514Z" transform="translate(-95.816 -74.022)" fill="#8ec3f4"/>
        <path id="Path_5669" data-name="Path 5669" d="M168.145,151.543h-6.522a1.046,1.046,0,0,1-1.046-1.046v-3.415a1.046,1.046,0,0,1,1.046-1.046h6.522a1.046,1.046,0,0,1,1.046,1.046V150.5a1.046,1.046,0,0,1-1.046,1.046" transform="translate(-103.628 -94.244)" fill="#fff"/>
        <path id="Path_5670" data-name="Path 5670" d="M267.609,124.829h-9.443a.433.433,0,0,1-.433-.433v-1.818a.433.433,0,0,1,.433-.433h9.443a.433.433,0,0,1,.433.433V124.4a.433.433,0,0,1-.433.433" transform="translate(-166.328 -78.827)" fill="#1c004f"/>
        <path id="Path_5671" data-name="Path 5671" d="M168.7,171.358h-8.081a.914.914,0,1,1,0-1.829H168.7a.914.914,0,1,1,0,1.829" transform="translate(-103.062 -109.405)" fill="#fff"/>
        <path id="Path_5672" data-name="Path 5672" d="M200.956,171.358h-8.081a.914.914,0,1,1,0-1.829h8.081a.914.914,0,1,1,0,1.829" transform="translate(-123.881 -109.405)" fill="#fff"/>
        <path id="Path_5673" data-name="Path 5673" d="M233.456,171.358h-8.081a.914.914,0,0,1,0-1.829h8.081a.914.914,0,1,1,0,1.829" transform="translate(-144.856 -109.405)" fill="#fff"/>
        <path id="Path_5674" data-name="Path 5674" d="M265.716,171.358h-8.081a.914.914,0,0,1,0-1.829h8.081a.914.914,0,1,1,0,1.829" transform="translate(-165.675 -109.405)" fill="#fff"/>
        <path id="Path_5675" data-name="Path 5675" d="M172.122,190.056H161.61a.556.556,0,1,1,0-1.112h10.512a.556.556,0,1,1,0,1.112" transform="translate(-103.936 -121.935)" fill="#1c004f"/>
        <path id="Path_5676" data-name="Path 5676" d="M271.555,190.056h-5.187a.556.556,0,1,1,0-1.112h5.187a.556.556,0,0,1,0,1.112" transform="translate(-171.542 -121.935)" fill="#1c004f"/>
      </g>
    </g>
    <g id="Group_10470" data-name="Group 10470" transform="translate(56.949 51.792)">
      <g id="Group_10469" data-name="Group 10469" clip-path="url(#clip-path-4)">
        <path id="Path_5677" data-name="Path 5677" d="M164.822,145.769a4.315,4.315,0,0,1-.1,5.747" transform="translate(-163.251 -145.864)" fill="none" stroke="#8ec3f4" stroke-linecap="round" stroke-miterlimit="10" stroke-width="0.5"/>
        <line id="Line_332" data-name="Line 332" x2="3.161" transform="translate(-0.555 2.703)" fill="none" stroke="#8ec3f4" stroke-miterlimit="10" stroke-width="0.5"/>
        <path id="Path_5678" data-name="Path 5678" d="M177.852,145.769a4.315,4.315,0,0,0,.1,5.747" transform="translate(-171.047 -145.864)" fill="none" stroke="#8ec3f4" stroke-linecap="round" stroke-miterlimit="10" stroke-width="0.5"/>
        <line id="Line_333" data-name="Line 333" x1="3.161" transform="translate(5.77 2.703)" fill="none" stroke="#8ec3f4" stroke-miterlimit="10" stroke-width="0.5"/>
      </g>
    </g>
    <g id="Group_10475" data-name="Group 10475">
      <g id="Group_10474" data-name="Group 10474" clip-path="url(#clip-path)">
        <path id="Path_5679" data-name="Path 5679" d="M291.412,31.624c-2.34-2.455-2.511-3.311,1.142-6.906a11.185,11.185,0,0,0,3.082-8.562l-7.018-.135v-.008l-.2,0-.2,0v.008l-7.017.135a11.184,11.184,0,0,0,3.082,8.562c3.653,3.6,3.482,4.452,1.141,6.906s-5.536,4.852-5.422,9.361h16.835c.114-4.509-3.082-6.906-5.422-9.361" transform="translate(-180.696 -10.334)" fill="#fff"/>
        <path id="Path_5680" data-name="Path 5680" d="M295.012,86.445H277.9a.942.942,0,0,1,0-1.884h17.113a.942.942,0,0,1,0,1.884" transform="translate(-178.734 -54.571)" fill="#407bff"/>
        <path id="Path_5681" data-name="Path 5681" d="M295.012,15.162H277.9a.942.942,0,0,1,0-1.884h17.113a.942.942,0,0,1,0,1.884" transform="translate(-178.734 -8.569)" fill="#407bff"/>
        <path id="Path_5682" data-name="Path 5682" d="M287.658,36.909H294.3a.248.248,0,0,1,.2.41l-3.019,3.407a.241.241,0,0,0-.062.161V51.194a.257.257,0,0,0,.263.25h5.644a.262.262,0,0,1,.251.174l.378,1.135a.252.252,0,0,1-.251.325H284.123a.253.253,0,0,1-.255-.313l.315-1.143a.261.261,0,0,1,.254-.187l5.829-.02a.256.256,0,0,0,.262-.25V40.942a.242.242,0,0,0-.06-.159l-3.013-3.466a.249.249,0,0,1,.2-.408" transform="translate(-183.189 -23.819)" fill="#9fccfb"/>
        <path id="Path_5683" data-name="Path 5683" d="M299.287,272.642s.06-7.8,4.884-8.361,6.485.874,7.145,1.139-1.079.62-2.55,2.059-1.456,3.234-4.774,3.821a6.42,6.42,0,0,0-4.552,3.031Z" transform="translate(-193.145 -170.471)" fill="#407bff"/>
        <path id="Path_5684" data-name="Path 5684" d="M299.72,277.7s1.547-8,9.023-8.33" transform="translate(-193.424 -173.835)" fill="none" stroke="#1a2e9d" stroke-linecap="round" stroke-miterlimit="10" stroke-width="0.5"/>
        <path id="Path_5685" data-name="Path 5685" d="M282.6,265.564s.722-6.727-3.378-7.687-5.673.109-6.268.272.868.641,1.992,2.027.934,2.93,3.733,3.765A5.568,5.568,0,0,1,282.3,267Z" transform="translate(-176.062 -166.166)" fill="#407bff"/>
        <path id="Path_5686" data-name="Path 5686" d="M286.917,269.645s-.538-7.049-6.947-8.071" transform="translate(-180.679 -168.807)" fill="none" stroke="#1a2e9d" stroke-linecap="round" stroke-miterlimit="10" stroke-width="0.5"/>
        <path id="Path_5687" data-name="Path 5687" d="M300.136,236.926a.469.469,0,0,1,.018.078l.041.229.064.373c.018.15.039.321.062.514a20.133,20.133,0,0,1,.07,3.293c-.066,1.391-.273,3.036-.505,4.859a52.9,52.9,0,0,0-.469,5.952,49.485,49.485,0,0,0,.978,10.788c.27,1.363.562,2.45.755,3.2l.241.862.06.225a.427.427,0,0,1,.017.078,37.8,37.8,0,0,1-1.149-4.352,48.107,48.107,0,0,1-1.013-10.806,51.7,51.7,0,0,1,.478-5.963c.238-1.823.453-3.464.528-4.851a21.232,21.232,0,0,0-.034-3.285q-.029-.288-.052-.513c-.021-.146-.039-.272-.053-.375s-.023-.173-.031-.23a.423.423,0,0,1-.007-.08" transform="translate(-193.151 -152.9)" fill="#1c004f"/>
        <path id="Path_5688" data-name="Path 5688" d="M296.965,299.3h-9.243a.4.4,0,0,1-.4-.4v-1.112a.4.4,0,0,1,.4-.4h9.243a.4.4,0,0,1,.4.4V298.9a.4.4,0,0,1-.4.4" transform="translate(-185.423 -191.92)" fill="#21212a"/>
        <path id="Path_5689" data-name="Path 5689" d="M296.165,310.3H291.4a.79.79,0,0,1-.778-.656l-1.335-7.729h8.648l-.988,7.7a.79.79,0,0,1-.784.689" transform="translate(-186.693 -194.838)" fill="#21212a"/>
        <path id="Path_5690" data-name="Path 5690" d="M301.289,247.866s.655-5.11,3.861-5.1,4.182,1.085,4.594,1.31-.756.322-1.834,1.149-1.21,2-3.43,2.128a4.239,4.239,0,0,0-3.223,1.627Z" transform="translate(-194.415 -156.672)" fill="#407bff"/>
        <path id="Path_5691" data-name="Path 5691" d="M301.256,251.618s1.646-5.125,6.572-4.748" transform="translate(-194.415 -159.305)" fill="none" stroke="#1a2e9d" stroke-linecap="round" stroke-miterlimit="10" stroke-width="0.5"/>
        <path id="Path_5692" data-name="Path 5692" d="M290.964,233.92s1.19-5.012-1.815-6.13-4.3-.461-4.761-.4.594.567,1.311,1.722.424,2.3,2.459,3.2a4.238,4.238,0,0,1,2.441,2.66Z" transform="translate(-183.456 -146.587)" fill="#407bff"/>
        <path id="Path_5693" data-name="Path 5693" d="M293.97,236.933s.269-5.376-4.474-6.762" transform="translate(-186.826 -148.541)" fill="none" stroke="#1a2e9d" stroke-linecap="round" stroke-miterlimit="10" stroke-width="0.5"/>
        <path id="Path_5694" data-name="Path 5694" d="M49.1,87.963a1.188,1.188,0,0,0-1.188-1.188H30.373a1.189,1.189,0,0,0-1.188,1.188v9.478a1.189,1.189,0,0,0,1.188,1.188H44.829l1.36,1.854a.842.842,0,0,0,1.492-.109l1.176-2.22a1.179,1.179,0,0,0,.244-.714Z" transform="translate(-18.835 -56)" fill="#407bff"/>
        <path id="Path_5695" data-name="Path 5695" d="M50.837,97.368H37.414a.38.38,0,0,1,0-.759H50.837a.38.38,0,0,1,0,.759" transform="translate(-23.901 -62.347)" fill="#fff"/>
        <path id="Path_5696" data-name="Path 5696" d="M46.758,102.38H37.414a.38.38,0,0,1,0-.759h9.343a.38.38,0,0,1,0,.759" transform="translate(-23.901 -65.581)" fill="#fff"/>
        <path id="Path_5697" data-name="Path 5697" d="M49.025,107.5H37.415a.38.38,0,1,1,0-.759h11.61a.38.38,0,1,1,0,.759" transform="translate(-23.901 -68.885)" fill="#fff"/>
        <g id="Group_10473" data-name="Group 10473" transform="translate(58.194 82.753)" opacity="0.35">
          <g id="Group_10472" data-name="Group 10472">
            <g id="Group_10471" data-name="Group 10471" clip-path="url(#clip-path-6)">
              <path id="Path_5698" data-name="Path 5698" d="M185.066,243.765a10.489,10.489,0,1,1-10.549-10.429,10.49,10.49,0,0,1,10.549,10.429" transform="translate(-164.088 -233.336)" fill="#9fccfb"/>
            </g>
          </g>
        </g>
        <path id="Path_5699" data-name="Path 5699" d="M182.478,241.494a10.6,10.6,0,1,1-10.657-10.534,10.6,10.6,0,0,1,10.657,10.534" transform="translate(-104.087 -149.05)" fill="#b4d8f9"/>
        <path id="Path_5700" data-name="Path 5700" d="M184.085,245.662a8.055,8.055,0,1,1-8.1-8.008,8.054,8.054,0,0,1,8.1,8.008" transform="translate(-108.403 -153.37)" fill="#71b7e2"/>
        <path id="Path_5701" data-name="Path 5701" d="M185.125,246.8a7.946,7.946,0,1,1-7.992-7.9,7.946,7.946,0,0,1,7.992,7.9" transform="translate(-109.214 -154.174)" fill="#ff725e"/>
        <path id="Path_5702" data-name="Path 5702" d="M185.125,246.8a7.946,7.946,0,1,1-7.992-7.9,7.946,7.946,0,0,1,7.992,7.9" transform="translate(-109.214 -154.174)" fill="#8cc2f2"/>
        <path id="Path_5703" data-name="Path 5703" d="M186.561,251.135l-.012-2.033h.01a4.166,4.166,0,0,1,1.082.275,3.421,3.421,0,0,1,.508.316l.027-.063.309-.734.071-.169-.365-.378-.174.079a3.8,3.8,0,0,0-1.475-.417l-.006-1.118-.35-.278v.281l-.478,0,.007,1.138c-1.57.16-2.311,1.061-2.3,2.088.008,1.4,1.209,1.756,2.328,2.021l.012,2.014a3.869,3.869,0,0,1-2.019-.754l-.447,1.02a4.408,4.408,0,0,0,2.473.822l0,.844-.393.009.395.265.826,0-.006-1.128c1.58-.17,2.331-1.061,2.325-2.088-.008-1.4-1.229-1.746-2.348-2.011m-.827-.207c-.585-.168-1.02-.387-1.022-.87,0-.443.3-.808,1.012-.922Zm.815-1.828h0m.029,5.036-.01-1.783c.605.168,1.05.4,1.053.89,0,.433-.308.777-1.042.893" transform="translate(-118.284 -159.154)" fill="#71b7e2"/>
        <path id="Path_5704" data-name="Path 5704" d="M185.616,254.966l.007,1.129-.826,0-.007-1.118a4.412,4.412,0,0,1-2.473-.822l.448-1.02a3.87,3.87,0,0,0,2.019.754l-.012-2.015c-1.12-.266-2.32-.621-2.329-2.022-.006-1.028.734-1.929,2.305-2.089l-.007-1.138.826,0,.006,1.118a4.317,4.317,0,0,1,2.049.6l-.407,1.02a4.168,4.168,0,0,0-1.635-.534l.012,2.035c1.12.266,2.341.611,2.349,2.012.006,1.028-.745,1.919-2.325,2.089m-.851-4.307-.011-1.793c-.714.115-1.014.48-1.012.923,0,.483.437.7,1.022.871m1.887,2.316c0-.494-.448-.723-1.053-.891l.01,1.783c.735-.115,1.045-.46,1.043-.893" transform="translate(-117.658 -159.159)" fill="#fff"/>
        <path id="Path_5705" data-name="Path 5705" d="M210.26,231.532a4.316,4.316,0,1,1-4.316-4.316,4.316,4.316,0,0,1,4.316,4.316" transform="translate(-130.121 -146.634)" fill="#e4f1ff"/>
        <path id="Path_5706" data-name="Path 5706" d="M209.686,237.309l.579,1.3a.2.2,0,0,0,.331.054l2.164-2.352" transform="translate(-135.321 -152.503)" fill="none" stroke="#4e6cfc" stroke-linecap="round" stroke-miterlimit="10" stroke-width="1.524"/>
        <circle id="Ellipse_257" data-name="Ellipse 257" cx="3.578" cy="3.578" r="3.578" transform="translate(71.508 87.546) rotate(-76.717)" fill="none" stroke="#fff" stroke-miterlimit="10" stroke-width="0.5"/>
        <path id="Path_5707" data-name="Path 5707" d="M28.731,141.508s1.308-3.622,6.825-2.054c3.677,1.044,5.815,3.963,5.572,8.249-.257,4.529,2.606,3.139.939,9.682-1.127,4.425,4.226,8.07-.643,15.019-3.943,5.627-26.243,2.386-26.019-7.323.106-4.585,3.934-2.441,4.165-9.836.1-3.139,6.077-2.092,5.273-6.852-.4-2.371,1.5-7.187,3.888-6.886" transform="translate(-9.94 -89.742)" fill="#263238"/>
        <path id="Path_5708" data-name="Path 5708" d="M72.026,185.691a2.849,2.849,0,0,1,1.14,2.962c-.377,2.031-.543,3.947,1.191,5.429" transform="translate(-46.482 -119.836)" fill="none" stroke="#b70825" stroke-linecap="round" stroke-miterlimit="10" stroke-width="0.5"/>
        <path id="Path_5709" data-name="Path 5709" d="M81.729,172.37c.373,1.633,1.078,2.724.1,4.941-2.056,4.679,2.051,5.653.08,9.938a13.278,13.278,0,0,0-1.137,4.019" transform="translate(-52.129 -111.239)" fill="none" stroke="#b70825" stroke-linecap="round" stroke-miterlimit="10" stroke-width="0.5"/>
        <path id="Path_5710" data-name="Path 5710" d="M85.934,233.338h7.043l-2.159-2.357-4.621.7Z" transform="translate(-55.457 -149.064)" fill="#e4897b"/>
        <path id="Path_5711" data-name="Path 5711" d="M43.229,179.782a3.471,3.471,0,0,0-1.747,3.243c.365,2.864-2.485,3.312-1.776,5.1" transform="translate(-25.551 -116.022)" fill="none" stroke="#b70825" stroke-linecap="round" stroke-miterlimit="10" stroke-width="0.5"/>
        <path id="Path_5712" data-name="Path 5712" d="M31.956,158.187a7.642,7.642,0,0,0-.6,3.581c.438,3.685-4.565,3.764-4.6,7.483-.023,2.324-1.963,3.744-3.222,5.093" transform="translate(-15.184 -102.086)" fill="none" stroke="#b70825" stroke-linecap="round" stroke-miterlimit="10" stroke-width="0.5"/>
        <path id="Path_5713" data-name="Path 5713" d="M135.873,356.769l-.014,4.3-3.965.032-.628-3.5Z" transform="translate(-84.713 -230.241)" fill="#e8977b"/>
        <path id="Path_5714" data-name="Path 5714" d="M101.067,360.567l-.388,4.687-4.285.388-.7-3.525Z" transform="translate(-61.756 -232.691)" fill="#e8977b"/>
        <path id="Path_5715" data-name="Path 5715" d="M59.976,264.667c4.555,2.446,14.041,7.292,19.422,8.268a1.042,1.042,0,0,1,.852.87l3.278,22.326a1.034,1.034,0,0,0,.729.843,6.012,6.012,0,0,0,6.253-1.5,1.051,1.051,0,0,0,.285-.789c-.227-3.294-1.729-24.579-2.81-27.37-1.1-2.842-16.473-5.831-18.345-6.185a1.022,1.022,0,0,0-.373,0l-8.984,1.6a1.036,1.036,0,0,0-.307,1.933" transform="translate(-38.352 -168.511)" fill="#407bff"/>
        <path id="Path_5716" data-name="Path 5716" d="M41.844,268.766c.021.006-3.684,6.985,14.873,8.625a.876.876,0,0,1,.756.806l2.306,22.523a.911.911,0,0,0,.617.772,6.484,6.484,0,0,0,6.418-1.17.957.957,0,0,0,.342-.75c-.09-3.29-.712-24.632-1.677-27.466-.929-2.727-14.595-6.112-17.654-6.839a.908.908,0,0,0-.958.369Z" transform="translate(-26.818 -171.174)" fill="#407bff"/>
        <path id="Path_5717" data-name="Path 5717" d="M30.378,193.067c5.793-1.724,12.812-.227,13.962.117,1.312.394,2.953,1.969,4.725,5.513l1.772,3.544-3.544,1.05V216.81A24.027,24.027,0,0,1,36.245,222.1l-4.787.856a.741.741,0,0,1-.871-.754l.548-17.2-6.014.316s-.279-10.6,5.256-12.249" transform="translate(-16.211 -124.07)" fill="#fffefc"/>
        <path id="Path_5718" data-name="Path 5718" d="M43.788,228.753l-10.8,2.969-.424-3.529-5.019.226s-1.131,8.721,1.853,8.907c4.519.283,16.167-5.439,16.167-5.439Z" transform="translate(-17.642 -147.264)" fill="#e4897b"/>
        <path id="Path_5719" data-name="Path 5719" d="M57.067,152.91a1.929,1.929,0,0,1,1.929.413,7.262,7.262,0,0,1,2.234,6.318c-.6,3.274-1.375,5.312-3.18,5.279-.586-.011-.841.454-.86,1l-.111,1.712c-.533,2.994-4.913,3.427-6.166.609l-.205-.462a1.26,1.26,0,0,1,.015-1.057c.528-1.106,1.812-2.989.373-7.165a3.048,3.048,0,0,1-.258-1.95.935.935,0,0,1,1.486-.266c.107.09.251.106.522-.083.938-.653,1.021-3.062,4.219-4.352" transform="translate(-32.655 -98.612)" fill="#e4897b"/>
        <path id="Path_5720" data-name="Path 5720" d="M59.944,147.931s.051,1.1,1.889,2.052c2.248,1.159.865,2.546,1.9,4.187,1.1,1.728.144-1.563.144-1.563l-.319-3.755c-.635-2.436-1.566-4.029-3.9-3.541a5.28,5.28,0,0,0-3.117,1.575c-1.714,2.217-2.089,7.269-2.089,7.269a3.306,3.306,0,0,0,2.875-2.33c1.12-2.676.988-3.107,2.615-3.893" transform="translate(-35.142 -93.719)" fill="#263238"/>
        <path id="Path_5721" data-name="Path 5721" d="M91.072,219.019h-4.3a.639.639,0,0,1-.639-.639v-9.327a.639.639,0,0,1,.639-.639h4.3a.639.639,0,0,1,.639.639v9.327a.639.639,0,0,1-.639.639" transform="translate(-55.587 -134.5)" fill="#1c004f"/>
        <path id="Path_5722" data-name="Path 5722" d="M97.211,219.785h0c-1.167-1.629-2.8-4.689-3.35-4.752-.3-.033-.394.228-.263.847.392,1.837,1.024,2.2-.7,1.9-.248-.043-1.51-.288-2.2-.423a.657.657,0,0,0-.747.881,1.522,1.522,0,0,0,.288.422s-.406,1.144.681,1.428c0,0,.128,1.3.945,1.358a20.474,20.474,0,0,0,2.7,1.3,1.955,1.955,0,0,0,2.593-.38l.14-.17a1.809,1.809,0,0,0-.095-2.411" transform="translate(-58.019 -138.77)" fill="#e4897b"/>
        <path id="Path_5723" data-name="Path 5723" d="M91.4,225.3a7.507,7.507,0,0,0,2.1.445" transform="translate(-58.984 -145.4)" fill="none" stroke="#f18884" stroke-linecap="round" stroke-miterlimit="10" stroke-width="0.5"/>
        <path id="Path_5724" data-name="Path 5724" d="M93.193,229.359a5.3,5.3,0,0,0,1.823.351" transform="translate(-60.142 -148.017)" fill="none" stroke="#f18884" stroke-linecap="round" stroke-miterlimit="10" stroke-width="0.5"/>
        <path id="Path_5725" data-name="Path 5725" d="M73.723,218.7l1.311-.95c.946-1.883,2.689-5.295,3-5.13.348.181.441.562.205,1.31-.564,1.792-.286,2.67.73,2.593.349-.026,3.354-.044,3.354-.044s.719.643-.237,1.372c0,0,.2,1.2-.919,1.288,0,0-.351,1.258-1.166,1.173a20.469,20.469,0,0,1-2.888.811l-1.616.711Z" transform="translate(-47.577 -137.208)" fill="#e4897b"/>
        <path id="Path_5726" data-name="Path 5726" d="M92.875,227.32a7.516,7.516,0,0,1-2.148.074" transform="translate(-58.551 -146.701)" fill="none" stroke="#f18884" stroke-linecap="round" stroke-miterlimit="10" stroke-width="0.5"/>
        <path id="Path_5727" data-name="Path 5727" d="M90.936,231a5.3,5.3,0,0,1-1.856.029" transform="translate(-57.488 -149.078)" fill="none" stroke="#f18884" stroke-linecap="round" stroke-miterlimit="10" stroke-width="0.5"/>
        <path id="Path_5728" data-name="Path 5728" d="M84.217,212.626c.348.181.441.562.205,1.31-.564,1.792-.286,2.67.73,2.593.35-.027,3.354-.044,3.354-.044s.72.643-.237,1.372c0,0,.2,1.2-.919,1.288,0,0-.351,1.257-1.167,1.173a20.45,20.45,0,0,1-2.888.811" transform="translate(-53.756 -137.218)" fill="none" stroke="#f18884" stroke-linecap="round" stroke-miterlimit="10" stroke-width="0.5"/>
        <path id="Path_5729" data-name="Path 5729" d="M95.449,233.12c.426.21,2,1.007,2.7,1.3" transform="translate(-61.598 -150.444)" fill="none" stroke="#f18884" stroke-linecap="round" stroke-miterlimit="10" stroke-width="0.5"/>
        <path id="Path_5730" data-name="Path 5730" d="M133.909,366.794s-1.268,1.027-4.847.478a7.791,7.791,0,0,1-1.227,3.41c-.975,1.171,1.85,2.585,3.968,1.929s3.7.906,5.795.652,5.114-2.533,3.994-3.212-5.1-.653-6.091-2.209a2.421,2.421,0,0,0-1.592-1.048" transform="translate(-82.37 -236.71)" fill="#1c004f"/>
        <path id="Path_5731" data-name="Path 5731" d="M152.852,379.564c1.919.57,4.063-1.657,4.063-1.657" transform="translate(-98.643 -243.882)" fill="none" stroke="#fff" stroke-linecap="round" stroke-miterlimit="10" stroke-width="0.5"/>
        <path id="Path_5732" data-name="Path 5732" d="M130.654,378.809a2.886,2.886,0,0,0,2.512.729,13.476,13.476,0,0,1,5.36.608" transform="translate(-84.318 -244.464)" fill="none" stroke="#fff" stroke-linecap="round" stroke-miterlimit="10" stroke-width="0.5"/>
        <path id="Path_5733" data-name="Path 5733" d="M98.829,371.372a7.323,7.323,0,0,1-5.537.67,5.369,5.369,0,0,1-.991,3.245c-1.038,1.114,1.7,2.685,3.854,2.147s3.644,1.111,5.749.975,5.248-2.242,4.168-2.984-5.448-1.237-6.351-2.845a3.982,3.982,0,0,0-.892-1.208" transform="translate(-59.42 -239.665)" fill="#1c004f"/>
        <path id="Path_5734" data-name="Path 5734" d="M117.062,386.005c1.884.677,4.149-1.427,4.149-1.427" transform="translate(-75.546 -248.187)" fill="none" stroke="#fff" stroke-linecap="round" stroke-miterlimit="10" stroke-width="0.5"/>
        <path id="Path_5735" data-name="Path 5735" d="M95.11,383.6a2.886,2.886,0,0,0,2.468.869,13.469,13.469,0,0,1,5.318.906" transform="translate(-61.379 -247.555)" fill="none" stroke="#fff" stroke-linecap="round" stroke-miterlimit="10" stroke-width="0.5"/>
        <path id="Path_5736" data-name="Path 5736" d="M91.834,280.243a24.558,24.558,0,0,0-.59-4.231c-.533-1.564-5.256-3.345-9.765-4.717" transform="translate(-52.582 -175.081)" fill="none" stroke="#fff" stroke-linecap="round" stroke-miterlimit="10" stroke-width="0.5"/>
        <path id="Path_5737" data-name="Path 5737" d="M109.406,310.562c-.137-3.224-.306-6.616-.5-9.478" transform="translate(-70.28 -194.304)" fill="none" stroke="#fff" stroke-linecap="round" stroke-miterlimit="10" stroke-width="0.5"/>
        <path id="Path_5738" data-name="Path 5738" d="M99.776,348.219a6.177,6.177,0,0,0,3.794-1.541.957.957,0,0,0,.342-.75c-.029-1.061-.113-4-.247-7.59" transform="translate(-64.39 -218.346)" fill="none" stroke="#fff" stroke-linecap="round" stroke-miterlimit="10" stroke-width="0.5"/>
        <path id="Path_5739" data-name="Path 5739" d="M96,284.2a4.647,4.647,0,0,0,3.542,4.006" transform="translate(-61.956 -183.408)" fill="none" stroke="#fff" stroke-miterlimit="10" stroke-width="0.5"/>
        <path id="Path_5740" data-name="Path 5740" d="M129.07,277.161a7.269,7.269,0,0,0,3.6,4.238" transform="translate(-83.295 -178.866)" fill="none" stroke="#fff" stroke-miterlimit="10" stroke-width="0.5"/>
        <path id="Path_5741" data-name="Path 5741" d="M131.266,356.189a8.515,8.515,0,0,0,4.911-1.6" transform="translate(-84.712 -228.834)" fill="none" stroke="#fff" stroke-miterlimit="10" stroke-width="0.5"/>
        <path id="Path_5742" data-name="Path 5742" d="M49.009,196.107s.61,3.551,5.165,2.625" transform="translate(-31.628 -126.558)" fill="none" stroke="#315782" stroke-linecap="round" stroke-miterlimit="10" stroke-width="0.5"/>
        <path id="Path_5743" data-name="Path 5743" d="M68.019,196.809a2.2,2.2,0,0,1-1.266,1.781" transform="translate(-43.079 -127.011)" fill="none" stroke="#315782" stroke-linecap="round" stroke-miterlimit="10" stroke-width="0.5"/>
        <line id="Line_334" data-name="Line 334" y1="0.033" x2="3.767" transform="translate(9.742 80.366)" fill="none" stroke="#315782" stroke-linecap="round" stroke-miterlimit="10" stroke-width="0.5"/>
        <line id="Line_335" data-name="Line 335" y1="2.52" x2="0.396" transform="translate(14.958 78.335)" fill="none" stroke="#315782" stroke-linecap="round" stroke-miterlimit="10" stroke-width="0.5"/>
        <path id="Path_5744" data-name="Path 5744" d="M49.5,271.722a34,34,0,0,1-4.847.93" transform="translate(-28.816 -175.356)" fill="none" stroke="#315782" stroke-linecap="round" stroke-miterlimit="10" stroke-width="0.5"/>
        <path id="Path_5745" data-name="Path 5745" d="M71.759,259.428a20.931,20.931,0,0,1-6.581,3.593" transform="translate(-42.063 -167.422)" fill="none" stroke="#315782" stroke-linecap="round" stroke-miterlimit="10" stroke-width="0.5"/>
        <path id="Path_5746" data-name="Path 5746" d="M62.154,263.5a9.205,9.205,0,0,1-2.921.642" transform="translate(-38.226 -170.051)" fill="none" stroke="#315782" stroke-linecap="round" stroke-miterlimit="10" stroke-width="0.5"/>
        <path id="Path_5747" data-name="Path 5747" d="M76.548,253.611a22.646,22.646,0,0,1-3.867,2.656" transform="translate(-46.905 -163.668)" fill="none" stroke="#315782" stroke-linecap="round" stroke-miterlimit="10" stroke-width="0.5"/>
        <path id="Path_5748" data-name="Path 5748" d="M58.675,278.634a4.077,4.077,0,0,1-.813,4.528" transform="translate(-37.341 -179.816)" fill="none" stroke="#fff" stroke-miterlimit="10" stroke-width="0.5"/>
      </g>
    </g>
  </g>
</svg>
