<svg xmlns="http://www.w3.org/2000/svg" width="12.875" height="12.875" viewBox="0 0 12.875 12.875">
  <path id="unselect-ico" d="M6,7.431H7.431V6A1.43,1.43,0,0,0,6,7.431Zm0,5.722H7.431V11.722H6Zm2.861,5.722h1.431V17.444H8.861ZM6,10.292H7.431V8.861H6ZM13.153,6H11.722V7.431h1.431Zm4.292,0V7.431h1.431A1.43,1.43,0,0,0,17.444,6ZM7.431,18.875V17.444H6A1.43,1.43,0,0,0,7.431,18.875ZM6,16.014H7.431V14.583H6ZM10.292,6H8.861V7.431h1.431Zm1.431,12.875h1.431V17.444H11.722Zm5.722-5.722h1.431V11.722H17.444Zm0,5.722a1.43,1.43,0,0,0,1.431-1.431H17.444Zm0-8.583h1.431V8.861H17.444Zm0,5.722h1.431V14.583H17.444Zm-2.861,2.861h1.431V17.444H14.583Zm0-11.444h1.431V6H14.583ZM8.861,16.014h7.153V8.861H8.861Zm1.431-5.722h4.292v4.292H10.292Z" transform="translate(-6 -6)" fill="#fff"/>
</svg>
