<svg id="verify-genuiness-ico" xmlns="http://www.w3.org/2000/svg" xmlns:xlink="http://www.w3.org/1999/xlink" width="149.49" height="123.33" viewBox="0 0 149.49 123.33">
  <defs>
    <clipPath id="clip-path">
      <rect id="Rectangle_3107" data-name="Rectangle 3107" width="149.49" height="123.33" fill="none"/>
    </clipPath>
    <clipPath id="clip-path-5">
      <rect id="Rectangle_3050" data-name="Rectangle 3050" width="61.56" height="96.829" fill="none"/>
    </clipPath>
    <clipPath id="clip-path-6">
      <rect id="Rectangle_3052" data-name="Rectangle 3052" width="0.796" height="1.062" fill="none"/>
    </clipPath>
    <clipPath id="clip-path-7">
      <rect id="Rectangle_3054" data-name="Rectangle 3054" width="0.797" height="1.416" fill="none"/>
    </clipPath>
    <clipPath id="clip-path-8">
      <rect id="Rectangle_3056" data-name="Rectangle 3056" width="0.796" height="1.771" fill="none"/>
    </clipPath>
    <clipPath id="clip-path-9">
      <rect id="Rectangle_3058" data-name="Rectangle 3058" width="0.797" height="2.125" fill="none"/>
    </clipPath>
    <clipPath id="clip-path-10">
      <rect id="Rectangle_3060" data-name="Rectangle 3060" width="0.472" height="1.062" fill="none"/>
    </clipPath>
    <clipPath id="clip-path-11">
      <rect id="Rectangle_3062" data-name="Rectangle 3062" width="3.762" height="1.837" fill="none"/>
    </clipPath>
    <clipPath id="clip-path-12">
      <rect id="Rectangle_3063" data-name="Rectangle 3063" width="3.181" height="3.072" fill="none"/>
    </clipPath>
    <clipPath id="clip-path-13">
      <rect id="Rectangle_3064" data-name="Rectangle 3064" width="3.17" height="2.532" fill="none"/>
    </clipPath>
    <clipPath id="clip-path-14">
      <rect id="Rectangle_3065" data-name="Rectangle 3065" width="6.427" height="3.939" fill="none"/>
    </clipPath>
    <clipPath id="clip-path-15">
      <rect id="Rectangle_3069" data-name="Rectangle 3069" width="53.889" height="54.903" fill="none"/>
    </clipPath>
    <clipPath id="clip-path-16">
      <rect id="Rectangle_3067" data-name="Rectangle 3067" width="2.273" height="2.948" fill="none"/>
    </clipPath>
    <clipPath id="clip-path-17">
      <rect id="Rectangle_3068" data-name="Rectangle 3068" width="3.154" height="2.165" fill="none"/>
    </clipPath>
    <clipPath id="clip-path-19">
      <rect id="Rectangle_3071" data-name="Rectangle 3071" width="45.407" height="45.331" fill="none"/>
    </clipPath>
    <clipPath id="clip-path-23">
      <rect id="Rectangle_3075" data-name="Rectangle 3075" width="22.853" height="19.961" fill="none"/>
    </clipPath>
    <clipPath id="clip-path-25">
      <rect id="Rectangle_3077" data-name="Rectangle 3077" width="12.948" height="34.666" fill="none"/>
    </clipPath>
    <clipPath id="clip-path-27">
      <rect id="Rectangle_3079" data-name="Rectangle 3079" width="30.564" height="18.594" fill="none"/>
    </clipPath>
    <clipPath id="clip-path-28">
      <rect id="Rectangle_3080" data-name="Rectangle 3080" width="5.918" height="13.904" fill="none"/>
    </clipPath>
    <clipPath id="clip-path-29">
      <rect id="Rectangle_3081" data-name="Rectangle 3081" width="15.144" height="24.135" fill="none"/>
    </clipPath>
    <clipPath id="clip-path-30">
      <rect id="Rectangle_3082" data-name="Rectangle 3082" width="32.125" height="2.253" fill="none"/>
    </clipPath>
    <clipPath id="clip-path-31">
      <rect id="Rectangle_3083" data-name="Rectangle 3083" width="4.31" height="4.599" fill="none"/>
    </clipPath>
    <clipPath id="clip-path-32">
      <rect id="Rectangle_3084" data-name="Rectangle 3084" width="45.821" height="33.815" fill="none"/>
    </clipPath>
    <clipPath id="clip-path-33">
      <rect id="Rectangle_3085" data-name="Rectangle 3085" width="3.128" height="4.002" fill="none"/>
    </clipPath>
    <clipPath id="clip-path-34">
      <rect id="Rectangle_3086" data-name="Rectangle 3086" width="22.401" height="34.112" fill="none"/>
    </clipPath>
    <clipPath id="clip-path-36">
      <rect id="Rectangle_3088" data-name="Rectangle 3088" width="6.646" height="3.822" fill="none"/>
    </clipPath>
    <clipPath id="clip-path-37">
      <rect id="Rectangle_3089" data-name="Rectangle 3089" width="12.458" height="4.82" fill="none"/>
    </clipPath>
    <clipPath id="clip-path-38">
      <rect id="Rectangle_3094" data-name="Rectangle 3094" width="1.206" height="3.273" fill="none"/>
    </clipPath>
    <clipPath id="clip-path-40">
      <rect id="Rectangle_3097" data-name="Rectangle 3097" width="11.088" height="14.737" fill="none"/>
    </clipPath>
    <clipPath id="clip-path-41">
      <rect id="Rectangle_3098" data-name="Rectangle 3098" width="3.262" height="8.656" fill="none"/>
    </clipPath>
    <clipPath id="clip-path-42">
      <rect id="Rectangle_3099" data-name="Rectangle 3099" width="1.384" height="4.336" fill="none"/>
    </clipPath>
    <clipPath id="clip-path-43">
      <rect id="Rectangle_3100" data-name="Rectangle 3100" width="3.376" height="3.097" fill="none"/>
    </clipPath>
    <clipPath id="clip-path-44">
      <rect id="Rectangle_3101" data-name="Rectangle 3101" width="4.26" height="7.054" fill="none"/>
    </clipPath>
    <clipPath id="clip-path-45">
      <rect id="Rectangle_3102" data-name="Rectangle 3102" width="6.327" height="16.332" fill="none"/>
    </clipPath>
    <clipPath id="clip-path-46">
      <rect id="Rectangle_3103" data-name="Rectangle 3103" width="8.139" height="19.129" fill="none"/>
    </clipPath>
    <clipPath id="clip-path-47">
      <rect id="Rectangle_3104" data-name="Rectangle 3104" width="11.056" height="13.042" fill="none"/>
    </clipPath>
    <clipPath id="clip-path-48">
      <rect id="Rectangle_3105" data-name="Rectangle 3105" width="12.347" height="16.296" fill="none"/>
    </clipPath>
  </defs>
  <g id="Group_10329" data-name="Group 10329" clip-path="url(#clip-path)">
    <path id="Path_5364" data-name="Path 5364" d="M308.64,212.008v5.474l2.312,1.681h-10.8l3.449-1.278V212.39Z" transform="translate(-184.445 -130.278)" fill="#e0e0e0"/>
    <path id="Path_5365" data-name="Path 5365" d="M246.629,247.4h48.187V230.16H246.629Zm.868-16.126h37.717v5.636H247.5Z" transform="translate(-151.552 -141.432)" fill="#e0e0e0"/>
    <path id="Path_5366" data-name="Path 5366" d="M246.629,247.4h39.745V230.16H246.629Zm.868-16.126h37.717v5.636H247.5Z" transform="translate(-151.552 -141.432)" fill="#ebebeb"/>
    <rect id="Rectangle_3031" data-name="Rectangle 3031" width="7.774" height="5.635" transform="translate(95.944 89.846)" fill="#e0e0e0"/>
    <rect id="Rectangle_3032" data-name="Rectangle 3032" width="9.618" height="2.817" transform="translate(124.044 92.663)" fill="#e0e0e0"/>
    <rect id="Rectangle_3033" data-name="Rectangle 3033" width="7.24" height="1.673" transform="translate(116.094 93.807)" fill="#e0e0e0"/>
    <rect id="Rectangle_3034" data-name="Rectangle 3034" width="6.897" height="3.423" transform="translate(107.523 92.058)" fill="#e0e0e0"/>
    <path id="Path_5367" data-name="Path 5367" d="M320.546,250.861l.207.673h2.768l.207-.673h3.655v7.481h-12.13v-7.481Z" transform="translate(-193.721 -154.153)" fill="#e0e0e0"/>
    <path id="Path_5368" data-name="Path 5368" d="M285.767,250.861l.207.673h2.768l.207-.673h5.294v7.481h-12.13v-7.481Z" transform="translate(-173.357 -154.153)" fill="#e0e0e0"/>
    <path id="Path_5369" data-name="Path 5369" d="M254.266,250.861l.207.673h2.768l.207-.673H261.1v7.481h-12.13v-7.481Z" transform="translate(-152.993 -154.153)" fill="#e0e0e0"/>
    <g id="Group_10196" data-name="Group 10196">
      <g id="Group_10195" data-name="Group 10195" clip-path="url(#clip-path)">
        <path id="Path_5370" data-name="Path 5370" d="M262.74,183.344h35.848a1.361,1.361,0,0,0,1.361-1.361V161.4a1.361,1.361,0,0,0-1.361-1.361H262.74a1.361,1.361,0,0,0-1.361,1.361v20.584a1.361,1.361,0,0,0,1.361,1.361" transform="translate(-160.616 -98.343)" fill="#e0e0e0"/>
        <path id="Path_5371" data-name="Path 5371" d="M260.389,183.344h35.848a1.361,1.361,0,0,0,1.361-1.361V161.4a1.361,1.361,0,0,0-1.361-1.361H260.389a1.361,1.361,0,0,0-1.361,1.361v20.584a1.361,1.361,0,0,0,1.361,1.361" transform="translate(-159.172 -98.343)" fill="#e6e6e6"/>
        <rect id="Rectangle_3035" data-name="Rectangle 3035" width="36.304" height="21.039" transform="translate(100.989 62.828)" fill="#f0f0f0"/>
        <rect id="Rectangle_3036" data-name="Rectangle 3036" width="45.734" height="47.256" transform="translate(6.323)" fill="#ebebeb"/>
        <rect id="Rectangle_3037" data-name="Rectangle 3037" width="45.734" height="47.256" transform="translate(7.92)" fill="#f0f0f0"/>
        <rect id="Rectangle_3038" data-name="Rectangle 3038" width="43.368" height="45.038" transform="translate(9.074 1.12)" fill="#e0e0e0"/>
        <rect id="Rectangle_3039" data-name="Rectangle 3039" width="42.286" height="45.037" transform="translate(9.073 1.12)" fill="#f5f5f5"/>
        <rect id="Rectangle_3040" data-name="Rectangle 3040" width="0.859" height="45.038" transform="translate(29.795 1.12)" fill="#ebebeb"/>
        <path id="Path_5372" data-name="Path 5372" d="M92.3,2.9l12.052,45.037h1.157L93.453,2.9Z" transform="translate(-56.716 -1.785)" fill="#fff"/>
        <rect id="Rectangle_3041" data-name="Rectangle 3041" width="0.736" height="46.596" transform="translate(30.286 0.425)" fill="#f0f0f0"/>
        <path id="Path_5373" data-name="Path 5373" d="M103.643,2.9l11.4,42.621V22.1L109.912,2.9Z" transform="translate(-63.688 -1.785)" fill="#fff"/>
        <path id="Path_5374" data-name="Path 5374" d="M23.535,13.505v4.323l9.8,36.627h1.157Z" transform="translate(-14.462 -8.299)" fill="#fff"/>
        <path id="Path_5375" data-name="Path 5375" d="M23.535,36.149V59.577l2.352,8.793h6.269Z" transform="translate(-14.462 -22.213)" fill="#fff"/>
        <rect id="Rectangle_3042" data-name="Rectangle 3042" width="27.69" height="33.693" transform="translate(104.706 2.692)" fill="#e6e6e6"/>
        <path id="Path_5376" data-name="Path 5376" d="M303.806,45.8,289.255,31.5,305,28.9Z" transform="translate(-177.746 -17.759)" fill="#e0e0e0"/>
        <path id="Path_5377" data-name="Path 5377" d="M289.019,46.46,288.3,35.493l10.956,2.691.8,8.391Z" transform="translate(-177.158 -21.81)" fill="#f0f0f0"/>
        <path id="Path_5378" data-name="Path 5378" d="M324.717,16.862a4.423,4.423,0,1,0-4.423,4.423,4.423,4.423,0,0,0,4.423-4.423" transform="translate(-194.101 -7.644)" fill="#fafafa"/>
        <path id="Path_5379" data-name="Path 5379" d="M287.04,70.667a2.145,2.145,0,1,0-2.145,2.145,2.145,2.145,0,0,0,2.145-2.145" transform="translate(-173.749 -42.106)" fill="#e0e0e0"/>
        <path id="Path_5380" data-name="Path 5380" d="M289.635,71.018l6.194-3.77-5.207-4.29Z" transform="translate(-177.979 -38.687)" fill="#f5f5f5"/>
        <rect id="Rectangle_3043" data-name="Rectangle 3043" width="1.217" height="26.905" transform="translate(118.972 6.978)" fill="#e0e0e0"/>
        <rect id="Rectangle_3044" data-name="Rectangle 3044" width="1.575" height="25.714" transform="translate(107.306 6.978)" fill="#ebebeb"/>
        <rect id="Rectangle_3045" data-name="Rectangle 3045" width="8.049" height="8.049" transform="translate(121.568 24.766)" fill="#ebebeb"/>
        <path id="Path_5381" data-name="Path 5381" d="M50.938,184.166l-5.1-14.688s7.068,5.24,7.021-.57-3.22-1.3-4.322-3.444,3.136-2.123,1.649-5.377-5.713,1.746-6.459-1.138-1.936-4.349-5.013-4.09c0,0-1.663,3.793.375,6.533s-5.042.545-4.323,3.3,3.084,5.163,4.125,3.222,2.363,1.779.583,2.736,2.327,5.109,3.228,2.933a22.824,22.824,0,0,1,2.314-4.114l4.7,15.715Z" transform="translate(-21.335 -95.142)" fill="#ebebeb"/>
        <path id="Path_5382" data-name="Path 5382" d="M90.416,201.542l5.745-9.393s-5.682,2.558-4.772-1.455,2.424-.412,3.511-1.731-1.849-1.943-.328-3.97,3.689,2.071,4.641.189,2-2.717,4.087-2.073c0,0,.577,2.876-1.247,4.464s3.407,1.139,2.492,2.938-2.914,3.107-3.341,1.606-1.9.874-.816,1.805-2.382,3.184-2.677,1.542a16.164,16.164,0,0,0-.98-3.2l-5.624,10.164Z" transform="translate(-55.56 -112.388)" fill="#e6e6e6"/>
        <path id="Path_5383" data-name="Path 5383" d="M73.308,182.853l2.631-15.131s-6.057,6.234-6.936.562,2.933-1.778,3.665-4.046-3.4-1.571-2.463-4.98,5.847.793,6.116-2.136,1.2-4.549,4.237-4.786c0,0,2.225,3.434.674,6.429s5-.271,4.74,2.531-2.185,5.524-3.509,3.8-2.02,2.11-.133,2.76-1.456,5.352-2.681,3.374a22.53,22.53,0,0,0-2.911-3.642l-2.078,16.069Z" transform="translate(-42.322 -93.609)" fill="#f5f5f5"/>
        <path id="Path_5384" data-name="Path 5384" d="M68.494,246.99h9.032a1.2,1.2,0,0,0,1.193-1.122l.957-15.577a1.2,1.2,0,0,0-1.193-1.268H67.537a1.2,1.2,0,0,0-1.193,1.268l.957,15.577a1.2,1.2,0,0,0,1.193,1.122" transform="translate(-40.767 -140.733)" fill="#ebebeb"/>
        <path id="Path_5385" data-name="Path 5385" d="M64.736,229.766H77.953a1.2,1.2,0,0,0,0-2.39H64.736a1.2,1.2,0,0,0,0,2.39" transform="translate(-39.046 -139.722)" fill="#f5f5f5"/>
      </g>
    </g>
    <g id="Group_10198" data-name="Group 10198">
      <g id="Group_10197" data-name="Group 10197" clip-path="url(#clip-path)">
        <path id="Path_5386" data-name="Path 5386" d="M149.49,301.638c0,2.411-33.465,4.365-74.745,4.365S0,304.049,0,301.638s33.464-4.365,74.745-4.365,74.745,1.955,74.745,4.365" transform="translate(0 -182.673)" fill="#f5f5f5"/>
      </g>
    </g>
    <g id="Group_10239" data-name="Group 10239">
      <g id="Group_10238" data-name="Group 10238" clip-path="url(#clip-path)">
        <path id="Path_5387" data-name="Path 5387" d="M202.093,9.5V118.01a1.692,1.692,0,0,1-1.719,1.693H142.068a1.517,1.517,0,0,1-1.535-1.554V9.364a1.367,1.367,0,0,1,1.316-1.422h13.843a1.078,1.078,0,0,1,.986.689l.634,1.561a1.077,1.077,0,0,0,.986.682h26.064a1.067,1.067,0,0,0,.986-.67l.634-1.569a1.081,1.081,0,0,1,.986-.692h13.624a1.546,1.546,0,0,1,1.5,1.561" transform="translate(-86.357 -4.88)" fill="#263238"/>
        <rect id="Rectangle_3048" data-name="Rectangle 3048" width="61.56" height="96.829" transform="translate(54.176 10.298)" fill="#407bff"/>
        <g id="Group_10201" data-name="Group 10201" transform="translate(54.176 10.298)" opacity="0.7" style="isolation: isolate">
          <g id="Group_10200" data-name="Group 10200">
            <g id="Group_10199" data-name="Group 10199" clip-path="url(#clip-path-5)">
              <rect id="Rectangle_3049" data-name="Rectangle 3049" width="61.56" height="96.829" transform="translate(0)" fill="#fff"/>
            </g>
          </g>
        </g>
        <g id="Group_10204" data-name="Group 10204" transform="translate(61.45 6.668)" opacity="0.6" style="isolation: isolate">
          <g id="Group_10203" data-name="Group 10203">
            <g id="Group_10202" data-name="Group 10202" clip-path="url(#clip-path-6)">
              <rect id="Rectangle_3051" data-name="Rectangle 3051" width="0.796" height="1.062" transform="translate(0 0)" fill="#fff"/>
            </g>
          </g>
        </g>
        <g id="Group_10207" data-name="Group 10207" transform="translate(60.151 6.313)" opacity="0.6" style="isolation: isolate">
          <g id="Group_10206" data-name="Group 10206">
            <g id="Group_10205" data-name="Group 10205" clip-path="url(#clip-path-7)">
              <rect id="Rectangle_3053" data-name="Rectangle 3053" width="0.796" height="1.416" transform="translate(0 0)" fill="#fff"/>
            </g>
          </g>
        </g>
        <g id="Group_10210" data-name="Group 10210" transform="translate(58.853 5.959)" opacity="0.6" style="isolation: isolate">
          <g id="Group_10209" data-name="Group 10209">
            <g id="Group_10208" data-name="Group 10208" clip-path="url(#clip-path-8)">
              <rect id="Rectangle_3055" data-name="Rectangle 3055" width="0.796" height="1.771" fill="#fff"/>
            </g>
          </g>
        </g>
        <g id="Group_10213" data-name="Group 10213" transform="translate(57.555 5.605)" opacity="0.6" style="isolation: isolate">
          <g id="Group_10212" data-name="Group 10212">
            <g id="Group_10211" data-name="Group 10211" clip-path="url(#clip-path-9)">
              <rect id="Rectangle_3057" data-name="Rectangle 3057" width="0.796" height="2.125" fill="#fff"/>
            </g>
          </g>
        </g>
        <g id="Group_10216" data-name="Group 10216" transform="translate(108.132 6.28)" opacity="0.6" style="isolation: isolate">
          <g id="Group_10215" data-name="Group 10215">
            <g id="Group_10214" data-name="Group 10214" clip-path="url(#clip-path-10)">
              <rect id="Rectangle_3059" data-name="Rectangle 3059" width="0.472" height="1.062" transform="translate(0 0)" fill="#fff"/>
            </g>
          </g>
        </g>
        <g id="Group_10219" data-name="Group 10219" transform="translate(108.929 5.892)" opacity="0.6" style="isolation: isolate">
          <g id="Group_10218" data-name="Group 10218">
            <g id="Group_10217" data-name="Group 10217" clip-path="url(#clip-path-11)">
              <rect id="Rectangle_3061" data-name="Rectangle 3061" width="3.762" height="1.837" transform="translate(0 0)" fill="#fff"/>
            </g>
          </g>
        </g>
        <path id="Path_5388" data-name="Path 5388" d="M168.052,45.695a9.223,9.223,0,0,1-1.173,4.518c-.055.1-.11.194-.168.29a9.194,9.194,0,0,1-2.085,2.4.523.523,0,0,1-.048.04,9.29,9.29,0,0,1-2.613,1.48c-.007,0-.011,0-.015,0a9.218,9.218,0,0,1-3.192.564,8.773,8.773,0,0,1-1.037-.059,9.063,9.063,0,0,1-1.7-.352,9.215,9.215,0,0,1-3.616-2.11s-.007,0-.011-.008a9.292,9.292,0,1,1,15.661-6.764" transform="translate(-91.847 -22.369)" fill="#407bff"/>
        <path id="Path_5389" data-name="Path 5389" d="M171.849,53.207c-.055.1-.11.194-.168.29a24.86,24.86,0,0,0-6.31.714c-.234.055-.469.114-.693.169-.157.04-.315.084-.469.125-.59.158-1.14.322-1.638.48-.077.026-.15.048-.22.073s-.106.033-.158.051h0c-.576.19-1.063.367-1.44.509-.557.209-.876.348-.876.348a6.61,6.61,0,0,1-.5-.74.235.235,0,0,0-.026-.04v0a13.973,13.973,0,0,1-1.616-9.237c.766-5.145,5.038-4.819,6.555-4.533a4.806,4.806,0,0,1,.535.121s4.778,1.128,4.954,4.1a10.6,10.6,0,0,0,.146,1.187,37.313,37.313,0,0,0,1.928,6.383" transform="translate(-96.816 -25.363)" fill="#263238"/>
        <path id="Path_5390" data-name="Path 5390" d="M171.708,77.672c-.007,0-.011,0-.015,0a9.218,9.218,0,0,1-3.192.564,8.772,8.772,0,0,1-1.037-.059,9.059,9.059,0,0,1-1.7-.352l-.3-2.426-.143-1.162,6.358.9.007.542.019,1.6V77.4Z" transform="translate(-101.589 -45.621)" fill="#407bff"/>
        <path id="Path_5391" data-name="Path 5391" d="M169.24,77.985a9.293,9.293,0,0,1-2.613,1.48c-.007,0-.011,0-.014,0a9.231,9.231,0,0,1-3.192.564,8.772,8.772,0,0,1-1.037-.059,9.066,9.066,0,0,1-1.7-.352,9.223,9.223,0,0,1-3.617-2.111s-.007,0-.011-.007c.293-.044.59-.081.887-.117l.073-.007c.348-.04.7-.073,1.052-.1.414-.033.828-.059,1.246-.077.026,0,.047,0,.073,0,.165-.007.337-.011.506-.018.2-.007.406-.011.608-.015.125,0,.256,0,.384,0h.323c.784,0,1.564.029,2.345.084.267.019.534.04.8.066.14.015.278.026.418.04.2.029.406.059.611.1.044,0,.088.011.132.018l.1.015h.008c.242.04.48.084.714.125.114.018.224.044.337.062.069.015.139.026.212.04l.227.044c.132.025.253.051.377.077l.271.055c.173.037.337.073.488.1" transform="translate(-96.508 -47.414)" fill="#263238"/>
        <path id="Path_5392" data-name="Path 5392" d="M172.243,73.88c-2.649-.452-3.4-1.624-3.4-1.624A3.372,3.372,0,0,0,169.6,68.8a5.427,5.427,0,0,0-.292-.885l3.181.732a9.242,9.242,0,0,0-.18,1.345,4.061,4.061,0,0,0,.049,1c.178.967.724,1,.724,1,.519,1.075-.837,1.891-.837,1.891" transform="translate(-103.752 -41.732)" fill="#e4897b"/>
        <g id="Group_10222" data-name="Group 10222" transform="translate(65.554 26.181)" opacity="0.2" style="isolation: isolate">
          <g id="Group_10221" data-name="Group 10221">
            <g id="Group_10220" data-name="Group 10220" clip-path="url(#clip-path-12)">
              <path id="Path_5393" data-name="Path 5393" d="M173.048,69.991a4.039,4.039,0,0,0,.049,1,4.428,4.428,0,0,1-2.758-2.188,5.429,5.429,0,0,0-.292-.884l3.181.732a9.242,9.242,0,0,0-.18,1.345" transform="translate(-170.047 -67.914)"/>
            </g>
          </g>
        </g>
        <path id="Path_5394" data-name="Path 5394" d="M170.2,46.173c3.01.129,3.91,1.783,4,4.894.109,3.889-.869,6.606-4.6,5.616-5.064-1.344-4.4-10.726.6-10.511" transform="translate(-102.072 -28.371)" fill="#e4897b"/>
        <path id="Path_5395" data-name="Path 5395" d="M182.052,58.222a6.381,6.381,0,0,0,.822,1.286.828.828,0,0,1-.808.306Z" transform="translate(-111.87 -35.777)" fill="#de5753"/>
        <path id="Path_5396" data-name="Path 5396" d="M175.341,51.954a1.569,1.569,0,0,0-1.325.4" transform="translate(-106.932 -31.914)" fill="none" stroke="#263238" stroke-linecap="round" stroke-linejoin="round" stroke-width="0.725"/>
        <path id="Path_5397" data-name="Path 5397" d="M183.143,51.846a1.405,1.405,0,0,1,1.189.3" transform="translate(-112.541 -31.84)" fill="none" stroke="#263238" stroke-linecap="round" stroke-linejoin="round" stroke-width="0.725"/>
        <path id="Path_5398" data-name="Path 5398" d="M165.467,49.172s1.514-2.413,1.382-4.332c0,0,6.07-2.181,6.1,3.887,0,0,.814-5.352-4.356-5.694s-5.473,7.23-2.9,9.6c0,0-1.171-1.953-.234-3.462" transform="translate(-100.852 -26.437)" fill="#263238"/>
        <path id="Path_5399" data-name="Path 5399" d="M165.361,58.652a1.322,1.322,0,0,0-1.37-1.268c-.937.062-1.464,1.958.837,2.518.33.08.532-.237.534-1.25" transform="translate(-100.281 -35.26)" fill="#e4897b"/>
        <path id="Path_5400" data-name="Path 5400" d="M179.069,63.152a7.593,7.593,0,0,0-.549.958c-.063-.018-.125-.035-.187-.056-.843-.259-1.148-.657-1.231-1.02a1.142,1.142,0,0,1,.019-.538,1.1,1.1,0,0,1,.114-.286,4.161,4.161,0,0,0,1.548.85c.174.062.286.093.286.093" transform="translate(-108.813 -38.228)" fill="#263238"/>
        <path id="Path_5401" data-name="Path 5401" d="M178.852,63.06l-.169.278a2.622,2.622,0,0,1-1.493-.842,1.11,1.11,0,0,1,.114-.286,4.152,4.152,0,0,0,1.548.85" transform="translate(-108.882 -38.228)" fill="#fff"/>
        <path id="Path_5402" data-name="Path 5402" d="M178.37,65.366c-.843-.259-1.148-.657-1.231-1.02a2.85,2.85,0,0,1,.879.473,1.063,1.063,0,0,1,.352.548" transform="translate(-108.851 -39.54)" fill="#de5753"/>
        <path id="Path_5403" data-name="Path 5403" d="M167.674,43.464s-1.426,4.9-4.542,4.7,1.966-6.263,1.966-6.263,5.172-1.7,7.567,1.109-.941,4.713-.941,4.713.357-3.828-4.051-4.263" transform="translate(-99.623 -25.437)" fill="#263238"/>
        <path id="Path_5404" data-name="Path 5404" d="M172.827,45.846s.223,3.4-2.3,4.479" transform="translate(-104.791 -28.172)" fill="none" stroke="#263238" stroke-linecap="round" stroke-linejoin="round" stroke-width="0.5"/>
        <path id="Path_5405" data-name="Path 5405" d="M176.544,57.154c.028.233-.076.436-.231.455s-.3-.155-.331-.388.076-.436.231-.455.3.155.331.388" transform="translate(-108.137 -34.882)" fill="#263238"/>
        <path id="Path_5406" data-name="Path 5406" d="M176.424,56.4l.483-.259s-.2.456-.483.259" transform="translate(-108.412 -34.501)" fill="#263238"/>
        <path id="Path_5407" data-name="Path 5407" d="M184.036,56.136c.028.233-.076.436-.231.455s-.3-.155-.331-.388.076-.437.231-.455.3.155.331.388" transform="translate(-112.741 -34.256)" fill="#263238"/>
        <path id="Path_5408" data-name="Path 5408" d="M183.916,55.387l.483-.259s-.2.456-.483.259" transform="translate(-113.016 -33.876)" fill="#263238"/>
        <path id="Path_5409" data-name="Path 5409" d="M183.738,77.588a.529.529,0,0,1-.048.04,9.291,9.291,0,0,1-2.613,1.48c-.007,0-.011,0-.015,0l.011-.275,0-.106,0-.011-.506-1.022.26-.608.22-.509.224.484Z" transform="translate(-110.958 -47.058)" fill="#407bff"/>
        <g id="Group_10225" data-name="Group 10225" transform="translate(69.61 29.522)" opacity="0.6" style="isolation: isolate">
          <g id="Group_10224" data-name="Group 10224">
            <g id="Group_10223" data-name="Group 10223" clip-path="url(#clip-path-13)">
              <path id="Path_5410" data-name="Path 5410" d="M183.738,77.588a.529.529,0,0,1-.048.04,9.291,9.291,0,0,1-2.613,1.48c-.007,0-.011,0-.015,0l.011-.275,0-.106,0-.011-.506-1.022.26-.608.22-.509.224.484Z" transform="translate(-180.568 -76.58)" fill="#fff"/>
            </g>
          </g>
        </g>
        <path id="Path_5411" data-name="Path 5411" d="M163.511,76.18,162.455,77.5l-.055.678a9.06,9.06,0,0,1-1.7-.352,9.215,9.215,0,0,1-3.617-2.111l.876-.125.073-.007,1.854-.264.374-1.081,1.887,1.125,1.363.813Z" transform="translate(-96.525 -45.621)" fill="#407bff"/>
        <g id="Group_10228" data-name="Group 10228" transform="translate(60.555 28.621)" opacity="0.6" style="isolation: isolate">
          <g id="Group_10227" data-name="Group 10227">
            <g id="Group_10226" data-name="Group 10226" clip-path="url(#clip-path-14)">
              <path id="Path_5412" data-name="Path 5412" d="M163.508,76.18,162.456,77.5l-.055.678a9.051,9.051,0,0,1-1.7-.352,9.213,9.213,0,0,1-3.617-2.111l.949-.132,1.854-.26v0l.374-1.081,1.887,1.125Z" transform="translate(-157.081 -74.242)" fill="#fff"/>
            </g>
          </g>
        </g>
        <path id="Path_5413" data-name="Path 5413" d="M191.277,76.862a2.525,2.525,0,1,1-2.525-2.525,2.525,2.525,0,0,1,2.525,2.525" transform="translate(-114.436 -45.68)" fill="#fff"/>
        <path id="Path_5414" data-name="Path 5414" d="M191.5,77.451a2.155,2.155,0,1,1-2.155-2.155,2.155,2.155,0,0,1,2.155,2.155" transform="translate(-115.026 -46.269)" fill="#263238"/>
        <path id="Path_5415" data-name="Path 5415" d="M189.91,79.516l.99.872,1.22-1.676" transform="translate(-116.699 -48.368)" fill="none" stroke="#fff" stroke-miterlimit="10" stroke-width="1"/>
        <path id="Path_5416" data-name="Path 5416" d="M211.791,50.277h20.259a.432.432,0,0,0,0-.865H211.791a.432.432,0,0,0,0,.865" transform="translate(-129.879 -30.363)" fill="#263238"/>
        <path id="Path_5417" data-name="Path 5417" d="M236.659,55.824h-24.98a.319.319,0,0,0,0,.638h24.98a.319.319,0,0,0,0-.638" transform="translate(-129.88 -34.304)" fill="#263238"/>
        <path id="Path_5418" data-name="Path 5418" d="M229.329,60.555H211.678a.319.319,0,0,0,0,.638h17.651a.319.319,0,0,0,0-.638" transform="translate(-129.879 -37.211)" fill="#263238"/>
        <rect id="Rectangle_3066" data-name="Rectangle 3066" width="60.091" height="60.091" transform="translate(54.91 35.14)" fill="#407bff"/>
        <path id="Path_5419" data-name="Path 5419" d="M287.9,257.493l-1.7-1.461-1.7,1.461v-4.019h3.39Z" transform="translate(-174.829 -155.759)" fill="#407bff"/>
        <path id="Path_5420" data-name="Path 5420" d="M272.365,253.474h-2.551a.633.633,0,0,0-.633.633v1.745a.633.633,0,0,0,.633.633h.867v1.009l.658-1.009h1.027a.633.633,0,0,0,.633-.633v-1.745a.633.633,0,0,0-.633-.633" transform="translate(-165.411 -155.759)" fill="#407bff"/>
        <path id="Path_5421" data-name="Path 5421" d="M257.92,253.955c-.471-.774-1.38-.483-1.853.114-.466-.6-1.372-.9-1.852-.135-.808,1.3.836,2.511,1.613,2.988.088.055.161.1.222.135.061-.035.135-.079.223-.133.783-.468,2.441-1.663,1.647-2.969" transform="translate(-156.08 -155.759)" fill="#407bff"/>
        <g id="Group_10237" data-name="Group 10237" transform="translate(57.486 37.761)" opacity="0.3" style="isolation: isolate">
          <g id="Group_10236" data-name="Group 10236">
            <g id="Group_10235" data-name="Group 10235" clip-path="url(#clip-path-15)">
              <g id="Group_10231" data-name="Group 10231" transform="translate(45.249 2.44)" opacity="0.7" style="isolation: isolate">
                <g id="Group_10230" data-name="Group 10230">
                  <g id="Group_10229" data-name="Group 10229" clip-path="url(#clip-path-16)">
                    <path id="Path_5422" data-name="Path 5422" d="M266.493,104.281h2.272l-1.136,2.948Z" transform="translate(-266.493 -104.281)" fill="#fff"/>
                  </g>
                </g>
              </g>
              <g id="Group_10234" data-name="Group 10234" transform="translate(50.111 17.118)" opacity="0.7" style="isolation: isolate">
                <g id="Group_10233" data-name="Group 10233">
                  <g id="Group_10232" data-name="Group 10232" clip-path="url(#clip-path-17)">
                    <path id="Path_5423" data-name="Path 5423" d="M281.572,142.355l.688,2.166-3.154-.19Z" transform="translate(-279.105 -142.355)" fill="#fff"/>
                  </g>
                </g>
              </g>
              <path id="Path_5424" data-name="Path 5424" d="M281.475,117.7l-1.08,2.649,3.281,1.143v-2.144Z" transform="translate(-229.787 -110.085)" fill="#fff"/>
              <path id="Path_5425" data-name="Path 5425" d="M172.859,102.435h1.67l-1.67,2.186Z" transform="translate(-163.707 -100.706)" fill="#fff"/>
              <path id="Path_5426" data-name="Path 5426" d="M156.579,129.7l1.891-.432.525,1.623-2.177.757Z" transform="translate(-153.703 -117.196)" fill="#fff"/>
              <path id="Path_5427" data-name="Path 5427" d="M205.726,105.018a.737.737,0,1,1-.737-.737.737.737,0,0,1,.737.737" transform="translate(-182.998 -101.841)" fill="#fff"/>
              <path id="Path_5428" data-name="Path 5428" d="M173.678,231.936a1.46,1.46,0,1,1-1.46-1.46,1.46,1.46,0,0,1,1.46,1.46" transform="translate(-162.415 -179.387)" fill="#fff"/>
              <path id="Path_5429" data-name="Path 5429" d="M155.829,201.336l.543.915-2.612,1.118-.595-.61Z" transform="translate(-151.605 -161.48)" fill="#fff"/>
              <path id="Path_5430" data-name="Path 5430" d="M203.441,238.08l-.508-1.293h1.983Z" transform="translate(-182.187 -183.265)" fill="#fff"/>
              <path id="Path_5431" data-name="Path 5431" d="M258.961,234.5l.153-1.438,2.721.719v2.1Z" transform="translate(-216.616 -180.973)" fill="#fff"/>
              <path id="Path_5432" data-name="Path 5432" d="M274.132,217.553h2.431l-1.215,1.44Z" transform="translate(-225.938 -171.446)" fill="#fff"/>
              <path id="Path_5433" data-name="Path 5433" d="M283.7,179.182l-.506,3.05.56.508.524-3.559Z" transform="translate(-231.509 -147.867)" fill="#fff"/>
              <path id="Path_5434" data-name="Path 5434" d="M149.118,155.973l2.155,1.567-1.54,1.133Z" transform="translate(-149.118 -133.605)" fill="#fff"/>
              <path id="Path_5435" data-name="Path 5435" d="M173.776,122.823a.241.241,0,1,1-.241-.241.241.241,0,0,1,.241.241" transform="translate(-163.973 -113.087)" fill="#fff"/>
              <path id="Path_5436" data-name="Path 5436" d="M254.678,114.906a.34.34,0,1,1-.34-.34.34.34,0,0,1,.34.34" transform="translate(-213.566 -108.161)" fill="#fff"/>
              <path id="Path_5437" data-name="Path 5437" d="M230.385,235.633a.275.275,0,1,1-.275-.275.275.275,0,0,1,.275.275" transform="translate(-198.718 -182.387)" fill="#fff"/>
              <path id="Path_5438" data-name="Path 5438" d="M239.592,98.358l2.713-.407v1.322l-2.713.406Z" transform="translate(-204.714 -97.951)" fill="#fff"/>
              <path id="Path_5439" data-name="Path 5439" d="M286.01,102.435h.888l-.444,1.093Z" transform="translate(-233.237 -100.706)" fill="#fff"/>
              <path id="Path_5440" data-name="Path 5440" d="M153.165,106.193h1.316l-.658.737Z" transform="translate(-151.605 -103.016)" fill="#fff"/>
              <path id="Path_5441" data-name="Path 5441" d="M282.237,236.107l-.126-2.531,1.947.687Z" transform="translate(-230.842 -181.292)" fill="#fff"/>
              <path id="Path_5442" data-name="Path 5442" d="M285.667,201.094l-1.017-.813v.813l1.017.61Z" transform="translate(-232.402 -160.832)" fill="#fff"/>
              <path id="Path_5443" data-name="Path 5443" d="M150.41,181.292l1.141.966-.571.864-1.513-1.212Z" transform="translate(-149.333 -149.163)" fill="#fff"/>
              <path id="Path_5444" data-name="Path 5444" d="M149.253,122.582h1.426l-1.56.483Z" transform="translate(-149.118 -113.087)" fill="#fff"/>
            </g>
          </g>
        </g>
      </g>
    </g>
    <path id="Path_5445" data-name="Path 5445" d="M181.713,112.72l2.578-2.424,2.554,2.449,3.1-1.707,1.865,3.007,3.427-.882,1.059,3.376,3.539,0,.185,3.534,3.428.878-.7,3.469,3.1,1.7-1.54,3.186,2.581,2.42-2.283,2.7,1.9,2.987-2.884,2.05,1.1,3.364-3.3,1.269.224,3.531-3.515.407-.661,3.476-3.506-.48-1.5,3.2-3.276-1.336-2.254,2.728-2.841-2.109L181.22,155.6l-2.227-2.749-3.289,1.3-1.473-3.217-3.51.446-.627-3.482-3.511-.441.259-3.529-3.291-1.3,1.128-3.354-2.864-2.078,1.927-2.968-2.258-2.725,2.6-2.4-1.509-3.2,3.118-1.672-.665-3.475,3.436-.845.22-3.532,3.538.036,1.091-3.366,3.418.916,1.894-2.989Z" transform="translate(-99.231 -67.777)" fill="#407bff"/>
    <g id="Group_10247" data-name="Group 10247">
      <g id="Group_10246" data-name="Group 10246" clip-path="url(#clip-path)">
        <g id="Group_10242" data-name="Group 10242" transform="translate(62.638 43.291)" opacity="0.4" style="isolation: isolate">
          <g id="Group_10241" data-name="Group 10241">
            <g id="Group_10240" data-name="Group 10240" clip-path="url(#clip-path-19)">
              <path id="Path_5446" data-name="Path 5446" d="M205.608,136.43l2.283-2.7-2.581-2.421,1.539-3.186-3.1-1.7.7-3.469-3.428-.877-.186-3.534-3.538,0-1.059-3.376-3.427.882-1.865-3.007-3.1,1.707-2.554-2.449-2.578,2.424-3.083-1.736-1.894,2.989-3.418-.915-1.091,3.366-3.538-.037-.22,3.532-3.436.845.665,3.475-3.118,1.673,1.508,3.2-2.6,2.4,2.257,2.725-1.927,2.968,2.864,2.078-1.128,3.354,3.291,1.3-.259,3.529,3.511.441.627,3.482,3.51-.446,1.474,3.217,3.289-1.3,2.227,2.75,2.861-2.082,2.841,2.109,2.254-2.728,3.276,1.337,1.5-3.2,3.506.48.661-3.476,3.515-.407-.225-3.531,3.3-1.269-1.1-3.365,2.884-2.05Zm-.71,2.476-2.547,1.81.968,2.971-2.918,1.12.2,3.119-3.1.36-.584,3.07-3.1-.424-1.328,2.828-2.894-1.18-1.99,2.409-2.509-1.863-2.527,1.838-1.967-2.429-2.905,1.153-1.3-2.841-3.1.394-.554-3.076-3.1-.389.229-3.117-2.906-1.148,1-2.962-2.529-1.835,1.7-2.621-1.993-2.407,2.3-2.115-1.332-2.827,2.754-1.477-.588-3.069,3.035-.746.194-3.119,3.125.032.964-2.973,3.019.808,1.673-2.64L183,117.1l2.276-2.141,2.256,2.162,2.737-1.507,1.647,2.656,3.027-.779.935,2.982,3.125,0,.164,3.121,3.027.774-.617,3.064,2.739,1.5-1.36,2.813,2.28,2.138-2.017,2.387Z" transform="translate(-162.484 -112.297)"/>
            </g>
          </g>
        </g>
        <g id="Group_10245" data-name="Group 10245" transform="translate(62.253 42.52)" opacity="0.4" style="isolation: isolate">
          <g id="Group_10244" data-name="Group 10244">
            <g id="Group_10243" data-name="Group 10243" clip-path="url(#clip-path-19)">
              <path id="Path_5447" data-name="Path 5447" d="M181.713,112.72l2.578-2.424,2.554,2.449,3.1-1.707,1.865,3.007,3.427-.882,1.059,3.376,3.539,0,.185,3.534,3.428.878-.7,3.469,3.1,1.7-1.54,3.186,2.581,2.42-2.283,2.7,1.9,2.987-2.884,2.05,1.1,3.364-3.3,1.269.224,3.531-3.515.407-.661,3.476-3.506-.48-1.5,3.2-3.276-1.336-2.254,2.728-2.841-2.109L181.22,155.6l-2.227-2.749-3.289,1.3-1.473-3.217-3.51.446-.627-3.482-3.511-.441.259-3.529-3.291-1.3,1.128-3.354-2.864-2.078,1.927-2.968-2.258-2.725,2.6-2.4-1.509-3.2,3.118-1.672-.665-3.475,3.436-.845.22-3.532,3.538.036,1.091-3.366,3.418.916,1.894-2.989Z" transform="translate(-161.484 -110.297)"/>
            </g>
          </g>
        </g>
      </g>
    </g>
    <path id="Path_5448" data-name="Path 5448" d="M204.608,134.43l2.283-2.7-2.581-2.421,1.539-3.186-3.1-1.7.7-3.469-3.428-.877-.186-3.534-3.538,0-1.059-3.376-3.427.882-1.865-3.007-3.1,1.707-2.554-2.449-2.578,2.424-3.083-1.736-1.894,2.989-3.418-.915-1.091,3.366-3.538-.037-.22,3.532-3.436.845.665,3.475-3.118,1.673,1.508,3.2-2.6,2.4,2.257,2.725-1.927,2.968,2.864,2.078-1.128,3.354,3.291,1.3-.259,3.529,3.511.441.627,3.482,3.51-.446,1.474,3.217,3.289-1.3,2.227,2.75,2.861-2.082,2.841,2.109,2.254-2.728,3.276,1.337,1.5-3.2,3.506.48.661-3.476,3.515-.407-.225-3.531,3.3-1.269-1.1-3.365,2.884-2.05Zm-.71,2.476-2.547,1.81.968,2.971-2.918,1.12.2,3.119-3.1.36-.584,3.07-3.1-.424-1.328,2.828-2.894-1.18-1.99,2.409-2.509-1.863-2.527,1.838-1.967-2.429-2.905,1.153-1.3-2.841-3.1.394-.554-3.076-3.1-.389.229-3.117-2.906-1.148,1-2.962-2.529-1.835,1.7-2.621-1.993-2.407,2.3-2.115-1.332-2.827,2.754-1.477-.588-3.069,3.035-.746.194-3.119,3.125.032.964-2.973,3.019.808,1.673-2.64L182,115.1l2.276-2.141,2.256,2.162,2.737-1.507,1.647,2.656,3.027-.779.935,2.982,3.125,0,.164,3.121,3.027.774-.617,3.064,2.739,1.5-1.36,2.813,2.28,2.138-2.017,2.387Z" transform="translate(-99.231 -67.777)" fill="#407bff"/>
    <g id="Group_10255" data-name="Group 10255">
      <g id="Group_10254" data-name="Group 10254" clip-path="url(#clip-path)">
        <g id="Group_10250" data-name="Group 10250" transform="translate(62.253 42.52)" opacity="0.6" style="isolation: isolate">
          <g id="Group_10249" data-name="Group 10249">
            <g id="Group_10248" data-name="Group 10248" clip-path="url(#clip-path-19)">
              <path id="Path_5449" data-name="Path 5449" d="M204.608,134.43l2.283-2.7-2.581-2.421,1.539-3.186-3.1-1.7.7-3.469-3.428-.877-.186-3.534-3.538,0-1.059-3.376-3.427.882-1.865-3.007-3.1,1.707-2.554-2.449-2.578,2.424-3.083-1.736-1.894,2.989-3.418-.915-1.091,3.366-3.538-.037-.22,3.532-3.436.845.665,3.475-3.118,1.673,1.508,3.2-2.6,2.4,2.257,2.725-1.927,2.968,2.864,2.078-1.128,3.354,3.291,1.3-.259,3.529,3.511.441.627,3.482,3.51-.446,1.474,3.217,3.289-1.3,2.227,2.75,2.861-2.082,2.841,2.109,2.254-2.728,3.276,1.337,1.5-3.2,3.506.48.661-3.476,3.515-.407-.225-3.531,3.3-1.269-1.1-3.365,2.884-2.05Zm-.71,2.476-2.547,1.81.968,2.971-2.918,1.12.2,3.119-3.1.36-.584,3.07-3.1-.424-1.328,2.828-2.894-1.18-1.99,2.409-2.509-1.863-2.527,1.838-1.967-2.429-2.905,1.153-1.3-2.841-3.1.394-.554-3.076-3.1-.389.229-3.117-2.906-1.148,1-2.962-2.529-1.835,1.7-2.621-1.993-2.407,2.3-2.115-1.332-2.827,2.754-1.477-.588-3.069,3.035-.746.194-3.119,3.125.032.964-2.973,3.019.808,1.673-2.64L182,115.1l2.276-2.141,2.256,2.162,2.737-1.507,1.647,2.656,3.027-.779.935,2.982,3.125,0,.164,3.121,3.027.774-.617,3.064,2.739,1.5-1.36,2.813,2.28,2.138-2.017,2.387Z" transform="translate(-161.484 -110.297)" fill="#fff"/>
            </g>
          </g>
        </g>
        <g id="Group_10253" data-name="Group 10253" transform="translate(73.061 55.695)" opacity="0.4" style="isolation: isolate">
          <g id="Group_10252" data-name="Group 10252">
            <g id="Group_10251" data-name="Group 10251" clip-path="url(#clip-path-23)">
              <path id="Path_5450" data-name="Path 5450" d="M190.087,152.833a8,8,0,0,1,2.932,0c.966.339,5.06,7.338,5.06,7.338s7.945-10.924,14.294-15.7a55.678,55.678,0,0,0-13.017,19.762,2.466,2.466,0,0,1-2.743-.559c-.329-.368-4.02-6.671-4.729-6.907a11,11,0,0,0-2.365-.095Z" transform="translate(-189.52 -144.471)"/>
            </g>
          </g>
        </g>
        <path id="Path_5451" data-name="Path 5451" d="M189.087,151.833a8,8,0,0,1,2.932,0c.966.339,5.06,7.338,5.06,7.338s7.945-10.924,14.294-15.7a55.678,55.678,0,0,0-13.017,19.762,2.466,2.466,0,0,1-2.743-.559c-.329-.368-4.02-6.671-4.729-6.907a11,11,0,0,0-2.365-.095Z" transform="translate(-115.845 -88.162)" fill="#fff"/>
      </g>
    </g>
    <g id="Group_10260" data-name="Group 10260">
      <g id="Group_10259" data-name="Group 10259" clip-path="url(#clip-path)">
        <path id="Path_5452" data-name="Path 5452" d="M315.889,226.167a11.848,11.848,0,0,1,.32-9.731c2.566-4.83,3.31-5.968,1.674-6.958s-2.386,3.864-2.386,3.864a10.9,10.9,0,0,1-.24-6.834c1.138-3.495,1.852-9.187.3-9.8s-.3,7.1-1.646,9.729a22.644,22.644,0,0,1-1.32-5.733c-.186-2.807.1-7.289-1.123-8.439s-2.014-.354-.808,5.84a64.813,64.813,0,0,1,1.2,11.23s-2.665-8.126-4.454-8.363-1.786,2.394-.256,4.677,4.484,6.371,4.968,8.475c0,0-2.925-6.115-5.557-4.241s2.29,5.568,4.484,6.9,3.717,9.7,3.717,9.7Z" transform="translate(-187.915 -117.875)" fill="#407bff"/>
        <g id="Group_10258" data-name="Group 10258" transform="translate(117.888 73.949)" opacity="0.2" style="isolation: isolate">
          <g id="Group_10257" data-name="Group 10257">
            <g id="Group_10256" data-name="Group 10256" clip-path="url(#clip-path-25)">
              <path id="Path_5453" data-name="Path 5453" d="M315.889,226.167a11.848,11.848,0,0,1,.32-9.731c2.566-4.83,3.31-5.968,1.674-6.958s-2.386,3.864-2.386,3.864a10.9,10.9,0,0,1-.24-6.834c1.138-3.495,1.852-9.187.3-9.8s-.3,7.1-1.646,9.729a22.644,22.644,0,0,1-1.32-5.733c-.186-2.807.1-7.289-1.123-8.439s-2.014-.354-.808,5.84a64.813,64.813,0,0,1,1.2,11.23s-2.665-8.126-4.454-8.363-1.786,2.394-.256,4.677,4.484,6.371,4.968,8.475c0,0-2.925-6.115-5.557-4.241s2.29,5.568,4.484,6.9,3.717,9.7,3.717,9.7Z" transform="translate(-305.803 -191.824)"/>
            </g>
          </g>
        </g>
        <path id="Path_5454" data-name="Path 5454" d="M322.511,231.261a11.849,11.849,0,0,0-.437-9.725c-2.624-4.792-3.381-5.919-1.758-6.933s2.433,3.828,2.433,3.828a10.913,10.913,0,0,0,.158-6.837c-1.18-3.477-1.962-9.158-.415-9.792s.382,7.1,1.762,9.7a22.673,22.673,0,0,0,1.251-5.753c.153-2.81-.192-7.287,1.022-8.455s2.01-.384.878,5.828a64.85,64.85,0,0,0-1.063,11.247s2.567-8.165,4.353-8.428,1.815,2.368.311,4.673-4.407,6.438-4.866,8.549c0,0,2.852-6.158,5.505-4.323s-2.223,5.6-4.4,6.968-3.6,9.756-3.6,9.756Z" transform="translate(-196.31 -120.959)" fill="#407bff"/>
        <path id="Path_5455" data-name="Path 5455" d="M324.734,277H306.668l1.462,12.928h15.142Z" transform="translate(-188.446 -170.216)" fill="#263238"/>
      </g>
    </g>
    <g id="Group_10328" data-name="Group 10328">
      <g id="Group_10327" data-name="Group 10327" clip-path="url(#clip-path)">
        <path id="Path_5456" data-name="Path 5456" d="M39.933,264.245l11.107-1.092V249.471h4.4v13.678l11.152,1.1a2.162,2.162,0,0,1,1.951,2.152v1.668H37.982V266.4a2.162,2.162,0,0,1,1.951-2.152" transform="translate(-23.34 -153.299)" fill="#263238"/>
        <g id="Group_10263" data-name="Group 10263" transform="translate(14.642 96.172)" opacity="0.1" style="isolation: isolate">
          <g id="Group_10262" data-name="Group 10262">
            <g id="Group_10261" data-name="Group 10261" clip-path="url(#clip-path-27)">
              <path id="Path_5457" data-name="Path 5457" d="M39.933,264.245l11.107-1.092V249.471h4.4v13.678l11.152,1.1a2.162,2.162,0,0,1,1.951,2.152v1.668H37.982V266.4a2.162,2.162,0,0,1,1.951-2.152" transform="translate(-37.982 -249.471)" fill="#fff"/>
            </g>
          </g>
        </g>
        <path id="Path_5458" data-name="Path 5458" d="M106.751,298.482a2.878,2.878,0,1,0,2.878-2.878,2.878,2.878,0,0,0-2.878,2.878" transform="translate(-65.598 -181.647)" fill="#263238"/>
        <path id="Path_5459" data-name="Path 5459" d="M39.321,298.482a2.878,2.878,0,1,1-2.878-2.878,2.878,2.878,0,0,1,2.878,2.878" transform="translate(-20.626 -181.647)" fill="#263238"/>
        <path id="Path_5460" data-name="Path 5460" d="M71.483,236.012h2.732a1.593,1.593,0,0,0,1.593-1.593v-12.31H69.89v12.31a1.593,1.593,0,0,0,1.593,1.593" transform="translate(-42.947 -136.484)" fill="#263238"/>
        <g id="Group_10266" data-name="Group 10266" transform="translate(26.943 85.624)" opacity="0.2" style="isolation: isolate">
          <g id="Group_10265" data-name="Group 10265">
            <g id="Group_10264" data-name="Group 10264" clip-path="url(#clip-path-28)">
              <path id="Path_5461" data-name="Path 5461" d="M71.483,236.012h2.732a1.593,1.593,0,0,0,1.593-1.593v-12.31H69.89v12.31a1.593,1.593,0,0,0,1.593,1.593" transform="translate(-69.89 -222.108)" fill="#fff"/>
            </g>
          </g>
        </g>
        <path id="Path_5462" data-name="Path 5462" d="M29.178,159.5s3.3,20.59,9.806,24.135H32.367s-6.536-7.015-8.527-24.135Z" transform="translate(-14.65 -98.013)" fill="#263238"/>
        <g id="Group_10269" data-name="Group 10269" transform="translate(9.191 61.488)" opacity="0.1" style="isolation: isolate">
          <g id="Group_10268" data-name="Group 10268">
            <g id="Group_10267" data-name="Group 10267" clip-path="url(#clip-path-29)">
              <path id="Path_5463" data-name="Path 5463" d="M29.178,159.5s3.3,20.59,9.806,24.135H32.367s-6.536-7.015-8.527-24.135Z" transform="translate(-23.84 -159.501)" fill="#fff"/>
            </g>
          </g>
        </g>
        <path id="Path_5464" data-name="Path 5464" d="M67.84,214.556h-25.8a1.928,1.928,0,0,0-1.928,1.928v2.579H69.767v-2.579a1.928,1.928,0,0,0-1.928-1.928" transform="translate(-24.65 -131.844)" fill="#407bff"/>
        <path id="Path_5465" data-name="Path 5465" d="M68.258,220.4H37.683a.775.775,0,0,0-.775.775v.7a.775.775,0,0,0,.775.776H68.258a.775.775,0,0,0,.775-.776v-.7a.775.775,0,0,0-.775-.775" transform="translate(-22.68 -135.435)" fill="#263238"/>
        <g id="Group_10272" data-name="Group 10272" transform="translate(14.228 84.966)" opacity="0.6" style="isolation: isolate">
          <g id="Group_10271" data-name="Group 10271">
            <g id="Group_10270" data-name="Group 10270" clip-path="url(#clip-path-30)">
              <path id="Path_5466" data-name="Path 5466" d="M68.258,220.4H37.683a.775.775,0,0,0-.775.775v.7a.775.775,0,0,0,.775.776H68.258a.775.775,0,0,0,.775-.776v-.7a.775.775,0,0,0-.775-.775" transform="translate(-36.908 -220.401)" fill="#fff"/>
            </g>
          </g>
        </g>
        <path id="Path_5467" data-name="Path 5467" d="M9.58,146.089h10.6a4.443,4.443,0,0,0,4.5-5.561l-.824-4.1a7.18,7.18,0,0,0-6.739-5.561H6.522a4.443,4.443,0,0,0-4.5,5.561l.824,4.1a7.179,7.179,0,0,0,6.739,5.561" transform="translate(-1.171 -80.417)" fill="#407bff"/>
        <path id="Path_5468" data-name="Path 5468" d="M47.7,117.7h6.753l.62,4.029-6.008,1.048Z" transform="translate(-29.313 -72.324)" fill="#407bff"/>
        <path id="Path_5469" data-name="Path 5469" d="M154.87,251.808l-2.424.948L150.7,249.47l-1.584-2.989,2.687-1.61,1.623,3.668Z" transform="translate(-91.632 -150.472)" fill="#e4897b"/>
        <g id="Group_10275" data-name="Group 10275" transform="translate(57.486 94.399)" opacity="0.2" style="isolation: isolate">
          <g id="Group_10274" data-name="Group 10274">
            <g id="Group_10273" data-name="Group 10273" clip-path="url(#clip-path-31)">
              <path id="Path_5470" data-name="Path 5470" d="M153.428,248.539l-2.726.931-1.584-2.989,2.687-1.61Z" transform="translate(-149.118 -244.87)"/>
            </g>
          </g>
        </g>
        <path id="Path_5471" data-name="Path 5471" d="M85.955,198.659l-3.3,1.77S70.2,178.517,68.278,178.7s-20.1,11.769-25.64,7.49-.15-17.161-.15-17.161,10.833-4.117,12.076-1.6a29.346,29.346,0,0,1,1.458,3.142c.244.79.429,1.456.429,1.456a.012.012,0,0,0,.007-.005c.349-.141,11.677-4.786,16.734-2.3,5.137,2.533,12.763,28.932,12.763,28.932" transform="translate(-24.663 -102.384)" fill="#407bff"/>
        <g id="Group_10278" data-name="Group 10278" transform="translate(15.472 64.23)" opacity="0.3" style="isolation: isolate">
          <g id="Group_10277" data-name="Group 10277">
            <g id="Group_10276" data-name="Group 10276" clip-path="url(#clip-path-32)">
              <path id="Path_5472" data-name="Path 5472" d="M85.955,198.659l-3.3,1.77S70.2,178.517,68.278,178.7s-20.1,11.769-25.64,7.49-.15-17.161-.15-17.161,10.833-4.117,12.076-1.6a29.346,29.346,0,0,1,1.458,3.142c.244.79.429,1.456.429,1.456a.012.012,0,0,0,.007-.005c.349-.141,11.677-4.786,16.734-2.3,5.137,2.533,12.763,28.932,12.763,28.932" transform="translate(-40.135 -166.614)" fill="#fff"/>
            </g>
          </g>
        </g>
        <path id="Path_5473" data-name="Path 5473" d="M108.368,284.229l-2.586-.3-.012-3.649-.006-3.348,3.127-.148-.276,3.939Z" transform="translate(-64.992 -170.085)" fill="#e4897b"/>
        <g id="Group_10281" data-name="Group 10281" transform="translate(40.769 106.721)" opacity="0.2" style="isolation: isolate">
          <g id="Group_10280" data-name="Group 10280">
            <g id="Group_10279" data-name="Group 10279" clip-path="url(#clip-path-33)">
              <path id="Path_5474" data-name="Path 5474" d="M108.6,280.836l-2.844-.453,0-3.383,3.128-.165Z" transform="translate(-105.755 -276.835)"/>
            </g>
          </g>
        </g>
        <path id="Path_5475" data-name="Path 5475" d="M146.255,247.653l4.827-2.418.5,2.045-3.653,1.886Z" transform="translate(-89.873 -150.696)" fill="#263238"/>
        <path id="Path_5476" data-name="Path 5476" d="M68.845,202.935s.795-.09,12.986-2.349c0,0,.275,15.593.854,27.214l3.755.121s5.387-25.8,4.754-29.69-5.269-4.422-5.269-4.422-8.048,6.252-17.081,9.126" transform="translate(-42.305 -119.095)" fill="#407bff"/>
        <g id="Group_10284" data-name="Group 10284" transform="translate(26.54 74.714)" opacity="0.4" style="isolation: isolate">
          <g id="Group_10283" data-name="Group 10283">
            <g id="Group_10282" data-name="Group 10282" clip-path="url(#clip-path-34)">
              <path id="Path_5477" data-name="Path 5477" d="M68.845,202.935s.795-.09,12.986-2.349c0,0,.275,15.593.854,27.214l3.755.121s5.387-25.8,4.754-29.69-5.269-4.422-5.269-4.422-8.048,6.252-17.081,9.126" transform="translate(-68.845 -193.809)" fill="#fff"/>
            </g>
          </g>
        </g>
        <g id="Group_10287" data-name="Group 10287" transform="translate(26.54 74.714)" opacity="0.3" style="isolation: isolate">
          <g id="Group_10286" data-name="Group 10286">
            <g id="Group_10285" data-name="Group 10285" clip-path="url(#clip-path-34)">
              <path id="Path_5478" data-name="Path 5478" d="M68.845,202.935s.795-.09,12.986-2.349c0,0,.275,15.593.854,27.214l3.755.121s5.387-25.8,4.754-29.69-5.269-4.422-5.269-4.422-8.048,6.252-17.081,9.126" transform="translate(-68.845 -193.809)"/>
            </g>
          </g>
        </g>
        <path id="Path_5479" data-name="Path 5479" d="M102.957,279.1l5.122-.12-.7,2.111-4.155.038Z" transform="translate(-63.266 -171.43)" fill="#263238"/>
        <g id="Group_10290" data-name="Group 10290" transform="translate(25.143 68.189)" opacity="0.3" style="isolation: isolate">
          <g id="Group_10289" data-name="Group 10289">
            <g id="Group_10288" data-name="Group 10288" clip-path="url(#clip-path-36)">
              <path id="Path_5480" data-name="Path 5480" d="M71.867,178.34l-6.646,2.366a41.142,41.142,0,0,1,6.217-3.822c.245.79.429,1.456.429,1.456" transform="translate(-65.221 -176.884)"/>
            </g>
          </g>
        </g>
        <path id="Path_5481" data-name="Path 5481" d="M44.975,165.94l-.1,1.973,12.458-2.641-.29-2.179Z" transform="translate(-27.577 -100.22)" fill="#263238"/>
        <g id="Group_10293" data-name="Group 10293" transform="translate(17.301 62.873)" opacity="0.2" style="isolation: isolate">
          <g id="Group_10292" data-name="Group 10292">
            <g id="Group_10291" data-name="Group 10291" clip-path="url(#clip-path-37)">
              <path id="Path_5482" data-name="Path 5482" d="M44.975,165.94l-.1,1.973,12.458-2.641-.29-2.179Z" transform="translate(-44.878 -163.093)"/>
            </g>
          </g>
        </g>
        <rect id="Rectangle_3090" data-name="Rectangle 3090" width="0.631" height="3.212" transform="matrix(0.983, -0.182, 0.182, 0.983, 20.557, 64.628)" fill="#407bff"/>
        <rect id="Rectangle_3091" data-name="Rectangle 3091" width="2.787" height="2.114" transform="translate(23.899 64.322) rotate(-12.703)" fill="#fff"/>
        <rect id="Rectangle_3092" data-name="Rectangle 3092" width="0.631" height="3.212" transform="matrix(0.983, -0.182, 0.182, 0.983, 28.134, 62.76)" fill="#407bff"/>
        <g id="Group_10296" data-name="Group 10296" transform="translate(20.557 64.513)" opacity="0.3" style="isolation: isolate">
          <g id="Group_10295" data-name="Group 10295">
            <g id="Group_10294" data-name="Group 10294" clip-path="url(#clip-path-38)">
              <rect id="Rectangle_3093" data-name="Rectangle 3093" width="0.631" height="3.212" transform="matrix(0.983, -0.182, 0.182, 0.983, 0, 0.115)" fill="#fff"/>
            </g>
          </g>
        </g>
        <g id="Group_10299" data-name="Group 10299" transform="translate(28.134 62.645)" opacity="0.3" style="isolation: isolate">
          <g id="Group_10298" data-name="Group 10298">
            <g id="Group_10297" data-name="Group 10297" clip-path="url(#clip-path-38)">
              <rect id="Rectangle_3095" data-name="Rectangle 3095" width="0.631" height="3.212" transform="matrix(0.983, -0.182, 0.182, 0.983, 0, 0.115)" fill="#fff"/>
            </g>
          </g>
        </g>
        <path id="Path_5483" data-name="Path 5483" d="M164.655,267.785a3.473,3.473,0,0,0-1.252-.141s-1.565-.653-3.454-3.766l-1.615.212a1.343,1.343,0,0,0-1.118,1.059.765.765,0,0,0-.015.229,9.148,9.148,0,0,0,.284,1.146,32.464,32.464,0,0,0,1.465,3.666l.264-.107-.828-2.339c-.278-.8.69-.123,1.2.647a2.137,2.137,0,0,0,2.964.864c2.01-.771,2.806-1.185,2.1-1.469" transform="translate(-96.597 -162.152)" fill="#407bff"/>
        <path id="Path_5484" data-name="Path 5484" d="M159.531,261.733s2.594,3.939,3.866,4.593c0,0-1.428,1.141-3.331-.7-2.461-2.382-2.871-1.566-2.871-1.566a7.634,7.634,0,0,1,.065-1.4c.2-.9,2.271-.932,2.271-.932" transform="translate(-96.592 -160.834)" fill="#e4897b"/>
        <path id="Path_5485" data-name="Path 5485" d="M111.9,299.865a3.474,3.474,0,0,0-1.183-.434s-1.365-1.005-2.463-4.478l-1.619-.177a1.343,1.343,0,0,0-1.337.763.766.766,0,0,0-.069.219,9.137,9.137,0,0,0,0,1.18,32.434,32.434,0,0,0,.554,3.909l.282-.042-.25-2.469c-.081-.839.7.044,1.015.914a2.137,2.137,0,0,0,2.674,1.542c2.135-.273,3.007-.486,2.392-.929" transform="translate(-64.65 -181.135)" fill="#407bff"/>
        <path id="Path_5486" data-name="Path 5486" d="M108.073,292.7s1.586,4.442,2.667,5.379c0,0-1.658.77-3.07-1.47-1.826-2.9-2.418-2.2-2.418-2.2a7.615,7.615,0,0,1,.394-1.34c.405-.832,2.427-.367,2.427-.367" transform="translate(-64.677 -179.782)" fill="#e4897b"/>
        <path id="Path_5487" data-name="Path 5487" d="M49.02,81.248s-6.086-2.959-8.1,3.409.567,10.766.567,10.766,7.042-1.806,12.974-.545c0,0-1.281-5.427-.973-8.544s-4.469-5.086-4.469-5.086" transform="translate(-24.673 -49.505)" fill="#263238"/>
        <path id="Path_5488" data-name="Path 5488" d="M75.475,119.744c1.337.061,6.943,7.588,6.943,7.588l2.081-2.706s3.209,6.235,1.622,9.2-9.954-5.145-9.954-5.145Z" transform="translate(-46.379 -73.582)" fill="#407bff"/>
        <g id="Group_10302" data-name="Group 10302" transform="translate(29.095 46.163)" opacity="0.6" style="isolation: isolate">
          <g id="Group_10301" data-name="Group 10301">
            <g id="Group_10300" data-name="Group 10300" clip-path="url(#clip-path-40)">
              <path id="Path_5489" data-name="Path 5489" d="M75.473,119.746l.552,6,.141,2.935s1.376,1.333,3.114,2.719c2.554,2.039,5.894,4.19,6.84,2.427,1.587-2.966-1.623-9.2-1.623-9.2l-2.081,2.705-.014-.021c-.317-.455-5.635-7.51-6.929-7.566" transform="translate(-75.473 -119.746)" fill="#fff"/>
            </g>
          </g>
        </g>
        <g id="Group_10305" data-name="Group 10305" transform="translate(29.647 49.165)" opacity="0.2" style="isolation: isolate">
          <g id="Group_10304" data-name="Group 10304">
            <g id="Group_10303" data-name="Group 10303" clip-path="url(#clip-path-41)">
              <path id="Path_5490" data-name="Path 5490" d="M76.906,130.535l.141,2.935s1.375,1.333,3.114,2.719c.166-3.524-3.114-8.656-3.114-8.656Z" transform="translate(-76.906 -127.533)"/>
            </g>
          </g>
        </g>
        <g id="Group_10308" data-name="Group 10308" transform="translate(35.228 53.382)" opacity="0.2" style="isolation: isolate">
          <g id="Group_10307" data-name="Group 10307">
            <g id="Group_10306" data-name="Group 10306" clip-path="url(#clip-path-42)">
              <path id="Path_5491" data-name="Path 5491" d="M92.193,138.842l-.3.573.872,3.4s-2.406-2.19-.872-4.336Z" transform="translate(-91.383 -138.475)"/>
            </g>
          </g>
        </g>
        <path id="Path_5492" data-name="Path 5492" d="M52.934,126.089c0,.093,0,.189,0,.285-.008.416-.015.856-.027,1.322,0,.039,0,.077,0,.12-.008.251-.012.509-.019.775,0,.046,0,.089,0,.135-.015.374-.027.763-.042,1.172,0,.054,0,.108-.008.162-.019.524-.042,1.076-.069,1.658-.062,1.307-.135,2.756-.227,4.364v0l-.173.042-11.777,2.791-.046.012s.474-6.3-.339-9.865a.813.813,0,0,0-.023-.093c-.012-.054-.023-.108-.039-.162-.027-.1-.054-.2-.077-.3s-.054-.208-.085-.316c-.1-.382-.216-.779-.335-1.2-.077-.278-.162-.563-.251-.856-.015-.05-.031-.1-.046-.146-.1-.347-.216-.705-.332-1.076-.035-.108-.066-.212-.1-.324-.17-.528-.351-1.087-.547-1.673q-.324-.989-.709-2.1a33.724,33.724,0,0,1,4.121-1.033c.2-.039.4-.073.6-.108s.424-.073.632-.1c1.056-.17,2.124-.289,3.192-.366q.642-.046,1.284-.069c.258,0,.524,0,.79.008h.108l.763.023c.12,0,.239.012.359.015l.227.012.247.012.4.023c.1.008.2.012.293.019l.528.035c.073.008.143.012.208.019l.185.012c.062.008.116.012.17.015l.139.012c.193.015.312.027.335.031l0,0s.012,0,.031.019l.027.027a.5.5,0,0,1,.066.1,3.109,3.109,0,0,1,.251.79c.015.077.031.162.05.254.023.135.046.289.073.459.019.119.035.247.05.385.012.123.027.251.039.389a42.342,42.342,0,0,1,.116,4.287" transform="translate(-23.135 -73.21)" fill="#263238"/>
        <path id="Path_5493" data-name="Path 5493" d="M54.892,115.872c-2.8-.36-3.647-1.559-3.647-1.559a3.548,3.548,0,0,0,.646-3.668,5.712,5.712,0,0,0-.346-.917l3.375.631a9.687,9.687,0,0,0-.13,1.421,4.239,4.239,0,0,0,.1,1.044c.229,1.008.8,1.023.8,1.023.593,1.108-.8,2.025-.8,2.025" transform="translate(-31.49 -67.427)" fill="#e4897b"/>
        <g id="Group_10311" data-name="Group 10311" transform="translate(20.055 42.3)" opacity="0.2" style="isolation: isolate">
          <g id="Group_10310" data-name="Group 10310">
            <g id="Group_10309" data-name="Group 10309" clip-path="url(#clip-path-43)">
              <path id="Path_5494" data-name="Path 5494" d="M55.267,111.781a4.254,4.254,0,0,0,.1,1.044,4.658,4.658,0,0,1-2.995-2.18,5.692,5.692,0,0,0-.346-.917l3.376.631a9.69,9.69,0,0,0-.131,1.421" transform="translate(-52.022 -109.728)"/>
            </g>
          </g>
        </g>
        <path id="Path_5495" data-name="Path 5495" d="M54.49,86.67c3.106.634,3.766,2.5,3.341,5.748-.532,4.058-2,6.719-5.708,5.072-5.037-2.236-2.791-11.872,2.367-10.82" transform="translate(-30.29 -53.209)" fill="#e4897b"/>
        <path id="Path_5496" data-name="Path 5496" d="M65.924,100.194a6.7,6.7,0,0,0,.641,1.473.872.872,0,0,1-.891.184Z" transform="translate(-40.357 -61.569)" fill="#de5753"/>
        <path id="Path_5497" data-name="Path 5497" d="M60.28,92.811a1.651,1.651,0,0,0-1.443.195" transform="translate(-36.155 -56.979)" fill="none" stroke="#263238" stroke-linecap="round" stroke-linejoin="round" stroke-width="0.725"/>
        <path id="Path_5498" data-name="Path 5498" d="M68.506,93.8a1.478,1.478,0,0,1,1.185.508" transform="translate(-42.097 -57.634)" fill="none" stroke="#263238" stroke-linecap="round" stroke-linejoin="round" stroke-width="0.725"/>
        <path id="Path_5499" data-name="Path 5499" d="M49.05,89.042s1.973-2.256,2.155-4.271c0,0,6.668-1.259,5.7,5.051,0,0,1.733-5.425-3.581-6.638s-6.885,6.6-4.6,9.493c0,0-.892-2.223.332-3.635" transform="translate(-29.314 -51.039)" fill="#263238"/>
        <path id="Path_5500" data-name="Path 5500" d="M48.623,98.082a1.391,1.391,0,0,0-1.213-1.544c-.984-.091-1.846,1.791.451,2.754.33.138.592-.158.762-1.21" transform="translate(-28.513 -59.32)" fill="#e4897b"/>
        <path id="Path_5501" data-name="Path 5501" d="M62.223,104.863a7.992,7.992,0,0,0-.73.9c-.062-.029-.124-.057-.185-.089-.833-.409-1.084-.873-1.11-1.264a1.192,1.192,0,0,1,.109-.556,1.161,1.161,0,0,1,.166-.278,4.369,4.369,0,0,0,1.467,1.14c.17.093.282.144.282.144" transform="translate(-36.991 -63.649)" fill="#263238"/>
        <path id="Path_5502" data-name="Path 5502" d="M62.119,104.72l-.222.261c-.783-.387-1.283-.764-1.412-1.122a1.161,1.161,0,0,1,.166-.278,4.374,4.374,0,0,0,1.468,1.14" transform="translate(-37.168 -63.649)" fill="#fff"/>
        <path id="Path_5503" data-name="Path 5503" d="M61.312,107.007c-.833-.409-1.084-.873-1.11-1.264a2.981,2.981,0,0,1,.835.637,1.118,1.118,0,0,1,.275.627" transform="translate(-36.994 -64.979)" fill="#de5753"/>
        <path id="Path_5504" data-name="Path 5504" d="M52.266,83.928s-2.294,4.855-5.5,4.133,3.082-6.18,3.082-6.18,5.656-.91,7.678,2.408-1.759,4.74-1.759,4.74,1.005-3.917-3.5-5.1" transform="translate(-28.179 -50.245)" fill="#263238"/>
        <path id="Path_5505" data-name="Path 5505" d="M57.606,86.414s-.332,3.567-3.128,4.272" transform="translate(-33.476 -53.101)" fill="none" stroke="#263238" stroke-linecap="round" stroke-linejoin="round" stroke-width="0.5"/>
        <path id="Path_5506" data-name="Path 5506" d="M60.663,98.236c-.01.246-.151.441-.315.434s-.29-.212-.279-.458.151-.441.315-.434.289.212.279.458" transform="translate(-36.911 -60.084)" fill="#263238"/>
        <path id="Path_5507" data-name="Path 5507" d="M60.708,97.5l.544-.189s-.285.441-.544.189" transform="translate(-37.305 -59.798)" fill="#263238"/>
        <path id="Path_5508" data-name="Path 5508" d="M68.615,98.422c-.01.246-.151.441-.315.434s-.29-.212-.28-.458.151-.441.316-.434.29.212.279.458" transform="translate(-41.798 -60.198)" fill="#263238"/>
        <path id="Path_5509" data-name="Path 5509" d="M68.661,97.686l.544-.189s-.285.441-.544.189" transform="translate(-42.192 -59.911)" fill="#263238"/>
        <path id="Path_5510" data-name="Path 5510" d="M80.768,121.912a.285.285,0,0,0,.291.324h3.224a.375.375,0,0,0,.365-.324l.72-6.363a.323.323,0,0,0-.291-.368H81.852a.418.418,0,0,0-.365.368Z" transform="translate(-49.63 -70.778)" fill="#263238"/>
        <g id="Group_10314" data-name="Group 10314" transform="translate(31.483 44.403)" opacity="0.5">
          <g id="Group_10313" data-name="Group 10313">
            <g id="Group_10312" data-name="Group 10312" clip-path="url(#clip-path-44)">
              <path id="Path_5511" data-name="Path 5511" d="M82.4,115.507l-.729,6.424a.244.244,0,0,0,.254.3h2.734c.184,0,.519-.1.54-.282l.729-6.446c.02-.181-.293-.326-.476-.326H82.717a.332.332,0,0,0-.318.326" transform="translate(-81.667 -115.181)" fill="#fff"/>
            </g>
          </g>
        </g>
        <path id="Path_5512" data-name="Path 5512" d="M91.508,124.857l-1.68-2.851a9.439,9.439,0,0,0-.142-1.852,3.778,3.778,0,0,0-2.116-1.03c-.323.119-.441,3.06-.147,3.456a4.414,4.414,0,0,0,1.323.837l-.071.559.981,2.969Z" transform="translate(-53.617 -73.194)" fill="#e4897b"/>
        <path id="Path_5513" data-name="Path 5513" d="M94.935,132.285l-.559-.559-2.645,2.969.377,1.176Z" transform="translate(-56.369 -80.945)" fill="#407bff"/>
        <path id="Path_5514" data-name="Path 5514" d="M64.688,117.7l-.335,1.233.682,1,1.512,14.1,4.133-.61c-.284-10.983-.4-11.041-1.978-14.993l-3.708-.258Z" transform="translate(-39.545 -72.324)" fill="#407bff"/>
        <g id="Group_10317" data-name="Group 10317" transform="translate(24.808 45.373)" opacity="0.6" style="isolation: isolate">
          <g id="Group_10316" data-name="Group 10316">
            <g id="Group_10315" data-name="Group 10315" clip-path="url(#clip-path-45)">
              <path id="Path_5515" data-name="Path 5515" d="M64.688,117.7l-.335,1.233.682,1,1.512,14.1,4.133-.61c-.284-10.983-.4-11.041-1.978-14.993l-3.708-.258Z" transform="translate(-64.353 -117.697)" fill="#fff"/>
            </g>
          </g>
        </g>
        <path id="Path_5516" data-name="Path 5516" d="M40.583,117.7l3.673,1.538-.9,1.534.891,14.428-5.568,1.627s-4.04-10.6-1.97-16.891l3.647-1.054Z" transform="translate(-22.193 -72.324)" fill="#407bff"/>
        <g id="Group_10320" data-name="Group 10320" transform="translate(13.923 45.373)" opacity="0.6" style="isolation: isolate">
          <g id="Group_10319" data-name="Group 10319">
            <g id="Group_10318" data-name="Group 10318" clip-path="url(#clip-path-46)">
              <path id="Path_5517" data-name="Path 5517" d="M44.1,132.914l.143,2.286-2.483.725-3.084.9a46.156,46.156,0,0,1-2.375-9.692,17.3,17.3,0,0,1,.4-7.2l3.647-1.052.227-1.183,3.674,1.538-.9,1.534.355,5.729Z" transform="translate(-36.117 -117.698)" fill="#fff"/>
            </g>
          </g>
        </g>
        <g id="Group_10323" data-name="Group 10323" transform="translate(14.109 51.46)" opacity="0.2" style="isolation: isolate">
          <g id="Group_10322" data-name="Group 10322">
            <g id="Group_10321" data-name="Group 10321" clip-path="url(#clip-path-47)">
              <path id="Path_5518" data-name="Path 5518" d="M47.655,138.11s-1.384,2.016-3.258,4.507c-.725.964-1.523,2-2.34,3.011l-3.084.9a46.156,46.156,0,0,1-2.375-9.692c1.511-1.515,3.362-3.35,3.362-3.35a12.214,12.214,0,0,1,.474,4.9L44,136.2l1.11-.678Z" transform="translate(-36.599 -133.488)"/>
            </g>
          </g>
        </g>
        <path id="Path_5519" data-name="Path 5519" d="M57.464,131l3.82-3a13.4,13.4,0,0,1,.811-1.887,23.537,23.537,0,0,1,3.861-1.548c.279-.033.017,2.744-.419,3.216a15.271,15.271,0,0,1-3.116,1.4l-4,3.767Z" transform="translate(-35.311 -76.547)" fill="#e4897b"/>
        <path id="Path_5520" data-name="Path 5520" d="M34.5,123.5c-2.243,1.124-3.241,13.792.655,15.98s9.716-7.7,9.716-7.7l-2.261-2.4s-4.742,3.97-5.314,3.605.079-4.244.079-4.244.667-1.174-.736-3.019A8.275,8.275,0,0,0,34.5,123.5" transform="translate(-19.984 -75.889)" fill="#407bff"/>
        <g id="Group_10326" data-name="Group 10326" transform="translate(12.537 47.609)" opacity="0.6" style="isolation: isolate">
          <g id="Group_10325" data-name="Group 10325">
            <g id="Group_10324" data-name="Group 10324" clip-path="url(#clip-path-48)">
              <path id="Path_5521" data-name="Path 5521" d="M34.5,123.5c-2.243,1.124-3.241,13.792.655,15.98s9.716-7.7,9.716-7.7l-2.261-2.4s-4.742,3.97-5.314,3.605.079-4.244.079-4.244.667-1.174-.736-3.019A8.275,8.275,0,0,0,34.5,123.5" transform="translate(-32.522 -123.498)" fill="#fff"/>
            </g>
          </g>
        </g>
        <path id="Path_5522" data-name="Path 5522" d="M60.207,140.681l.677-.407-2.54-3.724-.933.52Z" transform="translate(-35.279 -83.91)" fill="#407bff"/>
      </g>
    </g>
  </g>
</svg>
