<svg id="vision-ico" xmlns="http://www.w3.org/2000/svg" xmlns:xlink="http://www.w3.org/1999/xlink" width="56" height="35.449" viewBox="0 0 56 35.449">
  <defs>
    <clipPath id="clip-path">
      <rect id="Rectangle_480" data-name="Rectangle 480" width="56" height="35.449" fill="#fff"/>
    </clipPath>
  </defs>
  <g id="Group_718" data-name="Group 718" clip-path="url(#clip-path)">
    <path id="Path_643" data-name="Path 643" d="M153.234,51.631a10.686,10.686,0,1,0,10.686,10.686,10.686,10.686,0,0,0-10.686-10.686m0,18.3a7.618,7.618,0,1,1,7.618-7.618,7.618,7.618,0,0,1-7.618,7.618" transform="translate(-125.226 -45.357)" fill="#fff"/>
    <path id="Path_644" data-name="Path 644" d="M122.663,8.642A16.986,16.986,0,0,0,103.648.532a.009.009,0,0,0-.006,0,16.965,16.965,0,0,0,0,32.853.008.008,0,0,0,.006,0,17.093,17.093,0,0,0,8.027.106,16.827,16.827,0,0,0,4.8-1.91,4.211,4.211,0,0,1-.913-2.319.137.137,0,0,0-.025-.08l-.435-.435a13.822,13.822,0,1,1,4.455-4.388l.344.344a.152.152,0,0,0,.085.025,4.21,4.21,0,0,1,2.289.815c.055.039.108.081.161.124.077-.129.154-.259.227-.391a16.979,16.979,0,0,0,0-16.637" transform="translate(-79.872 0)" fill="#fff"/>
    <path id="Path_645" data-name="Path 645" d="M198.631,103.26a4.4,4.4,0,0,0-1.369.218,2.93,2.93,0,0,1-2.492,4.471,2.948,2.948,0,0,1-.546-.052,4.412,4.412,0,1,0,4.407-4.637" transform="translate(-170.622 -90.712)" fill="#fff"/>
    <path id="Path_646" data-name="Path 646" d="M31.8.426A23.711,23.711,0,0,0,28.009,0a30.212,30.212,0,0,0-4.232.532.009.009,0,0,0-.006,0C8.751,3.508,0,16.96,0,16.96S8.751,30.413,23.77,33.387a.009.009,0,0,0,.006,0,30.212,30.212,0,0,0,4.232.532,23.724,23.724,0,0,0,3.795-.426,28.024,28.024,0,0,0,5.139-1.533l-.027-.027a4.024,4.024,0,0,1-.312-.35,4.211,4.211,0,0,1-.913-2.319.137.137,0,0,0-.025-.08l0,0a23.043,23.043,0,0,1-7.617,1.68A28.422,28.422,0,0,1,17.613,28.15,34.007,34.007,0,0,1,13.6,25.917,38.986,38.986,0,0,1,9.532,22.88,43.217,43.217,0,0,1,3.8,16.96a43.179,43.179,0,0,1,5.733-5.918A38.966,38.966,0,0,1,13.6,8a33.99,33.99,0,0,1,4.01-2.234A28.428,28.428,0,0,1,28.045,3.06a24.2,24.2,0,0,1,9.519,2.51,37.26,37.26,0,0,1,5.227,3.073q1.5,1.048,3,2.279a55.524,55.524,0,0,1,6.234,6.039A55.428,55.428,0,0,1,45.791,23q-1.495,1.231-3,2.279c-.13.09-.258.179-.388.267.055.039.108.081.161.124.112.092.22.189.323.292l1.754,1.754A55.815,55.815,0,0,0,56,16.96S45.557,3.081,31.8.426" transform="translate(0)" fill="#fff"/>
    <path id="Path_647" data-name="Path 647" d="M291.789,198.329l-3.887-3.887a2.6,2.6,0,0,0-1.716-.762,1.727,1.727,0,0,1-1.142-.493l-2.7-2.7-2.146,2.146,2.754,2.753a1.726,1.726,0,0,1,.491,1.1,2.6,2.6,0,0,0,.758,1.652l3.887,3.887a2.614,2.614,0,1,0,3.7-3.7" transform="translate(-246.152 -167.343)" fill="#fff"/>
  </g>
</svg>
