<svg xmlns="http://www.w3.org/2000/svg" width="97" height="97" viewBox="0 0 97 97">
  <g id="visibility-ico" transform="translate(-479 -205)">
    <circle id="Ellipse_250" data-name="Ellipse 250" cx="48.5" cy="48.5" r="48.5" transform="translate(479 205)" fill="#838ea4" opacity="0.2"/>
    <g id="shared-vision" transform="translate(505.565 229.086)">
      <path id="Path_4977" data-name="Path 4977" d="M160.954,197.907a.954.954,0,1,0-.954-.954A.954.954,0,0,0,160.954,197.907Zm0,0" transform="translate(-144.74 -177.308)" fill="#20285b"/>
      <path id="Path_4978" data-name="Path 4978" d="M220.954,8.2a.954.954,0,0,0,.954-.954V.954a.954.954,0,1,0-1.907,0V7.248A.954.954,0,0,0,220.954,8.2Zm0,0" transform="translate(-199.018)" fill="#20285b"/>
      <path id="Path_4979" data-name="Path 4979" d="M220,426.954v6.294a.954.954,0,1,0,1.907,0v-6.294a.954.954,0,1,0-1.907,0Zm0,0" transform="translate(-199.018 -385.374)" fill="#20285b"/>
      <path id="Path_4980" data-name="Path 4980" d="M34.615,81.963a.954.954,0,1,0,1.349-1.349l-4.047-4.046a.954.954,0,1,0-1.349,1.349Zm0,0" transform="translate(-27.4 -69.014)" fill="#20285b"/>
      <path id="Path_4981" data-name="Path 4981" d="M367.561,383.559a.954.954,0,0,0,0,1.349l4.046,4.046a.954.954,0,1,0,1.349-1.349l-4.046-4.046A.954.954,0,0,0,367.561,383.559Zm0,0" transform="translate(-332.254 -346.728)" fill="#20285b"/>
      <path id="Path_4982" data-name="Path 4982" d="M368.91,81.963l4.046-4.046a.954.954,0,1,0-1.349-1.349l-4.046,4.046a.954.954,0,0,0,1.349,1.349Zm0,0" transform="translate(-332.254 -69.014)" fill="#20285b"/>
      <path id="Path_4983" data-name="Path 4983" d="M34.615,383.561l-4.046,4.046a.954.954,0,0,0,1.349,1.349l4.047-4.046a.954.954,0,0,0-1.349-1.349Zm0,0" transform="translate(-27.4 -346.729)" fill="#20285b"/>
      <path id="Path_4984" data-name="Path 4984" d="M6.089,136.279c4.97,4.2,10.45,6.424,15.847,6.424s10.877-2.221,15.847-6.424a34.618,34.618,0,0,0,5.925-6.395.954.954,0,0,0,0-1.065,34.631,34.631,0,0,0-5.925-6.395c-4.97-4.2-10.449-6.424-15.847-6.424s-10.877,2.221-15.847,6.424a34.65,34.65,0,0,0-5.925,6.395.954.954,0,0,0,0,1.065,34.65,34.65,0,0,0,5.925,6.395Zm1.232-12.4c3.222-2.725,8.374-5.973,14.615-5.973,6.222,0,11.36,3.23,14.575,5.939a34.761,34.761,0,0,1,5.23,5.506,34.656,34.656,0,0,1-5.19,5.47c-3.222,2.725-8.374,5.973-14.615,5.973-6.222,0-11.36-3.23-14.574-5.939a34.741,34.741,0,0,1-5.23-5.505,34.61,34.61,0,0,1,5.189-5.47Zm0,0" transform="translate(0 -104.938)" fill="#20285b"/>
      <path id="Path_4985" data-name="Path 4985" d="M148.583,183.166a8.583,8.583,0,1,0-3.072-16.6.957.957,0,1,0,.783,1.744,6.677,6.677,0,1,1-4.387,6.273,6.943,6.943,0,0,1,.11-1.217.954.954,0,0,0-1.875-.351,8.592,8.592,0,0,0,8.44,10.151Zm0,0" transform="translate(-126.648 -150.169)" fill="#20285b"/>
      <path id="Path_4986" data-name="Path 4986" d="M197.629,219.815a3.815,3.815,0,1,0-3.815,3.815A3.819,3.819,0,0,0,197.629,219.815Zm-5.722,0a1.907,1.907,0,1,1,1.907,1.907A1.91,1.91,0,0,1,191.907,219.815Zm0,0" transform="translate(-171.879 -195.401)" fill="#20285b"/>
    </g>
  </g>
</svg>
